<?xml version="1.0" encoding="UTF-8" standalone="no"?>
<!-- Created with Inkscape (http://www.inkscape.org/) -->

<svg
   width="18.476376mm"
   height="15.66148mm"
   viewBox="0 0 18.476376 15.66148"
   version="1.1"
   id="svg1"
   xmlns:inkscape="http://www.inkscape.org/namespaces/inkscape"
   xmlns:sodipodi="http://sodipodi.sourceforge.net/DTD/sodipodi-0.dtd"
   xmlns="http://www.w3.org/2000/svg"
   xmlns:svg="http://www.w3.org/2000/svg">
  <sodipodi:namedview
     id="namedview1"
     pagecolor="#ffffff"
     bordercolor="#000000"
     borderopacity="0.25"
     inkscape:showpageshadow="2"
     inkscape:pageopacity="0.0"
     inkscape:pagecheckerboard="0"
     inkscape:deskcolor="#d1d1d1"
     inkscape:document-units="mm" />
  <defs
     id="defs1" />
  <g
     inkscape:label="Layer 1"
     inkscape:groupmode="layer"
     id="layer1"
     transform="translate(-152.02478,-252.13729)">
    <g
       id="g734"
       transform="matrix(0.35184724,0,0,0.35184724,210.99334,-86.525963)"
       style="stroke-width:0.751984">
      <ellipse
         style="fill:#000000;fill-opacity:1;stroke:none;stroke-width:0.968081;stroke-linecap:butt;stroke-opacity:1"
         id="ellipse289"
         cx="-137.12421"
         cy="983.49298"
         rx="4.3547745"
         ry="4.5709863" />
      <path
         style="fill:#000000;fill-opacity:1;stroke:none;stroke-width:0.727542;stroke-linecap:butt;stroke-opacity:1"
         d="m -142.72179,1007.0414 h 11.31987 v -15.80957 c -2.73834,-2.73835 -8.72068,-2.75287 -11.44458,0 0,4.23341 0.12471,15.80957 0.12471,15.80957 z"
         id="path289"
         sodipodi:nodetypes="ccccc" />
      <ellipse
         style="fill:#000000;fill-opacity:1;stroke:none;stroke-width:1.26366;stroke-linecap:butt;stroke-opacity:1"
         id="ellipse290"
         cx="-157.6582"
         cy="968.49579"
         rx="5.6843538"
         ry="5.966578" />
      <path
         style="fill:#000000;fill-opacity:1;stroke:none;stroke-width:1.26366;stroke-linecap:butt;stroke-opacity:1"
         d="m -167.38046,1007.0414 h 19.66129 V 979.582 c -4.75618,-4.75619 -15.14681,-4.7814 -19.8779,0 0,7.35295 0.21661,27.4594 0.21661,27.4594 z"
         id="path290"
         sodipodi:nodetypes="ccccc" />
      <ellipse
         style="fill:#000000;fill-opacity:1;stroke:none;stroke-width:0.968081;stroke-linecap:butt;stroke-opacity:1"
         id="ellipse291"
         cx="-120.80688"
         cy="983.49298"
         rx="4.3547745"
         ry="4.5709863" />
      <path
         style="fill:#000000;fill-opacity:1;stroke:none;stroke-width:0.727542;stroke-linecap:butt;stroke-opacity:1"
         d="m -126.40445,1007.0414 h 11.31987 v -15.80957 c -2.73834,-2.73835 -8.72068,-2.75287 -11.44458,0 0,4.23341 0.12471,15.80957 0.12471,15.80957 z"
         id="path291"
         sodipodi:nodetypes="ccccc" />
      <ellipse
         style="fill:#000000;fill-opacity:1;stroke:none;stroke-width:0.968081;stroke-linecap:butt;stroke-opacity:1"
         id="ellipse491"
         cx="-137.12421"
         cy="983.49298"
         rx="4.3547745"
         ry="4.5709863" />
      <path
         style="fill:#000000;fill-opacity:1;stroke:none;stroke-width:0.727542;stroke-linecap:butt;stroke-opacity:1"
         d="m -142.72179,1007.0414 h 11.31987 v -15.80957 c -2.73834,-2.73835 -8.72068,-2.75287 -11.44458,0 0,4.23341 0.12471,15.80957 0.12471,15.80957 z"
         id="path491"
         sodipodi:nodetypes="ccccc" />
      <ellipse
         style="fill:#000000;fill-opacity:1;stroke:none;stroke-width:1.26366;stroke-linecap:butt;stroke-opacity:1"
         id="ellipse492"
         cx="-157.6582"
         cy="968.49579"
         rx="5.6843538"
         ry="5.966578" />
      <path
         style="fill:#000000;fill-opacity:1;stroke:none;stroke-width:1.26366;stroke-linecap:butt;stroke-opacity:1"
         d="m -167.38046,1007.0414 h 19.66129 V 979.582 c -4.75618,-4.75619 -15.14681,-4.7814 -19.8779,0 0,7.35295 0.21661,27.4594 0.21661,27.4594 z"
         id="path492"
         sodipodi:nodetypes="ccccc" />
      <ellipse
         style="fill:#000000;fill-opacity:1;stroke:none;stroke-width:0.968081;stroke-linecap:butt;stroke-opacity:1"
         id="ellipse493"
         cx="-120.80688"
         cy="983.49298"
         rx="4.3547745"
         ry="4.5709863" />
      <path
         style="fill:#000000;fill-opacity:1;stroke:none;stroke-width:0.727542;stroke-linecap:butt;stroke-opacity:1"
         d="m -126.40445,1007.0414 h 11.31987 v -15.80957 c -2.73834,-2.73835 -8.72068,-2.75287 -11.44458,0 0,4.23341 0.12471,15.80957 0.12471,15.80957 z"
         id="path493"
         sodipodi:nodetypes="ccccc" />
    </g>
  </g>
</svg>
