<?xml version="1.0" encoding="UTF-8" standalone="no"?>
<!-- Created with Inkscape (http://www.inkscape.org/) -->

<svg
   width="15.516753mm"
   height="15.432529mm"
   viewBox="0 0 15.516753 15.432529"
   version="1.1"
   id="svg1"
   xmlns:inkscape="http://www.inkscape.org/namespaces/inkscape"
   xmlns:sodipodi="http://sodipodi.sourceforge.net/DTD/sodipodi-0.dtd"
   xmlns="http://www.w3.org/2000/svg"
   xmlns:svg="http://www.w3.org/2000/svg">
  <sodipodi:namedview
     id="namedview1"
     pagecolor="#ffffff"
     bordercolor="#000000"
     borderopacity="0.25"
     inkscape:showpageshadow="2"
     inkscape:pageopacity="0.0"
     inkscape:pagecheckerboard="0"
     inkscape:deskcolor="#d1d1d1"
     inkscape:document-units="mm" />
  <defs
     id="defs1" />
  <g
     inkscape:label="Layer 1"
     inkscape:groupmode="layer"
     id="layer1"
     transform="translate(-162.41091,-105.92622)">
    <g
       id="g218"
       transform="matrix(0.30322808,0,0,0.30322808,203.85126,-58.014335)"
       style="stroke-width:0.872557">
      <path
         id="path198"
         style="fill:#000000;fill-opacity:1;stroke:none;stroke-width:2.60412;stroke-dasharray:none;stroke-opacity:1"
         d="m -106.06238,553.35913 a 12.73842,7.4291978 49.116442 0 0 -3.92578,1.14258 12.73842,7.4291978 49.116442 0 0 0.45117,11.30274 c -4.46349,2.4121 -10.13728,5.28429 -13.01367,5.9375 -0.15501,3.2858 -0.30859,7.55468 -0.30859,7.55468 0,0 4.0082,1.23642 6.61718,2.21485 1.64714,-2.80127 6.82721,-7.31925 10.86524,-10.60938 a 12.73842,7.4291978 49.116442 0 0 12.062498,2.86133 12.73842,7.4291978 49.116442 0 0 -1.31641,-12.68164 c 1.71133,-1.24499 3.54535,-2.50187 4.69922,-3.05078 2.647927,-1.25965 4.30078,-0.20703 4.300781,-0.20703 l 0.138672,-3.02735 c 0,0 -3.618753,-1.19924 -6.474613,0.17969 -1.28302,0.6195 -3.26146,1.96246 -5.0625,3.25586 a 12.73842,7.4291978 49.116442 0 0 -9.033198,-4.87305 z m 3.95508,11.57032 0.65039,0.96289 c 0,0 -15.08118,11.15228 -16.41211,13.92383 -0.82034,-1.23294 -1.49642,-2.23469 -2.35937,-3.14258 4.37297,-2.4309 18.12108,-11.74414 18.12109,-11.74414 z" />
      <path
         style="fill:none;fill-opacity:1;stroke:#000000;stroke-width:2.18139;stroke-linecap:butt;stroke-linejoin:round;stroke-dasharray:none;stroke-opacity:1"
         d="m -120.97109,567.53156 c 0,0 2.18792,-7.1056 1.98661,-10.20349 -0.20131,-3.09789 -1.37103,-5.67634 -2.13277,-8.75889 -0.76174,-3.08255 1.18646,-7.4761 1.18646,-7.4761"
         id="path199"
         sodipodi:nodetypes="czzc" />
      <path
         style="fill:none;fill-opacity:1;stroke:#000000;stroke-width:2.18139;stroke-linecap:butt;stroke-linejoin:round;stroke-dasharray:none;stroke-opacity:1"
         d="m -126.31468,565.7886 c 0,0 1.92184,-4.76093 1.87678,-7.67132 -0.045,-2.91039 -1.1482,-5.69149 -1.73318,-8.33211 -0.58496,-2.64061 0.35121,-5.84589 0.35121,-5.84589"
         id="path200"
         sodipodi:nodetypes="czzc" />
      <path
         id="path214"
         style="fill:#000000;fill-opacity:1;stroke:none;stroke-width:2.60412;stroke-dasharray:none;stroke-opacity:1"
         d="m -128.70278,567.46971 c -1.61193,-0.0612 -3.20879,0.54369 -4.3864,2.05248 -3.14026,4.02341 0.0826,7.94146 2.15645,8.07909 -3.38878,-0.66711 -8.21954,4.38806 -4.22148,9.46112 2.54172,3.2251 7.31634,2.11917 9.83758,-0.15774 0.47759,3.48378 4.54209,5.61582 7.90699,4.1946 4.65377,-1.96555 4.39404,-8.30198 1.20998,-9.59199 0.0644,-0.13627 0.14475,-0.28134 0.23124,-0.42844 -2.39426,-0.89816 -6.0732,-2.03276 -6.0732,-2.03276 0,0 0.14124,-3.918 0.28323,-6.93362 -0.23302,0.0529 -0.45317,0.0954 -0.64353,0.11466 -0.88733,-2.703 -3.61432,-4.65545 -6.30086,-4.75746 z m -1.83021,3.99025 c 0.0497,-0.002 0.10062,-9.3e-4 0.15058,0.002 0.62543,0.0357 2.19377,0.93261 2.49704,1.10243 0.30326,0.16984 0.36215,0.4238 0.29756,0.70627 0,0 -0.80374,2.48338 -1.04327,2.86989 -0.23951,0.38649 -0.70447,0.28861 -0.70447,0.28861 -2.20782,-0.33118 -4.1175,-1.96326 -2.23533,-4.4832 0.34758,-0.33785 0.68979,-0.47291 1.03789,-0.48579 z m 0.38541,10.32515 c 0.23476,6.5e-4 0.40679,0.11717 0.49833,0.30832 0.12205,0.25484 1.36348,2.55957 1.48424,3.04197 0.12082,0.48241 -0.20794,0.71524 -0.20794,0.71524 -1.94201,1.4799 -4.77909,1.79058 -5.32212,-1.60613 -2.7e-4,-0.60583 0.20288,-1.00338 0.52522,-1.29961 0.50451,-0.46354 2.40344,-1.01182 2.76772,-1.12036 0.091,-0.0271 0.17629,-0.0397 0.25454,-0.0394 z m 10.06881,2.98282 c 0.26293,-0.009 0.55333,0.12396 0.67759,0.40153 0.14201,0.31723 0.89336,1.95877 0.87298,2.58488 -0.0131,0.40009 -0.16608,0.77895 -0.58617,1.14007 -2.6782,1.64918 -4.16621,-0.45666 -4.29856,-2.68526 -0.004,-0.4474 0.33313,-0.59311 0.38361,-0.61844 0.40638,-0.20398 2.55421,-0.75324 2.84121,-0.81024 0.0359,-0.007 0.0718,-0.0117 0.10934,-0.0125 z" />
      <path
         style="fill:none;fill-opacity:1;stroke:#000000;stroke-width:2.18139;stroke-linecap:butt;stroke-linejoin:round;stroke-dasharray:none;stroke-opacity:1"
         d="m -132.45729,565.5913 c 0,0 2.62358,-5.4279 2.57852,-8.33829 -0.045,-2.91039 -1.10402,-3.8764 -1.46801,-6.51701 -0.36399,-2.64061 0.0311,-4.28523 0.0311,-4.28523"
         id="path218"
         sodipodi:nodetypes="czzc" />
    </g>
  </g>
</svg>
