<?xml version="1.0" encoding="UTF-8" standalone="no"?>
<!-- Created with Inkscape (http://www.inkscape.org/) -->

<svg
   width="210mm"
   height="297mm"
   viewBox="0 0 210 297"
   version="1.1"
   id="svg1"
   inkscape:version="1.3.2 (091e20e, 2023-11-25, custom)"
   sodipodi:docname="icons_final.svg"
   xmlns:inkscape="http://www.inkscape.org/namespaces/inkscape"
   xmlns:sodipodi="http://sodipodi.sourceforge.net/DTD/sodipodi-0.dtd"
   xmlns="http://www.w3.org/2000/svg"
   xmlns:svg="http://www.w3.org/2000/svg">
  <sodipodi:namedview
     id="namedview1"
     pagecolor="#ffffff"
     bordercolor="#000000"
     borderopacity="0.25"
     inkscape:showpageshadow="2"
     inkscape:pageopacity="0.0"
     inkscape:pagecheckerboard="0"
     inkscape:deskcolor="#d1d1d1"
     inkscape:document-units="mm"
     inkscape:zoom="0.26280163"
     inkscape:cx="979.82651"
     inkscape:cy="468.03364"
     inkscape:window-width="1366"
     inkscape:window-height="697"
     inkscape:window-x="-8"
     inkscape:window-y="-8"
     inkscape:window-maximized="1"
     inkscape:current-layer="layer1"
     showguides="false" />
  <defs
     id="defs1" />
  <g
     inkscape:label="Layer 1"
     inkscape:groupmode="layer"
     id="layer1">
    <g
       id="g384"
       transform="matrix(0.44506632,0,0,0.44506632,-54.998572,-194.89668)"
       inkscape:export-filename="tv.svg"
       inkscape:export-xdpi="2284.9836"
       inkscape:export-ydpi="2284.9836"
       style="stroke-width:0.751984">
      <rect
         style="fill:#000000;fill-opacity:1;stroke:none;stroke-width:3.75992;stroke-linecap:round;stroke-dasharray:none;stroke-opacity:1"
         id="rect42"
         width="36.795883"
         height="21.204407"
         x="270.24084"
         y="596.90594"
         rx="0"
         ry="0" />
      <rect
         style="opacity:1;fill:#000000;fill-opacity:1;stroke:none;stroke-width:1.1746;stroke-linecap:round;stroke-dasharray:none;stroke-opacity:1"
         id="rect145"
         width="27.013306"
         height="1.8825824"
         x="275.34277"
         y="619.93365" />
    </g>
    <g
       id="g383"
       transform="matrix(0.44506632,0,0,0.44506632,-55.394643,-194.90908)"
       inkscape:export-filename="sofa_bed.svg"
       inkscape:export-xdpi="1974.189"
       inkscape:export-ydpi="1974.189"
       style="stroke-width:0.751984;fill:#000000;fill-opacity:1">
      <rect
         style="fill:#000000;fill-opacity:1;stroke-width:1.68823;stroke-linecap:round"
         id="rect72"
         width="22.003746"
         height="12.142686"
         x="340.61929"
         y="607.50812"
         rx="0"
         ry="0" />
      <rect
         style="fill:#000000;fill-opacity:1;stroke-width:1.68823;stroke-linecap:round"
         id="rect73"
         width="4.405591"
         height="12.118312"
         x="340.61929"
         y="593.86536" />
      <rect
         style="fill:#000000;fill-opacity:1;stroke-width:1.68823;stroke-linecap:round"
         id="rect74"
         width="2.4330127"
         height="1.5220162"
         x="340.61929"
         y="621.17523" />
      <rect
         style="fill:#000000;fill-opacity:1;stroke-width:1.68823;stroke-linecap:round"
         id="rect75"
         width="2.4330127"
         height="1.5220162"
         x="360.19003"
         y="621.17523" />
      <rect
         style="fill:#000000;fill-opacity:1;stroke-width:1.68823;stroke-linecap:round"
         id="rect76"
         width="21.473415"
         height="8.5582485"
         x="364.15518"
         y="611.09253"
         rx="0"
         ry="0" />
      <path
         style="fill:#000000;fill-opacity:1;stroke-width:1.68823;stroke-linecap:round"
         d="m 345.8228,601.76973 c 1.44439,1.78713 2.66948,4.55109 4.09411,4.18014 0.52671,-0.0895 2.38463,0.0123 2.95841,0.0123 0.83337,0 -2.28313,-3.29629 -3.01536,-3.95063 -1.46447,-1.30866 -5.48157,-2.02897 -4.03718,-0.24184 z"
         id="path76"
         sodipodi:nodetypes="zccszz" />
      <rect
         style="fill:#000000;fill-opacity:1;stroke-width:1.68823;stroke-linecap:round"
         id="rect77"
         width="2.4330127"
         height="1.5220162"
         x="383.19559"
         y="621.17523" />
    </g>
    <g
       id="g731"
       inkscape:export-filename="jacuzzi.svg"
       inkscape:export-xdpi="1837.2633"
       inkscape:export-ydpi="1837.2633"
       transform="matrix(0.35184724,0,0,0.35184724,210.99334,-86.525963)"
       style="stroke-width:0.751984">
      <path
         id="path213"
         style="fill:#000000;fill-opacity:1;stroke-width:2.13552;stroke-linecap:round"
         d="m -125.84474,456.97191 c -1.49592,2.37276 -3.77751,4.16438 -6.26789,4.15553 -2.49037,-0.009 -4.81004,-1.98019 -5.93188,-3.85411 -0.85703,2.98604 -2.79191,3.75762 -5.45507,3.79482 0.69118,3.90225 2.32651,7.43434 4.63977,10.38388 h 36.8785 c 2.30609,-2.94095 3.935461,-6.46274 4.629876,-10.35176 -2.492555,-0.48178 -4.449336,-0.0385 -5.417996,-3.90354 -1.18814,2.12378 -1.62105,4.34975 -5.11906,4.33836 -3.49803,-0.0114 -4.46469,-2.07282 -5.82318,-4.56318 -1.4334,2.5287 -3.21098,4.61259 -6.47048,4.61259 -3.25951,0 -4.65578,-2.34424 -5.66259,-4.61259 z" />
      <path
         id="circle232"
         style="fill:#000000;fill-opacity:1;stroke-width:2.13552;stroke-linecap:round"
         d="m -278.92624,372.19889 a 3.1567361,3.1567361 0 0 0 -1.311,-0.28461 3.1567361,3.1567361 0 0 0 -3.15605,3.15579 3.1567361,3.1567361 0 0 0 3.15761,3.15679 3.1567361,3.1567361 0 0 0 3.15605,-3.1558 3.1567361,3.1567361 0 0 0 -1.84661,-2.87217 z m -0.53756,0.50762 c 0.5399,0.20965 0.97911,0.55982 1.15983,0.86809 -0.57143,0.10888 -0.6127,0.3812 -0.88472,0.89829 -0.29935,-0.78918 -1.66029,-1.13108 -1.66029,-1.13108 0.0544,-0.4082 0.69276,-0.77412 0.91047,-0.77417 0.16371,0.0327 0.32354,0.0802 0.47471,0.13887 z"
         transform="rotate(-21.971654)" />
      <path
         id="circle233"
         style="fill:#000000;fill-opacity:1;stroke-width:2.13552;stroke-linecap:round"
         d="m -230.85843,392.74576 a 1.1194246,1.1194246 0 0 0 -0.31494,-0.0456 1.1194246,1.1194246 0 0 0 -1.12001,1.11894 1.1194246,1.1194246 0 0 0 1.11894,1.12002 1.1194246,1.1194246 0 0 0 1.12002,-1.11895 1.1194246,1.1194246 0 0 0 -0.80401,-1.07438 z m -0.13602,0.20341 c 0.23384,0.0659 0.43041,0.21209 0.50478,0.3389 -0.20268,0.0386 -0.21595,0.13545 -0.31243,0.31881 -0.10616,-0.27983 -0.59026,-0.39988 -0.59026,-0.39988 0.0193,-0.14474 0.24619,-0.27465 0.32337,-0.27459 0.0249,0.005 0.0504,0.01 0.0745,0.0168 z"
         transform="rotate(-17.071453)" />
      <path
         id="circle234"
         style="fill:#000000;fill-opacity:1;stroke-width:2.13552;stroke-linecap:round"
         d="m -272.14865,367.05653 a 2.3492918,2.3492918 0 0 0 -0.97572,-0.21253 2.3492918,2.3492918 0 0 0 -2.34886,2.35049 2.3492918,2.3492918 0 0 0 2.34868,2.34813 2.3492918,2.3492918 0 0 0 2.34994,-2.34795 2.3492918,2.3492918 0 0 0 -1.37404,-2.13814 z m -0.4008,0.37746 c 0.4018,0.15603 0.7297,0.41619 0.86418,0.64561 -0.42551,0.0809 -0.45697,0.28424 -0.65954,0.66901 -0.22278,-0.58733 -1.23572,-0.84184 -1.23572,-0.84184 0.0405,-0.30379 0.51721,-0.57685 0.67922,-0.57683 0.12183,0.0244 0.23936,0.0604 0.35186,0.10405 z"
         transform="rotate(-21.971654)" />
      <path
         id="circle236"
         style="fill:#000000;fill-opacity:1;stroke-width:2.13552;stroke-linecap:round"
         d="m -227.76778,400.93784 a 0.78400618,0.78400618 0 0 0 -0.21943,-0.0306 0.78400618,0.78400618 0 0 0 -0.7839,0.78289 0.78400618,0.78400618 0 0 0 0.78288,0.7839 0.78400618,0.78400618 0 0 0 0.7839,-0.78289 0.78400618,0.78400618 0 0 0 -0.56345,-0.75329 z m -0.0948,0.1425 c 0.16378,0.0462 0.30212,0.1486 0.35409,0.23746 -0.142,0.027 -0.15265,0.0961 -0.22015,0.22456 -0.0743,-0.19604 -0.41199,-0.2818 -0.41199,-0.2818 0.0135,-0.10142 0.17253,-0.19201 0.22649,-0.19196 0.0174,0.003 0.0346,0.007 0.0516,0.0117 z"
         transform="rotate(-17.071453)" />
      <path
         id="circle237"
         style="fill:#000000;fill-opacity:1;stroke-width:2.13552;stroke-linecap:round"
         d="m -280.40465,361.97758 a 1.1194247,1.1194247 0 0 0 -0.46467,-0.10112 1.1194247,1.1194247 0 0 0 -1.11931,1.11956 1.1194247,1.1194247 0 0 0 1.11955,1.11932 1.1194247,1.1194247 0 0 0 1.11932,-1.11956 1.1194247,1.1194247 0 0 0 -0.65489,-1.0182 z m -0.16631,0.18774 c 0.18093,0.0751 0.32523,0.19437 0.38683,0.29928 -0.20194,0.0389 -0.21707,0.13452 -0.31358,0.31787 -0.10618,-0.2798 -0.58855,-0.39961 -0.58855,-0.39961 0.0193,-0.14474 0.2468,-0.27585 0.32398,-0.27577 0.0663,0.0133 0.13102,0.0332 0.19132,0.0582 z"
         transform="rotate(-21.971654)" />
      <path
         id="circle238"
         style="fill:#000000;fill-opacity:1;stroke-width:2.13552;stroke-linecap:round"
         d="m -274.0276,361.8841 a 0.78400618,0.78400618 0 0 0 -0.32729,-0.071 0.78400618,0.78400618 0 0 0 -0.78356,0.78325 0.78400618,0.78400618 0 0 0 0.78507,0.78429 0.78400618,0.78400618 0 0 0 0.78355,-0.78326 0.78400618,0.78400618 0 0 0 -0.45777,-0.71331 z m -0.16608,0.11411 c 0.14892,0.0499 0.27045,0.14487 0.31885,0.22763 -0.14175,0.0271 -0.15119,0.0951 -0.21864,0.22349 -0.0743,-0.19602 -0.41336,-0.28049 -0.41336,-0.28049 0.0135,-0.10142 0.17324,-0.19265 0.22726,-0.19264 0.029,0.006 0.0583,0.0128 0.0859,0.022 z"
         transform="rotate(-21.971654)" />
      <path
         style="fill:none;fill-opacity:1;stroke:#000000;stroke-width:2.61109;stroke-linecap:round;stroke-dasharray:none;stroke-opacity:1"
         d="m -147.55631,461.02118 c 0,5.25112 2.92518,10.43577 6.72001,14.2306 20.55773,0 40.952491,0.31624 40.952491,0.31624 0,0 6.720004,-6.34963 6.720004,-14.38872"
         id="path248"
         sodipodi:nodetypes="cccc" />
      <path
         id="circle248"
         style="fill:#000000;fill-opacity:1;stroke-width:2.13552;stroke-linecap:round"
         d="m -256.72452,387.17656 a 2.3492918,2.3492918 0 0 0 -0.66332,-0.0954 2.3492918,2.3492918 0 0 0 -2.34796,2.34981 2.3492918,2.3492918 0 0 0 2.3498,2.34795 2.3492918,2.3492918 0 0 0 2.34796,-2.3498 2.3492918,2.3492918 0 0 0 -1.68648,-2.25254 z m -0.28452,0.4275 c 0.49075,0.13826 0.90441,0.44568 1.06042,0.7118 -0.42533,0.081 -0.45626,0.28328 -0.65874,0.66808 -0.22278,-0.58735 -1.23582,-0.83922 -1.23582,-0.83922 0.0405,-0.30377 0.51614,-0.57831 0.67818,-0.57834 0.0522,0.0104 0.1052,0.0234 0.15596,0.0377 z"
         transform="rotate(-17.071453)" />
      <path
         id="circle252"
         style="fill:#000000;fill-opacity:1;stroke-width:2.13552;stroke-linecap:round"
         d="m -299.97816,367.46274 a 1.1194247,1.1194247 0 0 0 -0.46467,-0.10112 1.1194247,1.1194247 0 0 0 -1.11932,1.11956 1.1194247,1.1194247 0 0 0 1.11956,1.11932 1.1194247,1.1194247 0 0 0 1.11932,-1.11956 1.1194247,1.1194247 0 0 0 -0.65489,-1.0182 z m -0.21413,0.17056 c 0.202,0.0731 0.36792,0.20281 0.43464,0.31646 -0.20193,0.0389 -0.21706,0.13452 -0.31358,0.31787 -0.10617,-0.2798 -0.58854,-0.39961 -0.58854,-0.39961 0.0193,-0.14474 0.24676,-0.27576 0.32397,-0.27577 0.0498,0.01 0.0969,0.0242 0.14351,0.0411 z"
         transform="rotate(-21.971654)" />
      <path
         id="circle255"
         style="fill:#000000;fill-opacity:1;stroke-width:2.13552;stroke-linecap:round"
         d="m -291.91967,373.95523 a 0.78400618,0.78400618 0 0 0 -0.32549,-0.0702 0.78400618,0.78400618 0 0 0 -0.78428,0.78506 0.78400618,0.78400618 0 0 0 0.78325,0.78356 0.78400618,0.78400618 0 0 0 0.78429,-0.78507 0.78400618,0.78400618 0 0 0 -0.45777,-0.71331 z m -0.16609,0.11411 c 0.14892,0.0499 0.27223,0.14568 0.32066,0.22836 -0.14174,0.0271 -0.153,0.0943 -0.22045,0.22276 -0.0743,-0.19603 -0.41154,-0.27977 -0.41154,-0.27977 0.0135,-0.10141 0.17142,-0.19338 0.22544,-0.19336 0.029,0.006 0.0583,0.0128 0.0859,0.022 z"
         transform="rotate(-21.971654)" />
      <path
         id="circle256"
         style="fill:#000000;fill-opacity:1;stroke-width:2.13552;stroke-linecap:round"
         d="m -293.84952,359.91456 a 0.78400618,0.78400618 0 0 0 -0.32549,-0.0702 0.78400618,0.78400618 0 0 0 -0.7861,0.78433 0.78400618,0.78400618 0 0 0 0.78507,0.78429 0.78400618,0.78400618 0 0 0 0.78429,-0.78506 0.78400618,0.78400618 0 0 0 -0.45777,-0.71332 z m -0.16609,0.11412 c 0.14892,0.0499 0.27045,0.14486 0.31885,0.22762 -0.14175,0.0271 -0.15119,0.0951 -0.21864,0.2235 -0.0743,-0.19602 -0.41335,-0.2805 -0.41335,-0.2805 0.0135,-0.10142 0.17323,-0.19265 0.22725,-0.19264 0.029,0.006 0.0583,0.0128 0.0859,0.022 z"
         transform="rotate(-21.971654)" />
      <path
         id="circle257"
         style="fill:#000000;fill-opacity:1;stroke-width:2.13552;stroke-linecap:round"
         d="m -107.80936,450.37888 a 2.3492918,2.3492918 0 0 0 -0.66016,0.10351 2.3492918,2.3492918 0 0 0 -1.55663,2.93555 2.3492918,2.3492918 0 0 0 2.93554,1.55664 2.3492918,2.3492918 0 0 0 1.55665,-2.93554 2.3492918,2.3492918 0 0 0 -2.2754,-1.66016 z m -0.0937,0.49218 c 0.49028,6.3e-4 0.95051,0.16969 1.16993,0.3711 -0.3828,0.2023 -0.353,0.40473 -0.4336,0.83203 -0.38539,-0.49608 -1.42773,-0.44141 -1.42773,-0.44141 -0.0505,-0.30229 0.32558,-0.70239 0.48046,-0.75 0.0707,-0.007 0.14091,-0.0118 0.21094,-0.0117 z" />
    </g>
    <path
       id="rect150"
       style="fill:#000000;fill-opacity:1;stroke:none;stroke-width:1.67341;stroke-linecap:round;stroke-dasharray:none;stroke-opacity:1"
       d="m 171.38579,29.607678 v 14.741851 h 7.24722 V 29.607678 Z m 1.75032,1.673357 h 3.74726 v 2.218288 h -3.74726 z"
       inkscape:export-filename="bed_single_double.svg"
       inkscape:export-xdpi="1974.189"
       inkscape:export-ydpi="1974.189"
       sodipodi:nodetypes="cccccccccc" />
    <rect
       style="fill:#000000;fill-opacity:1;stroke-width:0.751377;stroke-linecap:round"
       id="rect152"
       width="3.6962354"
       height="3.3707042"
       x="166.58951"
       y="29.671293" />
    <path
       id="rect153"
       style="fill:#000000;fill-opacity:1;stroke:none;stroke-width:1.67341;stroke-linecap:round;stroke-dasharray:none;stroke-opacity:1"
       d="m 158.24237,29.607678 v 14.741851 h 7.24723 V 29.607678 Z m 1.74964,1.673357 h 3.74726 v 2.218288 h -3.74726 z"
       sodipodi:nodetypes="cccccccccc" />
    <path
       id="rect139"
       style="fill:#000000;fill-opacity:1;stroke:none;stroke-width:1.67341;stroke-linecap:round;stroke-dasharray:none;stroke-opacity:1"
       d="m 131.74937,29.757488 v 14.442918 h 12.50088 V 29.757488 Z m 1.47545,1.445894 h 4.27643 v 2.402456 h -4.27643 z m 5.27356,0 h 4.27643 v 2.402456 h -4.27643 z"
       inkscape:export-filename="bed_regular_double.svg"
       inkscape:export-xdpi="1974.189"
       inkscape:export-ydpi="1974.189"
       sodipodi:nodetypes="ccccccccccccccc" />
    <path
       id="rect142"
       style="fill:#000000;fill-opacity:1;stroke:none;stroke-width:1.67341;stroke-linecap:round;stroke-dasharray:none;stroke-opacity:1"
       d="m 113.65329,29.757488 v 14.442918 h 12.50088 V 29.757488 Z m 1.47613,1.445894 h 4.27643 v 2.402456 h -4.27643 z m 5.27288,0 h 4.27643 v 2.402456 h -4.27643 z"
       sodipodi:nodetypes="ccccccccccccccc" />
    <rect
       style="fill:#000000;fill-opacity:1;stroke-width:0.751377;stroke-linecap:round"
       id="rect146"
       width="3.8102627"
       height="3.2211211"
       x="127.04664"
       y="29.746084" />
    <path
       id="rect136"
       style="fill:#000000;fill-opacity:1;stroke:none;stroke-width:1.67341;stroke-linecap:round;stroke-dasharray:none;stroke-opacity:1"
       d="M 87.103254,29.757488 V 44.200406 H 99.60414 V 29.757488 Z m 1.475443,1.445894 h 4.276436 v 2.402456 h -4.276436 z m 5.273564,0 h 4.276433 v 2.402456 h -4.276433 z"
       inkscape:export-filename="bed_regular.svg"
       inkscape:export-xdpi="1449.1572"
       inkscape:export-ydpi="1449.1572"
       sodipodi:nodetypes="ccccccccccccccc" />
    <path
       id="rect133"
       style="fill:#000000;fill-opacity:1;stroke:none;stroke-width:1.67341;stroke-linecap:round;stroke-dasharray:none;stroke-opacity:1"
       d="M 36.874313,29.757488 V 44.200406 H 49.375195 V 29.757488 Z m 1.474756,1.445894 h 4.276433 v 2.402456 h -4.276433 z m 5.272875,0 h 4.277123 v 2.402456 h -4.277123 z m -0.502343,4.158237 0.880305,1.151062 -0.880305,1.150375 -0.880307,-1.150375 z m -4.336932,1.209475 1.352413,0.520896 -0.14912,1.44175 -1.351727,-0.521585 z m 8.683481,0.04192 0.148437,1.441747 -1.351727,0.520899 -0.148437,-1.44106 z m -4.997329,1.436251 h 0.65078 0.650091 l 0.553199,1.298123 1.213598,-0.851442 c 0.169897,0.153448 1.073409,0.690637 1.073409,0.690637 l -0.788909,2.548831 H 43.119601 40.41821 l -0.788909,-2.548831 c 0,0 0.903516,-0.537189 1.073412,-0.690637 l 1.213595,0.851442 z"
       sodipodi:nodetypes="ccccccccccccccccccccccccccccccccccccccccccc"
       inkscape:export-filename="bed_king.svg"
       inkscape:export-xdpi="1449.1572"
       inkscape:export-ydpi="1449.1572" />
    <path
       id="rect9"
       style="fill:#000000;fill-opacity:1;stroke:none;stroke-width:1.67341;stroke-linecap:round;stroke-dasharray:none;stroke-opacity:1"
       d="M 61.513925,29.757488 V 44.200406 H 74.014811 V 29.757488 Z m 1.461014,1.445894 h 4.276433 v 2.402456 h -4.276433 z m 5.273564,0 h 4.276433 v 2.402456 h -4.276433 z m -0.483104,4.984252 0.677581,0.885117 -0.677581,0.8858 -0.676894,-0.8858 z m -4.073729,1.164807 0.979947,0.377962 -0.10789,1.044546 -0.979948,-0.377961 z m 8.1454,0 0.107891,1.044547 -0.979265,0.377961 -0.10789,-1.044546 z m -4.555461,0.933219 h 0.483104 0.483104 l 0.808833,1.297437 1.410141,-0.733243 0.571752,0.405448 -0.572442,1.408764 h -2.701388 -2.701392 l -0.572437,-1.408764 0.571751,-0.405448 1.410137,0.733243 z"
       inkscape:export-filename="bed_queen.svg"
       inkscape:export-xdpi="1449.1572"
       inkscape:export-ydpi="1449.1572"
       sodipodi:nodetypes="ccccccccccccccccccccccccccccccccccccccccccc" />
    <path
       id="rect50"
       style="fill:#000000;fill-opacity:1;stroke:none;stroke-width:1.20076;stroke-linecap:butt;stroke-dasharray:none;stroke-opacity:1"
       d="m 34.4849,109.55054 c -0.678059,0 -1.223908,0.54584 -1.223904,1.2239 v 4.72933 c 0,0.67805 0.545845,1.2239 1.223904,1.2239 h 1.122889 c 0.183214,-0.37046 0.307099,-0.70136 0.391015,-0.9717 h -1.517342 v -0.94078 H 50.79014 v 0.94078 h -1.532466 c 0.08393,0.27034 0.207805,0.60124 0.39102,0.9717 h 1.138002 c 0.67806,0 1.22391,-0.54585 1.22391,-1.2239 v -4.72933 c 0,-0.67806 -0.54585,-1.2239 -1.22391,-1.2239 z m 0.02336,1.2191 h 16.187725 v 0.51197 H 34.508263 Z m 1.977765,4.98633 c -0.109351,0.38396 -0.22394,0.70611 -0.332605,0.9717 h 2.684898 c 0.05865,-0.29196 0.119763,-0.62576 0.171799,-0.9717 z m 3.027124,0 c -0.03785,0.2717 -0.09021,0.60362 -0.160804,0.9717 h 3.028498 v -0.9717 z m 3.362478,0 v 0.9717 h 3.028498 c -0.0706,-0.36808 -0.122955,-0.7 -0.160806,-0.9717 z m 3.370722,0 c 0.05204,0.34594 0.113154,0.67974 0.171803,0.9717 h 2.684898 c -0.108655,-0.26559 -0.223251,-0.58774 -0.332604,-0.9717 z"
       inkscape:export-filename="air_conditioner.svg"
       inkscape:export-xdpi="1974.189"
       inkscape:export-ydpi="1974.189" />
    <path
       id="rect412"
       style="fill:#000000;fill-opacity:1;stroke-width:0.763373;stroke-linecap:round"
       d="m 67.222495,145.98872 c -0.03511,0 -0.06317,0.0287 -0.06317,0.064 v 10.92032 c 0,0.0351 0.02806,0.0632 0.06317,0.0632 h 17.804717 c 0.0351,0 0.0632,-0.0281 0.0632,-0.0632 v -10.92032 c 0,-0.0351 -0.0281,-0.064 -0.0632,-0.064 z m 1.988076,2.11727 h 2.510347 v 1.84995 h -2.510347 z m 4.554089,0 h 8.742582 v 6.81361 H 73.76466 Z m -4.499115,2.71857 c 0.0027,-2.1e-4 0.004,0 0.0066,0 h 0.277626 c 0.01902,0 0.03551,0.008 0.04668,0.0219 0.0093,0.0106 0.01436,0.0243 0.01436,0.0392 v 0.26389 c 0,0.0318 -0.02407,0.058 -0.05492,0.0612 -0.0027,2.1e-4 -0.004,0 -0.0066,0 h -0.277625 c -0.03391,0 -0.06117,-0.0273 -0.06117,-0.0612 v -0.26389 c 0,-0.0318 0.02407,-0.058 0.05492,-0.0612 z m 0.53327,0 c 0.0027,-2.1e-4 0.004,0 0.0066,0 h 0.277626 c 0.01902,0 0.03551,0.008 0.04668,0.0219 0.0093,0.0106 0.01436,0.0243 0.01436,0.0392 v 0.26389 c 0,0.0318 -0.02407,0.058 -0.05492,0.0612 -0.0027,2.1e-4 -0.004,0 -0.0066,0 h -0.277629 c -0.0027,0 -0.004,2.1e-4 -0.0066,0 -0.03099,-0.003 -0.05492,-0.0294 -0.05492,-0.0612 v -0.26389 c 0,-0.0297 0.02088,-0.0548 0.0488,-0.0605 0.0027,-3.5e-4 0.004,-3.5e-4 0.0066,-7e-4 z m 0.522272,0 c 0.0027,-2.1e-4 0.004,0 0.0066,0 h 0.276948 c 0.03391,0 0.06184,0.0273 0.06184,0.0612 v 0.26389 c 0,0.0297 -0.02154,0.0541 -0.04947,0.0598 -0.0027,3.6e-4 -0.004,0.001 -0.0053,0.001 -0.0027,2.1e-4 -0.0053,0 -0.0066,0 H 70.32817 c -0.0027,0 -0.004,2.1e-4 -0.0066,0 -0.03098,-0.003 -0.05492,-0.0294 -0.05492,-0.0612 v -0.26389 c 0,-0.0297 0.02088,-0.0548 0.0488,-0.0605 0.0027,-3.5e-4 0.004,-3.5e-4 0.0066,-7e-4 z m 0.522286,0 c 0.0027,-2.1e-4 0.004,0 0.0066,0 h 0.276947 c 0.03391,0 0.06117,0.0273 0.06117,0.0612 v 0.26389 c 0,0.0339 -0.02726,0.0612 -0.06117,0.0612 h -0.276898 c -0.0027,0 -0.004,2.1e-4 -0.0066,0 -0.03099,-0.003 -0.05492,-0.0294 -0.05492,-0.0612 v -0.26389 c 0,-0.0297 0.02088,-0.0548 0.0488,-0.0605 0.0027,-3.5e-4 0.004,-3.5e-4 0.0066,-7e-4 z m 0.532578,0 c 0.0027,-2.1e-4 0.0053,0 0.0066,0 h 0.276934 c 0.03391,0 0.06117,0.0273 0.06117,0.0612 v 0.26389 c 0,0.0339 -0.02726,0.0612 -0.06117,0.0612 h -0.276934 c -0.0027,0 -0.0053,2.1e-4 -0.0066,0 -0.03099,-0.003 -0.05426,-0.0294 -0.05426,-0.0612 v -0.26389 c 0,-0.0297 0.02088,-0.0548 0.0488,-0.0605 0.0027,-3.5e-4 0.004,-3.5e-4 0.0053,-7e-4 z m -2.110406,0.58069 c 0.0027,-2.1e-4 0.004,0 0.0066,0 h 0.277626 c 0.01902,0 0.03551,0.008 0.04668,0.0219 0.0093,0.0106 0.01436,0.0243 0.01436,0.0391 v 0.26458 c 0,0.0339 -0.02726,0.0612 -0.06117,0.0612 h -0.277626 c -0.03391,0 -0.06117,-0.0273 -0.06117,-0.0612 v -0.26458 c 0,-0.0318 0.02407,-0.0581 0.05492,-0.0612 z m 0.53327,0 c 0.0027,-2.1e-4 0.004,0 0.0066,0 h 0.277626 c 0.01902,0 0.03551,0.008 0.04668,0.0219 0.0093,0.0106 0.01436,0.0243 0.01436,0.0391 v 0.26458 c 0,0.0339 -0.02726,0.0612 -0.06117,0.0612 h -0.277899 c -0.03391,0 -0.06117,-0.0273 -0.06117,-0.0612 v -0.26458 c 0,-0.0275 0.01769,-0.0507 0.04255,-0.0584 0.004,-0.001 0.008,-0.003 0.01197,-0.003 z m 0.522272,0 c 0.0027,-2.1e-4 0.004,0 0.0066,0 h 0.276948 c 0.004,-1e-5 0.008,6.9e-4 0.01197,0.001 0.02793,0.005 0.04947,0.0301 0.04947,0.0598 v 0.26458 c 0,0.0339 -0.02793,0.0612 -0.06184,0.0612 h -0.276948 c -0.03391,0 -0.06117,-0.0273 -0.06117,-0.0612 v -0.26458 c 0,-0.0275 0.01769,-0.0507 0.04255,-0.0584 0.004,-10e-4 0.008,-0.003 0.01197,-0.003 z m 0.522286,0 c 0.0027,-2.1e-4 0.004,0 0.0066,0 h 0.276947 c 0.02753,-1e-5 0.05067,0.0183 0.05838,0.0432 0.0013,0.005 0.0027,0.012 0.0027,0.0178 v 0.26458 c 0,0.0339 -0.02726,0.0612 -0.06117,0.0612 h -0.276947 c -0.03391,0 -0.06117,-0.0273 -0.06117,-0.0612 v -0.26458 c 0,-0.0275 0.01769,-0.0507 0.04255,-0.0584 0.004,-0.001 0.008,-0.003 0.01197,-0.003 z m 0.532578,0 c 0.0027,-2.1e-4 0.0053,0 0.0066,0 h 0.276934 c 0.02753,-1e-5 0.05067,0.0183 0.05838,0.0432 0.0013,0.005 0.0027,0.012 0.0027,0.0178 v 0.26458 c 0,0.0339 -0.02726,0.0612 -0.06117,0.0612 h -0.276934 c -0.03391,0 -0.06117,-0.0273 -0.06117,-0.0612 v -0.26458 c 0,-0.0275 0.01769,-0.0507 0.04255,-0.0584 0.004,-0.001 0.008,-0.003 0.01197,-0.003 z m -2.104222,0.58068 h 0.277639 c 0.01902,0 0.03551,0.009 0.04668,0.0226 0.0093,0.0106 0.01436,0.0243 0.01436,0.0392 v 0.26387 c 0,0.0318 -0.02407,0.058 -0.05492,0.0612 -0.0027,1.9e-4 -0.004,0 -0.0066,0 h -0.277626 c -0.03391,-1e-5 -0.06117,-0.0273 -0.06117,-0.0612 v -0.26387 c 0,-0.0339 0.02726,-0.0618 0.06117,-0.0618 z m 0.533283,0 h 0.277626 c 0.01902,0 0.03551,0.009 0.04668,0.0226 0.0093,0.0106 0.01436,0.0243 0.01436,0.0392 v 0.26387 c 0,0.0318 -0.02407,0.058 -0.05492,0.0612 -0.0027,1.9e-4 -0.004,0 -0.0066,0 h -0.277639 c -0.0027,0 -0.004,1.9e-4 -0.0066,0 -0.03099,-0.003 -0.05492,-0.0294 -0.05492,-0.0612 v -0.26387 c 0,-0.0297 0.02088,-0.0548 0.04881,-0.0605 0.004,-7.1e-4 0.008,-0.001 0.01197,-0.001 z m 0.522259,0 h 0.276947 c 0.03391,0 0.06184,0.0279 0.06184,0.0618 v 0.26388 c 0,0.0297 -0.02154,0.0541 -0.04947,0.0599 -0.0027,3.5e-4 -0.004,0.001 -0.0053,0.001 -0.0027,1.9e-4 -0.0053,0 -0.0066,0 h -0.276947 c -0.0027,0 -0.004,1.9e-4 -0.0066,0 -0.03099,-0.003 -0.05492,-0.0294 -0.05492,-0.0612 v -0.26388 c 0,-0.0297 0.02088,-0.0548 0.04881,-0.0605 0.004,-7.1e-4 0.008,-0.001 0.01197,-0.001 z m 0.522285,0 h 0.276934 c 0.03391,0 0.06117,0.0279 0.06117,0.0618 v 0.26388 c 0,0.0339 -0.02726,0.0612 -0.06117,0.0612 h -0.276934 c -0.0027,0 -0.004,1.8e-4 -0.0066,0 -0.03099,-0.003 -0.05492,-0.0294 -0.05492,-0.0612 v -0.26388 c 0,-0.0297 0.02088,-0.0548 0.0488,-0.0605 0.004,-7.1e-4 0.008,-0.001 0.01197,-0.001 z m 0.533257,0 h 0.276947 c 0.03391,0 0.06117,0.0279 0.06117,0.0618 v 0.26388 c 0,0.0339 -0.02726,0.0612 -0.06117,0.0612 h -0.276947 c -0.0027,0 -0.0053,1.8e-4 -0.0066,0 -0.03098,-0.003 -0.05426,-0.0294 -0.05426,-0.0612 v -0.26388 c 0,-0.0318 0.02341,-0.058 0.05426,-0.0612 0.0027,-2.1e-4 0.0053,-7e-4 0.0066,-7e-4 z m -2.117268,0.58137 c 0.0027,-2e-4 0.004,0 0.0066,0 h 0.277626 c 0.01902,0 0.03551,0.008 0.04668,0.0219 0.0093,0.0106 0.01436,0.0243 0.01436,0.0391 v 0.26389 c 0,0.0339 -0.02726,0.0618 -0.06117,0.0618 h -0.277626 c -0.03391,0 -0.06117,-0.0279 -0.06117,-0.0618 v -0.26389 c 0,-0.0318 0.02407,-0.058 0.05492,-0.0612 z m 0.53327,0 c 0.0027,-2e-4 0.004,0 0.0066,0 h 0.277626 c 0.01902,0 0.03551,0.008 0.04668,0.0219 0.0093,0.0106 0.01436,0.0243 0.01436,0.0391 v 0.26389 c 0,0.0339 -0.02726,0.0618 -0.06117,0.0618 h -0.277899 c -0.03391,0 -0.06117,-0.0279 -0.06117,-0.0618 v -0.26389 c 0,-0.0275 0.01769,-0.0507 0.04255,-0.0584 0.004,-10e-4 0.008,-0.003 0.01197,-0.003 z m 0.522272,0 c 0.0027,-2e-4 0.004,0 0.0066,0 h 0.276948 c 0.004,0 0.008,7e-4 0.01197,0.001 0.02793,0.005 0.04947,0.0301 0.04947,0.0598 v 0.26389 c 0,0.0339 -0.02793,0.0618 -0.06184,0.0618 h -0.276948 c -0.03391,0 -0.06117,-0.0279 -0.06117,-0.0618 v -0.26389 c 0,-0.0275 0.01769,-0.0507 0.04255,-0.0584 0.004,-0.001 0.008,-0.003 0.01197,-0.003 z m 0.522286,0 c 0.0027,-2e-4 0.004,0 0.0066,0 h 0.276947 c 0.03391,0 0.06117,0.0273 0.06117,0.0612 v 0.26389 c 0,0.0339 -0.02726,0.0618 -0.06117,0.0618 h -0.276898 c -0.03391,0 -0.06117,-0.0279 -0.06117,-0.0618 v -0.26389 c 0,-0.0275 0.01769,-0.0507 0.04255,-0.0584 0.004,-0.001 0.008,-0.003 0.01197,-0.003 z m 0.532578,0 c 0.0027,-2e-4 0.0053,0 0.0066,0 h 0.276934 c 0.03391,0 0.06117,0.0273 0.06117,0.0612 v 0.26389 c 0,0.0339 -0.02726,0.0618 -0.06117,0.0618 h -0.276934 c -0.03391,0 -0.06117,-0.0279 -0.06117,-0.0618 v -0.26389 c 0,-0.0275 0.01769,-0.0507 0.04255,-0.0584 0.004,-0.001 0.008,-0.003 0.01197,-0.003 z m -2.104222,0.58069 h 0.277639 c 0.01902,0 0.03551,0.009 0.04668,0.0226 0.0093,0.0106 0.01436,0.0237 0.01436,0.0384 v 0.26456 c 0,0.0318 -0.02407,0.058 -0.05492,0.0612 -0.0027,2.1e-4 -0.004,0 -0.0066,0 h -0.277626 c -0.03391,0 -0.06117,-0.0273 -0.06117,-0.0612 v -0.26456 c 0,-0.0339 0.02726,-0.0612 0.06117,-0.0612 z m 0.533283,0 h 0.277626 c 0.01489,0 0.02793,0.005 0.03843,0.0145 0.01356,0.0106 0.02274,0.0277 0.02274,0.0467 v 0.26457 c 0,0.0318 -0.02407,0.058 -0.05492,0.0612 -0.0027,2.1e-4 -0.004,0 -0.0066,0 h -0.277276 c -0.0027,0 -0.004,2.1e-4 -0.0066,0 -0.03098,-0.003 -0.05492,-0.0294 -0.05492,-0.0612 v -0.26457 c 0,-0.0297 0.02088,-0.0541 0.0488,-0.0598 0.004,-7.1e-4 0.008,-0.001 0.01197,-0.001 z m 0.522259,0 h 0.276947 c 0.03391,0 0.06184,0.0273 0.06184,0.0612 v 0.26457 c 0,0.0297 -0.02154,0.0541 -0.04947,0.0598 -0.0027,3.6e-4 -0.004,0.001 -0.0053,0.001 -0.0027,2.1e-4 -0.0053,0 -0.0066,0 h -0.276947 c -0.0027,0 -0.004,2.1e-4 -0.0066,0 -0.03099,-0.003 -0.05492,-0.0294 -0.05492,-0.0612 v -0.26458 c 0,-0.0297 0.02088,-0.0541 0.04881,-0.0598 0.004,-7.1e-4 0.008,-0.001 0.01197,-0.001 z m 0.522285,0 h 0.276934 c 0.03391,0 0.06117,0.0273 0.06117,0.0612 v 0.26457 c 0,0.007 -0.0011,0.012 -0.0027,0.0178 -0.0066,0.023 -0.02753,0.0408 -0.05226,0.0434 -0.0027,2.1e-4 -0.004,0 -0.0066,0 h -0.276935 c -0.0027,0 -0.004,2.1e-4 -0.0066,0 -0.03098,-0.003 -0.05492,-0.0294 -0.05492,-0.0612 v -0.26457 c 0,-0.0297 0.02088,-0.0541 0.0488,-0.0598 0.004,-7.1e-4 0.008,-0.001 0.01197,-0.001 z m 0.533257,0 h 0.276947 c 0.03391,0 0.06117,0.0273 0.06117,0.0612 v 0.26457 c 0,0.007 -0.0011,0.012 -0.0027,0.0178 -0.0066,0.023 -0.02753,0.0408 -0.05226,0.0434 -0.0027,2.1e-4 -0.004,0 -0.0066,0 h -0.276947 c -0.0027,0 -0.0053,2.1e-4 -0.0066,0 -0.03099,-0.003 -0.05426,-0.0294 -0.05426,-0.0612 v -0.26457 c 0,-0.0318 0.02341,-0.0573 0.05426,-0.0605 0.0027,-2.1e-4 0.0053,-7e-4 0.0066,-7e-4 z m -2.172242,1.10707 h 2.510347 v 0.65285 h -2.510347 z"
       inkscape:export-filename="microwave.svg"
       inkscape:export-xdpi="1974.189"
       inkscape:export-ydpi="1974.189" />
    <path
       id="rect147"
       style="fill:#000000;fill-opacity:1;stroke-width:0.763373;stroke-linecap:round"
       d="m 98.866077,145.84578 c -0.0351,0 -0.064,0.0281 -0.064,0.0632 v 10.92032 c 0,0.0351 0.0287,0.064 0.064,0.064 H 116.6701 c 0.0351,0 0.064,-0.0287 0.064,-0.064 v -10.92032 c 0,-0.0351 -0.0287,-0.0632 -0.064,-0.0632 z m 2.293883,2.36741 h 0.5367 c 0.0657,0 0.11889,0.0533 0.11889,0.11888 v 0.51129 c 0,0.0657 -0.0532,0.11822 -0.11889,0.11822 h -0.5367 c -0.0657,0 -0.11822,-0.0525 -0.11822,-0.11822 v -0.51129 c 0,-0.0657 0.0525,-0.11888 0.11822,-0.11888 z m 1.27957,0 h 0.53671 c 0.0657,0 0.11889,0.0533 0.11889,0.11888 v 0.51129 c 0,0.0657 -0.0532,0.11822 -0.11889,0.11822 h -0.53671 c -0.0657,0 -0.11823,-0.0525 -0.11823,-0.11822 v -0.51129 c 0,-0.0616 0.0459,-0.1121 0.10586,-0.11822 0.004,-3.4e-4 0.008,-7e-4 0.012,-7e-4 z m 1.27957,0 h 0.5367 c 0.0657,0 0.11889,0.0533 0.11889,0.11888 v 0.51129 c 0,0.0657 -0.0532,0.11822 -0.11889,0.11822 h -0.5367 c -0.0657,0 -0.11822,-0.0525 -0.11822,-0.11822 v -0.51129 c 0,-0.0616 0.0459,-0.1121 0.10585,-0.11822 0.004,-3.4e-4 0.008,-7e-4 0.012,-7e-4 z m 2.48768,0 h 0.77171 c 0.0259,0 0.0467,0.0209 0.0467,0.0467 v 6.21849 c 0,0.0258 -0.0209,0.0467 -0.0467,0.0467 h -0.77171 c -0.0259,0 -0.0467,-0.0209 -0.0467,-0.0467 v -6.21849 c 0,-0.0259 0.0209,-0.0467 0.0467,-0.0467 z m 7.307,0.50922 0.71058,0.71332 -0.79716,0.7889 a 2.320982,2.2733084 0 0 0 -0.0241,-0.033 2.320982,2.2733084 0 0 1 0.35323,1.20123 2.320982,2.2733084 0 0 1 -0.31407,1.13182 l 0.78204,0.77448 -0.71194,0.71743 -0.76211,-0.75523 a 2.320982,2.2733084 0 0 1 -1.31461,0.40476 2.320982,2.2733084 0 0 1 -1.16756,-0.31405 l -0.66864,0.66178 -0.71056,-0.71469 0.63291,-0.62673 a 2.320982,2.2733084 0 0 1 -0.40683,-1.27957 2.320982,2.2733084 0 0 1 0.435,-1.316 2.320982,2.2733084 0 0 0 -0.007,0.008 l -0.65422,-0.64803 0.71195,-0.71331 0.70025,0.6927 a 2.320982,2.2733084 0 0 1 1.13457,-0.29687 2.320982,2.2733084 0 0 1 1.38265,0.45424 2.320982,2.2733084 0 0 0 -0.0935,-0.0708 z m -12.35382,0.88167 h 0.5367 c 0.0657,0 0.11889,0.0533 0.11889,0.11889 v 0.51128 c 0,0.0657 -0.0532,0.11823 -0.11889,0.11823 h -0.5367 c -0.0657,0 -0.11822,-0.0525 -0.11822,-0.11823 v -0.51128 c 0,-0.0656 0.0525,-0.11889 0.11822,-0.11889 z m 1.27957,0 h 0.53671 c 0.0657,0 0.11889,0.0533 0.11889,0.11889 v 0.51128 c 0,0.0657 -0.0532,0.11823 -0.11889,0.11823 h -0.53671 c -0.0657,0 -0.11823,-0.0525 -0.11823,-0.11823 v -0.51128 c 0,-0.0616 0.0459,-0.11211 0.10586,-0.11822 0.004,-3.5e-4 0.008,-7.1e-4 0.012,-7.1e-4 z m 1.27957,0 h 0.5367 c 0.0657,0 0.11889,0.0533 0.11889,0.11889 v 0.51128 c 0,0.0657 -0.0532,0.11823 -0.11889,0.11823 h -0.5367 c -0.0657,0 -0.11822,-0.0525 -0.11822,-0.11823 v -0.51128 c 0,-0.0616 0.0459,-0.11211 0.10585,-0.11822 0.004,-3.5e-4 0.008,-7.1e-4 0.012,-7.1e-4 z m 7.71659,0.68996 a 1.0987575,1.0987575 0 0 0 -1.09884,1.09883 1.0987575,1.0987575 0 0 0 1.09884,1.09884 1.0987575,1.0987575 0 0 0 1.09883,-1.09884 1.0987575,1.0987575 0 0 0 -1.09883,-1.09883 z m -10.27573,0.70095 h 0.5367 c 0.0657,0 0.11889,0.0532 0.11889,0.11888 v 0.51128 c 0,0.0657 -0.0532,0.11822 -0.11889,0.11822 h -0.5367 c -0.0657,0 -0.11822,-0.0525 -0.11822,-0.11822 v -0.51128 c 0,-0.0657 0.0525,-0.11888 0.11822,-0.11888 z m 1.27957,0 h 0.53671 c 0.0657,0 0.11889,0.0532 0.11889,0.11888 v 0.51128 c 0,0.0657 -0.0532,0.11822 -0.11889,0.11822 h -0.53671 c -0.0657,0 -0.11823,-0.0525 -0.11823,-0.11822 v -0.51128 c 0,-0.0616 0.0459,-0.1121 0.10586,-0.11822 0.004,-3.4e-4 0.008,-7e-4 0.012,-7e-4 z m 1.27957,0 h 0.5367 c 0.0657,0 0.11889,0.0532 0.11889,0.11888 v 0.51128 c 0,0.0657 -0.0532,0.11822 -0.11889,0.11822 h -0.5367 c -0.0657,0 -0.11822,-0.0525 -0.11822,-0.11822 v -0.51128 c 0,-0.0616 0.0459,-0.1121 0.10585,-0.11822 0.004,-3.4e-4 0.008,-7e-4 0.012,-7e-4 z m -2.55914,1.39089 h 0.5367 c 0.0657,0 0.11889,0.0532 0.11889,0.11889 v 0.51127 c 0,0.0657 -0.0532,0.11822 -0.11889,0.11822 h -0.5367 c -0.0657,0 -0.11822,-0.0525 -0.11822,-0.11822 v -0.51127 c 0,-0.0657 0.0525,-0.11889 0.11822,-0.11889 z m 1.27957,0 h 0.53671 c 0.0657,0 0.11889,0.0532 0.11889,0.11889 v 0.51127 c 0,0.0657 -0.0532,0.11822 -0.11889,0.11822 h -0.53671 c -0.0657,0 -0.11823,-0.0525 -0.11823,-0.11822 v -0.51127 c 0,-0.0616 0.0459,-0.1121 0.10586,-0.11822 0.004,-3.5e-4 0.008,-7.1e-4 0.012,-7.1e-4 z m 1.27957,0 h 0.5367 c 0.0657,0 0.11889,0.0532 0.11889,0.11889 v 0.51127 c 0,0.0657 -0.0532,0.11822 -0.11889,0.11822 h -0.5367 c -0.0657,0 -0.11822,-0.0525 -0.11822,-0.11822 v -0.51127 c 0,-0.0616 0.0459,-0.1121 0.10585,-0.11822 0.004,-3.5e-4 0.008,-7.1e-4 0.012,-7.1e-4 z m -2.55914,1.3909 h 0.5367 c 0.0657,0 0.11889,0.0525 0.11889,0.11822 v 0.51127 c 0,0.0657 -0.0532,0.11889 -0.11889,0.11889 h -0.5367 c -0.0657,0 -0.11822,-0.0532 -0.11822,-0.11889 V 153.895 c 0,-0.0656 0.0525,-0.11822 0.11822,-0.11822 z m 1.27957,0 h 0.53671 c 0.0657,0 0.11889,0.0525 0.11889,0.11822 v 0.51127 c 0,0.0657 -0.0532,0.11889 -0.11889,0.11889 h -0.53671 c -0.0657,0 -0.11823,-0.0532 -0.11823,-0.11889 V 153.895 c 0,-0.0616 0.0459,-0.11144 0.10586,-0.11756 0.004,-3.4e-4 0.008,-7e-4 0.012,-7e-4 z m 1.27957,0 h 0.5367 c 0.0657,0 0.11889,0.0525 0.11889,0.11822 v 0.51127 c 0,0.0657 -0.0532,0.11889 -0.11889,0.11889 h -0.5367 c -0.0657,0 -0.11822,-0.0532 -0.11822,-0.11889 V 153.895 c 0,-0.0616 0.0459,-0.11144 0.10585,-0.11756 0.004,-3.4e-4 0.008,-7e-4 0.012,-7e-4 z"
       inkscape:export-filename="safe.svg"
       inkscape:export-xdpi="1974.189"
       inkscape:export-ydpi="1974.189" />
    <g
       id="g32"
       transform="matrix(0.44506632,0,0,0.44506632,-54.998572,-194.89668)"
       style="stroke-width:0.751984">
      <rect
         style="fill:#000000;fill-opacity:1;stroke:none;stroke-width:3.75992;stroke-linecap:round;stroke-dasharray:none;stroke-opacity:1"
         id="rect30"
         width="36.795883"
         height="21.204407"
         x="270.24084"
         y="596.90594"
         rx="0"
         ry="0" />
      <rect
         style="opacity:1;fill:#000000;fill-opacity:1;stroke:none;stroke-width:1.1746;stroke-linecap:round;stroke-dasharray:none;stroke-opacity:1"
         id="rect32"
         width="27.013306"
         height="1.8825824"
         x="275.34277"
         y="619.93365" />
    </g>
    <g
       id="g40"
       transform="matrix(0.44506632,0,0,0.44506632,-55.394643,-194.90908)"
       style="stroke-width:0.751984;fill:#000000;fill-opacity:1">
      <rect
         style="fill:#000000;fill-opacity:1;stroke-width:1.68823;stroke-linecap:round"
         id="rect35"
         width="22.003746"
         height="12.142686"
         x="340.61929"
         y="607.50812"
         rx="0"
         ry="0" />
      <rect
         style="fill:#000000;fill-opacity:1;stroke-width:1.68823;stroke-linecap:round"
         id="rect36"
         width="4.405591"
         height="12.118312"
         x="340.61929"
         y="593.86536" />
      <rect
         style="fill:#000000;fill-opacity:1;stroke-width:1.68823;stroke-linecap:round"
         id="rect37"
         width="2.4330127"
         height="1.5220162"
         x="340.61929"
         y="621.17523" />
      <rect
         style="fill:#000000;fill-opacity:1;stroke-width:1.68823;stroke-linecap:round"
         id="rect38"
         width="2.4330127"
         height="1.5220162"
         x="360.19003"
         y="621.17523" />
      <rect
         style="fill:#000000;fill-opacity:1;stroke-width:1.68823;stroke-linecap:round"
         id="rect39"
         width="21.473415"
         height="8.5582485"
         x="364.15518"
         y="611.09253"
         rx="0"
         ry="0" />
      <path
         style="fill:#000000;fill-opacity:1;stroke-width:1.68823;stroke-linecap:round"
         d="m 345.8228,601.76973 c 1.44439,1.78713 2.66948,4.55109 4.09411,4.18014 0.52671,-0.0895 2.38463,0.0123 2.95841,0.0123 0.83337,0 -2.28313,-3.29629 -3.01536,-3.95063 -1.46447,-1.30866 -5.48157,-2.02897 -4.03718,-0.24184 z"
         id="path39"
         sodipodi:nodetypes="zccszz" />
      <rect
         style="fill:#000000;fill-opacity:1;stroke-width:1.68823;stroke-linecap:round"
         id="rect40"
         width="2.4330127"
         height="1.5220162"
         x="383.19559"
         y="621.17523" />
    </g>
    <g
       id="g730"
       inkscape:export-filename="sauna_room.svg"
       inkscape:export-xdpi="1974.189"
       inkscape:export-ydpi="1974.189"
       transform="matrix(0.35184724,0,0,0.35184724,210.99334,-86.525963)"
       style="stroke-width:0.751984">
      <path
         id="path43"
         style="fill:#000000;stroke-width:2.13552;stroke-linecap:round"
         d="m -214.88086,439.37109 c -1.36856,0.56139 -2.67312,1.24171 -3.90234,2.03125 v 41.03907 c 1.22922,0.78953 2.53378,1.46987 3.90234,2.03125 z m 18.71289,0.0606 v 44.98047 c 1.31687,-0.55012 2.57502,-1.20848 3.76172,-1.9707 v -41.03907 c -1.1867,-0.76223 -2.44485,-1.42057 -3.76172,-1.9707 z m -24.21289,3.08594 c -1.47314,1.12241 -2.81522,2.40763 -3.99609,3.83203 v 31.14453 c 1.18087,1.42439 2.52295,2.70961 3.99609,3.83203 z m 29.57227,0 v 38.80859 c 1.47311,-1.12242 2.81522,-2.40764 3.99609,-3.83203 v -31.14453 c -1.18087,-1.4244 -2.52298,-2.70962 -3.99609,-3.83203 z m -35.16797,6.00195 c -2.52493,3.84165 -3.9961,8.44223 -3.9961,13.40235 0,4.96008 1.47117,9.56266 3.9961,13.40429 z m 40.76367,0 v 26.80664 c 2.52493,-3.84163 3.99609,-8.44421 3.99609,-13.40429 0,-4.96012 -1.47116,-9.5607 -3.99609,-13.40235 z" />
      <path
         id="rect45"
         style="fill:#000000;fill-opacity:1;stroke-width:2.13552;stroke-linecap:round"
         d="m -205.63086,433.89844 c -3.89443,0 -7.03125,3.30953 -7.03125,7.41992 v 41.33008 c 0,4.11039 3.13682,7.41992 7.03125,7.41992 3.89443,0 7.0293,-3.30953 7.0293,-7.41992 v -41.33008 c 0,-4.11039 -3.13487,-7.41992 -7.0293,-7.41992 z m 0,2.45898 c 2.757,0 4.97656,2.33513 4.97656,5.23633 v 40.83984 c 0,2.90121 -2.21956,5.23633 -4.97656,5.23633 -2.75699,0 -4.97656,-2.33512 -4.97656,-5.23633 v -40.83984 c 0,-2.9012 2.21957,-5.23633 4.97656,-5.23633 z" />
      <path
         id="rect47"
         style="fill:#000101;fill-opacity:1;stroke-width:2.13552;stroke-linecap:round"
         d="m -206.50977,440.24219 v 39.89258 a 3.178678,3.178678 0 0 0 -2.11132,2.98632 3.178678,3.178678 0 0 0 3.17773,3.17774 3.178678,3.178678 0 0 0 3.17969,-3.17774 3.178678,3.178678 0 0 0 -2.11328,-2.99414 v -39.88476 z m -4.09765,2.04492 v 2.40234 h 2.01562 v -2.40234 z m 0,5.65625 v 2.40039 h 2.01562 v -2.40039 z m 0,5.6543 V 456 h 2.01562 v -2.40234 z m 0,5.65625 v 2.40039 h 2.01562 v -2.40039 z m 0,5.65625 v 2.40039 h 2.01562 v -2.40039 z m 0,5.65429 v 2.40235 h 2.01562 v -2.40235 z m 0,5.65625 v 2.40039 h 2.01562 v -2.40039 z" />
    </g>
    <path
       id="rect465"
       style="fill:#000000;fill-opacity:1;stroke-width:0.763373;stroke-linecap:round"
       d="m 134.46871,142.40394 c -0.0351,0 -0.0632,0.0281 -0.0632,0.0632 v 15.70188 h 11.04745 v -15.70188 c 0,-0.0351 -0.0287,-0.0632 -0.064,-0.0632 z m 1.16137,4.16581 h 0.89062 v 8.56734 h -0.89062 z m -1.22459,12.6287 v 1.07342 c 0,0.0351 0.0281,0.0632 0.0632,0.0632 h 10.92032 c 0.0351,0 0.064,-0.0281 0.064,-0.0632 v -1.07342 z"
       inkscape:export-filename="executive_fridge.svg"
       inkscape:export-xdpi="1974.189"
       inkscape:export-ydpi="1974.189" />
    <g
       id="g738"
       transform="matrix(0.35184724,0,0,0.35184724,210.99334,-86.525963)"
       style="stroke-width:0.751984"
       inkscape:export-filename="2_persons.svg"
       inkscape:export-xdpi="1974.189"
       inkscape:export-ydpi="1974.189">
      <ellipse
         style="fill:#000000;fill-opacity:1;stroke:none;stroke-width:1.26366;stroke-linecap:butt;stroke-opacity:1"
         id="path220"
         cx="-349.78888"
         cy="778.55121"
         rx="5.6843538"
         ry="5.966578" />
      <path
         style="fill:#000000;fill-opacity:1;stroke:none;stroke-width:1.26366;stroke-linecap:butt;stroke-opacity:1"
         d="m -359.51122,817.09686 h 19.66129 v -27.45942 c -4.75618,-4.75619 -15.14681,-4.7814 -19.8779,0 0,7.35295 0.21661,27.45942 0.21661,27.45942 z"
         id="path221"
         sodipodi:nodetypes="ccccc" />
      <ellipse
         style="fill:#000000;fill-opacity:1;stroke:none;stroke-width:1.26366;stroke-linecap:butt;stroke-opacity:1"
         id="ellipse225"
         cx="-325.03833"
         cy="778.55121"
         rx="5.6843538"
         ry="5.966578" />
      <path
         style="fill:#000000;fill-opacity:1;stroke:none;stroke-width:1.26366;stroke-linecap:butt;stroke-opacity:1"
         d="m -334.76065,817.09686 h 19.66129 v -27.45942 c -4.75618,-4.75619 -15.14681,-4.7814 -19.8779,0 0,7.35295 0.21661,27.45942 0.21661,27.45942 z"
         id="path225"
         sodipodi:nodetypes="ccccc" />
      <ellipse
         style="fill:#000000;fill-opacity:1;stroke:none;stroke-width:1.26366;stroke-linecap:butt;stroke-opacity:1"
         id="ellipse467"
         cx="-349.78888"
         cy="778.55121"
         rx="5.6843538"
         ry="5.966578" />
      <path
         style="fill:#000000;fill-opacity:1;stroke:none;stroke-width:1.26366;stroke-linecap:butt;stroke-opacity:1"
         d="m -359.51122,817.09686 h 19.66129 v -27.45942 c -4.75618,-4.75619 -15.14681,-4.7814 -19.8779,0 0,7.35295 0.21661,27.45942 0.21661,27.45942 z"
         id="path467"
         sodipodi:nodetypes="ccccc" />
      <ellipse
         style="fill:#000000;fill-opacity:1;stroke:none;stroke-width:1.26366;stroke-linecap:butt;stroke-opacity:1"
         id="ellipse468"
         cx="-325.03833"
         cy="778.55121"
         rx="5.6843538"
         ry="5.966578" />
      <path
         style="fill:#000000;fill-opacity:1;stroke:none;stroke-width:1.26366;stroke-linecap:butt;stroke-opacity:1"
         d="m -334.76065,817.09686 h 19.66129 v -27.45942 c -4.75618,-4.75619 -15.14681,-4.7814 -19.8779,0 0,7.35295 0.21661,27.45942 0.21661,27.45942 z"
         id="path468"
         sodipodi:nodetypes="ccccc" />
    </g>
    <g
       id="g735"
       transform="matrix(0.35184724,0,0,0.35184724,210.99334,-86.525963)"
       style="stroke-width:0.751984"
       inkscape:export-filename="2_adult_1_children.svg"
       inkscape:export-xdpi="1974.189"
       inkscape:export-ydpi="1974.189">
      <ellipse
         style="fill:#000000;fill-opacity:1;stroke:none;stroke-width:1.26366;stroke-linecap:butt;stroke-opacity:1"
         id="ellipse226"
         cx="-436.74448"
         cy="873.31366"
         rx="5.6843538"
         ry="5.966578" />
      <path
         style="fill:#000000;fill-opacity:1;stroke:none;stroke-width:1.26366;stroke-linecap:butt;stroke-opacity:1"
         d="m -446.4668,911.85927 h 19.66129 v -27.45942 c -4.75618,-4.75619 -15.14681,-4.7814 -19.8779,0 0,7.35295 0.21661,27.45942 0.21661,27.45942 z"
         id="path226"
         sodipodi:nodetypes="ccccc" />
      <ellipse
         style="fill:#000000;fill-opacity:1;stroke:none;stroke-width:0.968081;stroke-linecap:butt;stroke-opacity:1"
         id="ellipse227"
         cx="-391.45996"
         cy="888.31085"
         rx="4.3547745"
         ry="4.5709863" />
      <path
         style="fill:#000000;fill-opacity:1;stroke:none;stroke-width:0.727542;stroke-linecap:butt;stroke-opacity:1"
         d="m -397.05756,911.85927 h 11.31987 v -15.80959 c -2.73834,-2.73835 -8.72068,-2.75287 -11.44458,0 0,4.23341 0.12471,15.80959 0.12471,15.80959 z"
         id="path227"
         sodipodi:nodetypes="ccccc" />
      <ellipse
         style="fill:#000000;fill-opacity:1;stroke:none;stroke-width:1.26366;stroke-linecap:butt;stroke-opacity:1"
         id="ellipse228"
         cx="-411.99393"
         cy="873.31366"
         rx="5.6843538"
         ry="5.966578" />
      <path
         style="fill:#000000;fill-opacity:1;stroke:none;stroke-width:1.26366;stroke-linecap:butt;stroke-opacity:1"
         d="m -421.71623,911.85927 h 19.66129 v -27.45942 c -4.75618,-4.75619 -15.14681,-4.7814 -19.8779,0 0,7.35295 0.21661,27.45942 0.21661,27.45942 z"
         id="path228"
         sodipodi:nodetypes="ccccc" />
      <ellipse
         style="fill:#000000;fill-opacity:1;stroke:none;stroke-width:1.26366;stroke-linecap:butt;stroke-opacity:1"
         id="ellipse469"
         cx="-436.74448"
         cy="873.31366"
         rx="5.6843538"
         ry="5.966578" />
      <path
         style="fill:#000000;fill-opacity:1;stroke:none;stroke-width:1.26366;stroke-linecap:butt;stroke-opacity:1"
         d="m -446.4668,911.85927 h 19.66129 v -27.45942 c -4.75618,-4.75619 -15.14681,-4.7814 -19.8779,0 0,7.35295 0.21661,27.45942 0.21661,27.45942 z"
         id="path469"
         sodipodi:nodetypes="ccccc" />
      <ellipse
         style="fill:#000000;fill-opacity:1;stroke:none;stroke-width:0.968081;stroke-linecap:butt;stroke-opacity:1"
         id="ellipse470"
         cx="-391.45996"
         cy="888.31085"
         rx="4.3547745"
         ry="4.5709863" />
      <path
         style="fill:#000000;fill-opacity:1;stroke:none;stroke-width:0.727542;stroke-linecap:butt;stroke-opacity:1"
         d="m -397.05756,911.85927 h 11.31987 v -15.80959 c -2.73834,-2.73835 -8.72068,-2.75287 -11.44458,0 0,4.23341 0.12471,15.80959 0.12471,15.80959 z"
         id="path470"
         sodipodi:nodetypes="ccccc" />
      <ellipse
         style="fill:#000000;fill-opacity:1;stroke:none;stroke-width:1.26366;stroke-linecap:butt;stroke-opacity:1"
         id="ellipse471"
         cx="-411.99393"
         cy="873.31366"
         rx="5.6843538"
         ry="5.966578" />
      <path
         style="fill:#000000;fill-opacity:1;stroke:none;stroke-width:1.26366;stroke-linecap:butt;stroke-opacity:1"
         d="m -421.71623,911.85927 h 19.66129 v -27.45942 c -4.75618,-4.75619 -15.14681,-4.7814 -19.8779,0 0,7.35295 0.21661,27.45942 0.21661,27.45942 z"
         id="path471"
         sodipodi:nodetypes="ccccc" />
    </g>
    <g
       id="g739"
       transform="matrix(0.35184724,0,0,0.35184724,210.99334,-86.525963)"
       style="stroke-width:0.751984"
       inkscape:export-filename="1_adult_1_children.svg"
       inkscape:export-xdpi="1974.189"
       inkscape:export-ydpi="1974.189">
      <ellipse
         style="fill:#000000;fill-opacity:1;stroke:none;stroke-width:1.26366;stroke-linecap:butt;stroke-opacity:1"
         id="ellipse229"
         cx="-259.01495"
         cy="778.55127"
         rx="5.6843538"
         ry="5.966578" />
      <path
         style="fill:#000000;fill-opacity:1;stroke:none;stroke-width:1.26366;stroke-linecap:butt;stroke-opacity:1"
         d="m -268.73729,817.09686 h 19.66129 v -27.45942 c -4.75618,-4.75619 -15.14681,-4.7814 -19.8779,0 0,7.35295 0.21661,27.45942 0.21661,27.45942 z"
         id="path229"
         sodipodi:nodetypes="ccccc" />
      <ellipse
         style="fill:#000000;fill-opacity:1;stroke:none;stroke-width:0.968081;stroke-linecap:butt;stroke-opacity:1"
         id="ellipse230"
         cx="-238.12561"
         cy="793.54846"
         rx="4.3547745"
         ry="4.5709863" />
      <path
         style="fill:#000000;fill-opacity:1;stroke:none;stroke-width:0.727542;stroke-linecap:butt;stroke-opacity:1"
         d="m -243.72323,817.09686 h 11.31987 v -15.80959 c -2.73834,-2.73835 -8.72068,-2.75287 -11.44458,0 0,4.23341 0.12471,15.80959 0.12471,15.80959 z"
         id="path230"
         sodipodi:nodetypes="ccccc" />
      <ellipse
         style="fill:#000000;fill-opacity:1;stroke:none;stroke-width:1.26366;stroke-linecap:butt;stroke-opacity:1"
         id="ellipse472"
         cx="-259.01495"
         cy="778.55127"
         rx="5.6843538"
         ry="5.966578" />
      <path
         style="fill:#000000;fill-opacity:1;stroke:none;stroke-width:1.26366;stroke-linecap:butt;stroke-opacity:1"
         d="m -268.73729,817.09686 h 19.66129 v -27.45942 c -4.75618,-4.75619 -15.14681,-4.7814 -19.8779,0 0,7.35295 0.21661,27.45942 0.21661,27.45942 z"
         id="path472"
         sodipodi:nodetypes="ccccc" />
      <ellipse
         style="fill:#000000;fill-opacity:1;stroke:none;stroke-width:0.968081;stroke-linecap:butt;stroke-opacity:1"
         id="ellipse473"
         cx="-238.12561"
         cy="793.54846"
         rx="4.3547745"
         ry="4.5709863" />
      <path
         style="fill:#000000;fill-opacity:1;stroke:none;stroke-width:0.727542;stroke-linecap:butt;stroke-opacity:1"
         d="m -243.72323,817.09686 h 11.31987 v -15.80959 c -2.73834,-2.73835 -8.72068,-2.75287 -11.44458,0 0,4.23341 0.12471,15.80959 0.12471,15.80959 z"
         id="path473"
         sodipodi:nodetypes="ccccc" />
    </g>
    <g
       id="g736"
       transform="matrix(0.35184724,0,0,0.35184724,210.99334,-86.525963)"
       style="stroke-width:0.751984"
       inkscape:export-filename="3_adult.svg"
       inkscape:export-xdpi="1974.189"
       inkscape:export-ydpi="1974.189">
      <ellipse
         style="fill:#000000;fill-opacity:1;stroke:none;stroke-width:1.26366;stroke-linecap:butt;stroke-opacity:1"
         id="ellipse231"
         cx="-341.92087"
         cy="873.31366"
         rx="5.6843538"
         ry="5.966578" />
      <path
         style="fill:#000000;fill-opacity:1;stroke:none;stroke-width:1.26366;stroke-linecap:butt;stroke-opacity:1"
         d="m -351.64319,911.85927 h 19.66129 v -27.45942 c -4.75618,-4.75619 -15.14681,-4.7814 -19.8779,0 0,7.35295 0.21661,27.45942 0.21661,27.45942 z"
         id="path231"
         sodipodi:nodetypes="ccccc" />
      <ellipse
         style="fill:#000000;fill-opacity:1;stroke:none;stroke-width:1.26366;stroke-linecap:butt;stroke-opacity:1"
         id="ellipse232"
         cx="-317.17032"
         cy="873.31366"
         rx="5.6843538"
         ry="5.966578" />
      <path
         style="fill:#000000;fill-opacity:1;stroke:none;stroke-width:1.26366;stroke-linecap:butt;stroke-opacity:1"
         d="m -326.89262,911.85927 h 19.66129 v -27.45942 c -4.75618,-4.75619 -15.14681,-4.7814 -19.8779,0 0,7.35295 0.21661,27.45942 0.21661,27.45942 z"
         id="path243"
         sodipodi:nodetypes="ccccc" />
      <ellipse
         style="fill:#000000;fill-opacity:1;stroke:none;stroke-width:1.26366;stroke-linecap:butt;stroke-opacity:1"
         id="ellipse243"
         cx="-292.41977"
         cy="873.31366"
         rx="5.6843538"
         ry="5.966578" />
      <path
         style="fill:#000000;fill-opacity:1;stroke:none;stroke-width:1.26366;stroke-linecap:butt;stroke-opacity:1"
         d="m -302.14205,911.85927 h 19.66129 v -27.45942 c -4.75618,-4.75619 -15.14681,-4.7814 -19.8779,0 0,7.35295 0.21661,27.45942 0.21661,27.45942 z"
         id="path244"
         sodipodi:nodetypes="ccccc" />
      <ellipse
         style="fill:#000000;fill-opacity:1;stroke:none;stroke-width:1.26366;stroke-linecap:butt;stroke-opacity:1"
         id="ellipse474"
         cx="-341.92087"
         cy="873.31366"
         rx="5.6843538"
         ry="5.966578" />
      <path
         style="fill:#000000;fill-opacity:1;stroke:none;stroke-width:1.26366;stroke-linecap:butt;stroke-opacity:1"
         d="m -351.64319,911.85927 h 19.66129 v -27.45942 c -4.75618,-4.75619 -15.14681,-4.7814 -19.8779,0 0,7.35295 0.21661,27.45942 0.21661,27.45942 z"
         id="path474"
         sodipodi:nodetypes="ccccc" />
      <ellipse
         style="fill:#000000;fill-opacity:1;stroke:none;stroke-width:1.26366;stroke-linecap:butt;stroke-opacity:1"
         id="ellipse475"
         cx="-317.17032"
         cy="873.31366"
         rx="5.6843538"
         ry="5.966578" />
      <path
         style="fill:#000000;fill-opacity:1;stroke:none;stroke-width:1.26366;stroke-linecap:butt;stroke-opacity:1"
         d="m -326.89262,911.85927 h 19.66129 v -27.45942 c -4.75618,-4.75619 -15.14681,-4.7814 -19.8779,0 0,7.35295 0.21661,27.45942 0.21661,27.45942 z"
         id="path475"
         sodipodi:nodetypes="ccccc" />
      <ellipse
         style="fill:#000000;fill-opacity:1;stroke:none;stroke-width:1.26366;stroke-linecap:butt;stroke-opacity:1"
         id="ellipse476"
         cx="-292.41977"
         cy="873.31366"
         rx="5.6843538"
         ry="5.966578" />
      <path
         style="fill:#000000;fill-opacity:1;stroke:none;stroke-width:1.26366;stroke-linecap:butt;stroke-opacity:1"
         d="m -302.14205,911.85927 h 19.66129 v -27.45942 c -4.75618,-4.75619 -15.14681,-4.7814 -19.8779,0 0,7.35295 0.21661,27.45942 0.21661,27.45942 z"
         id="path476"
         sodipodi:nodetypes="ccccc" />
    </g>
    <g
       id="g737"
       transform="matrix(0.35184724,0,0,0.35184724,210.99334,-86.525963)"
       style="stroke-width:0.751984"
       inkscape:export-filename="3_adult_1_children.svg"
       inkscape:export-xdpi="1974.189"
       inkscape:export-ydpi="1974.189">
      <ellipse
         style="fill:#000000;fill-opacity:1;stroke:none;stroke-width:1.26366;stroke-linecap:butt;stroke-opacity:1"
         id="ellipse244"
         cx="-233.69016"
         cy="873.31366"
         rx="5.6843538"
         ry="5.966578" />
      <path
         style="fill:#000000;fill-opacity:1;stroke:none;stroke-width:1.26366;stroke-linecap:butt;stroke-opacity:1"
         d="m -243.41247,911.85927 h 19.66129 v -27.45942 c -4.75618,-4.75619 -15.14681,-4.7814 -19.8779,0 0,7.35295 0.21661,27.45942 0.21661,27.45942 z"
         id="path245"
         sodipodi:nodetypes="ccccc" />
      <ellipse
         style="fill:#000000;fill-opacity:1;stroke:none;stroke-width:1.26366;stroke-linecap:butt;stroke-opacity:1"
         id="ellipse245"
         cx="-208.93958"
         cy="873.31366"
         rx="5.6843538"
         ry="5.966578" />
      <path
         style="fill:#000000;fill-opacity:1;stroke:none;stroke-width:1.26366;stroke-linecap:butt;stroke-opacity:1"
         d="m -218.6619,911.85927 h 19.66129 v -27.45942 c -4.75618,-4.75619 -15.14681,-4.7814 -19.8779,0 0,7.35295 0.21661,27.45942 0.21661,27.45942 z"
         id="path246"
         sodipodi:nodetypes="ccccc" />
      <ellipse
         style="fill:#000000;fill-opacity:1;stroke:none;stroke-width:1.26366;stroke-linecap:butt;stroke-opacity:1"
         id="ellipse246"
         cx="-184.18903"
         cy="873.31366"
         rx="5.6843538"
         ry="5.966578" />
      <path
         style="fill:#000000;fill-opacity:1;stroke:none;stroke-width:1.26366;stroke-linecap:butt;stroke-opacity:1"
         d="m -193.91133,911.85927 h 19.66129 v -27.45942 c -4.75618,-4.75619 -15.14681,-4.7814 -19.8779,0 0,7.35295 0.21661,27.45942 0.21661,27.45942 z"
         id="path276"
         sodipodi:nodetypes="ccccc" />
      <ellipse
         style="fill:#000000;fill-opacity:1;stroke:none;stroke-width:0.968081;stroke-linecap:butt;stroke-opacity:1"
         id="ellipse276"
         cx="-163.65503"
         cy="888.31085"
         rx="4.3547745"
         ry="4.5709863" />
      <path
         style="fill:#000000;fill-opacity:1;stroke:none;stroke-width:0.727542;stroke-linecap:butt;stroke-opacity:1"
         d="m -169.25266,911.85927 h 11.31987 v -15.80959 c -2.73834,-2.73835 -8.72068,-2.75287 -11.44458,0 0,4.23341 0.12471,15.80959 0.12471,15.80959 z"
         id="path277"
         sodipodi:nodetypes="ccccc" />
      <ellipse
         style="fill:#000000;fill-opacity:1;stroke:none;stroke-width:1.26366;stroke-linecap:butt;stroke-opacity:1"
         id="ellipse477"
         cx="-233.69016"
         cy="873.31366"
         rx="5.6843538"
         ry="5.966578" />
      <path
         style="fill:#000000;fill-opacity:1;stroke:none;stroke-width:1.26366;stroke-linecap:butt;stroke-opacity:1"
         d="m -243.41247,911.85927 h 19.66129 v -27.45942 c -4.75618,-4.75619 -15.14681,-4.7814 -19.8779,0 0,7.35295 0.21661,27.45942 0.21661,27.45942 z"
         id="path477"
         sodipodi:nodetypes="ccccc" />
      <ellipse
         style="fill:#000000;fill-opacity:1;stroke:none;stroke-width:1.26366;stroke-linecap:butt;stroke-opacity:1"
         id="ellipse478"
         cx="-208.93958"
         cy="873.31366"
         rx="5.6843538"
         ry="5.966578" />
      <path
         style="fill:#000000;fill-opacity:1;stroke:none;stroke-width:1.26366;stroke-linecap:butt;stroke-opacity:1"
         d="m -218.6619,911.85927 h 19.66129 v -27.45942 c -4.75618,-4.75619 -15.14681,-4.7814 -19.8779,0 0,7.35295 0.21661,27.45942 0.21661,27.45942 z"
         id="path478"
         sodipodi:nodetypes="ccccc" />
      <ellipse
         style="fill:#000000;fill-opacity:1;stroke:none;stroke-width:1.26366;stroke-linecap:butt;stroke-opacity:1"
         id="ellipse479"
         cx="-184.18903"
         cy="873.31366"
         rx="5.6843538"
         ry="5.966578" />
      <path
         style="fill:#000000;fill-opacity:1;stroke:none;stroke-width:1.26366;stroke-linecap:butt;stroke-opacity:1"
         d="m -193.91133,911.85927 h 19.66129 v -27.45942 c -4.75618,-4.75619 -15.14681,-4.7814 -19.8779,0 0,7.35295 0.21661,27.45942 0.21661,27.45942 z"
         id="path479"
         sodipodi:nodetypes="ccccc" />
      <ellipse
         style="fill:#000000;fill-opacity:1;stroke:none;stroke-width:0.968081;stroke-linecap:butt;stroke-opacity:1"
         id="ellipse480"
         cx="-163.65503"
         cy="888.31085"
         rx="4.3547745"
         ry="4.5709863" />
      <path
         style="fill:#000000;fill-opacity:1;stroke:none;stroke-width:0.727542;stroke-linecap:butt;stroke-opacity:1"
         d="m -169.25266,911.85927 h 11.31987 v -15.80959 c -2.73834,-2.73835 -8.72068,-2.75287 -11.44458,0 0,4.23341 0.12471,15.80959 0.12471,15.80959 z"
         id="path480"
         sodipodi:nodetypes="ccccc" />
    </g>
    <g
       id="g732"
       transform="matrix(0.35184724,0,0,0.35184724,210.99334,-86.525963)"
       style="stroke-width:0.751984"
       inkscape:export-filename="6_adult.svg"
       inkscape:export-xdpi="1974.189"
       inkscape:export-ydpi="1974.189">
      <ellipse
         style="fill:#000000;fill-opacity:1;stroke:none;stroke-width:1.26366;stroke-linecap:butt;stroke-opacity:1"
         id="ellipse277"
         cx="-472.75632"
         cy="968.49579"
         rx="5.6843538"
         ry="5.966578" />
      <path
         style="fill:#000000;fill-opacity:1;stroke:none;stroke-width:1.26366;stroke-linecap:butt;stroke-opacity:1"
         d="m -482.47864,1007.0414 h 19.66129 V 979.582 c -4.75618,-4.75619 -15.14681,-4.7814 -19.8779,0 0,7.35295 0.21661,27.4594 0.21661,27.4594 z"
         id="path278"
         sodipodi:nodetypes="ccccc" />
      <ellipse
         style="fill:#000000;fill-opacity:1;stroke:none;stroke-width:1.26366;stroke-linecap:butt;stroke-opacity:1"
         id="ellipse278"
         cx="-448.0058"
         cy="968.49579"
         rx="5.6843538"
         ry="5.966578" />
      <path
         style="fill:#000000;fill-opacity:1;stroke:none;stroke-width:1.26366;stroke-linecap:butt;stroke-opacity:1"
         d="m -457.72807,1007.0414 h 19.66129 V 979.582 c -4.75618,-4.75619 -15.14681,-4.7814 -19.8779,0 0,7.35295 0.21661,27.4594 0.21661,27.4594 z"
         id="path279"
         sodipodi:nodetypes="ccccc" />
      <ellipse
         style="fill:#000000;fill-opacity:1;stroke:none;stroke-width:1.26366;stroke-linecap:butt;stroke-opacity:1"
         id="ellipse279"
         cx="-423.25525"
         cy="968.49579"
         rx="5.6843538"
         ry="5.966578" />
      <path
         style="fill:#000000;fill-opacity:1;stroke:none;stroke-width:1.26366;stroke-linecap:butt;stroke-opacity:1"
         d="m -432.9775,1007.0414 h 19.66129 V 979.582 c -4.75618,-4.75619 -15.14681,-4.7814 -19.8779,0 0,7.35295 0.21661,27.4594 0.21661,27.4594 z"
         id="path280"
         sodipodi:nodetypes="ccccc" />
      <ellipse
         style="fill:#000000;fill-opacity:1;stroke:none;stroke-width:1.26366;stroke-linecap:butt;stroke-opacity:1"
         id="ellipse281"
         cx="-398.50467"
         cy="968.49579"
         rx="5.6843538"
         ry="5.966578" />
      <path
         style="fill:#000000;fill-opacity:1;stroke:none;stroke-width:1.26366;stroke-linecap:butt;stroke-opacity:1"
         d="m -408.22693,1007.0414 h 19.66129 V 979.582 c -4.75618,-4.75619 -15.14681,-4.7814 -19.8779,0 0,7.35295 0.21661,27.4594 0.21661,27.4594 z"
         id="path281"
         sodipodi:nodetypes="ccccc" />
      <ellipse
         style="fill:#000000;fill-opacity:1;stroke:none;stroke-width:1.26366;stroke-linecap:butt;stroke-opacity:1"
         id="ellipse282"
         cx="-373.75409"
         cy="968.49579"
         rx="5.6843538"
         ry="5.966578" />
      <path
         style="fill:#000000;fill-opacity:1;stroke:none;stroke-width:1.26366;stroke-linecap:butt;stroke-opacity:1"
         d="m -383.47636,1007.0414 h 19.66129 V 979.582 c -4.75618,-4.75619 -15.14681,-4.7814 -19.8779,0 0,7.35295 0.21661,27.4594 0.21661,27.4594 z"
         id="path282"
         sodipodi:nodetypes="ccccc" />
      <ellipse
         style="fill:#000000;fill-opacity:1;stroke:none;stroke-width:1.26366;stroke-linecap:butt;stroke-opacity:1"
         id="ellipse283"
         cx="-349.00351"
         cy="968.49579"
         rx="5.6843538"
         ry="5.966578" />
      <path
         style="fill:#000000;fill-opacity:1;stroke:none;stroke-width:1.26366;stroke-linecap:butt;stroke-opacity:1"
         d="m -358.72579,1007.0414 h 19.66129 V 979.582 c -4.75618,-4.75619 -15.14681,-4.7814 -19.8779,0 0,7.35295 0.21661,27.4594 0.21661,27.4594 z"
         id="path283"
         sodipodi:nodetypes="ccccc" />
      <ellipse
         style="fill:#000000;fill-opacity:1;stroke:none;stroke-width:1.26366;stroke-linecap:butt;stroke-opacity:1"
         id="ellipse481"
         cx="-472.75632"
         cy="968.49579"
         rx="5.6843538"
         ry="5.966578" />
      <path
         style="fill:#000000;fill-opacity:1;stroke:none;stroke-width:1.26366;stroke-linecap:butt;stroke-opacity:1"
         d="m -482.47864,1007.0414 h 19.66129 V 979.582 c -4.75618,-4.75619 -15.14681,-4.7814 -19.8779,0 0,7.35295 0.21661,27.4594 0.21661,27.4594 z"
         id="path481"
         sodipodi:nodetypes="ccccc" />
      <ellipse
         style="fill:#000000;fill-opacity:1;stroke:none;stroke-width:1.26366;stroke-linecap:butt;stroke-opacity:1"
         id="ellipse482"
         cx="-448.0058"
         cy="968.49579"
         rx="5.6843538"
         ry="5.966578" />
      <path
         style="fill:#000000;fill-opacity:1;stroke:none;stroke-width:1.26366;stroke-linecap:butt;stroke-opacity:1"
         d="m -457.72807,1007.0414 h 19.66129 V 979.582 c -4.75618,-4.75619 -15.14681,-4.7814 -19.8779,0 0,7.35295 0.21661,27.4594 0.21661,27.4594 z"
         id="path482"
         sodipodi:nodetypes="ccccc" />
      <ellipse
         style="fill:#000000;fill-opacity:1;stroke:none;stroke-width:1.26366;stroke-linecap:butt;stroke-opacity:1"
         id="ellipse483"
         cx="-423.25525"
         cy="968.49579"
         rx="5.6843538"
         ry="5.966578" />
      <path
         style="fill:#000000;fill-opacity:1;stroke:none;stroke-width:1.26366;stroke-linecap:butt;stroke-opacity:1"
         d="m -432.9775,1007.0414 h 19.66129 V 979.582 c -4.75618,-4.75619 -15.14681,-4.7814 -19.8779,0 0,7.35295 0.21661,27.4594 0.21661,27.4594 z"
         id="path483"
         sodipodi:nodetypes="ccccc" />
      <ellipse
         style="fill:#000000;fill-opacity:1;stroke:none;stroke-width:1.26366;stroke-linecap:butt;stroke-opacity:1"
         id="ellipse484"
         cx="-398.50467"
         cy="968.49579"
         rx="5.6843538"
         ry="5.966578" />
      <path
         style="fill:#000000;fill-opacity:1;stroke:none;stroke-width:1.26366;stroke-linecap:butt;stroke-opacity:1"
         d="m -408.22693,1007.0414 h 19.66129 V 979.582 c -4.75618,-4.75619 -15.14681,-4.7814 -19.8779,0 0,7.35295 0.21661,27.4594 0.21661,27.4594 z"
         id="path484"
         sodipodi:nodetypes="ccccc" />
      <ellipse
         style="fill:#000000;fill-opacity:1;stroke:none;stroke-width:1.26366;stroke-linecap:butt;stroke-opacity:1"
         id="ellipse485"
         cx="-373.75409"
         cy="968.49579"
         rx="5.6843538"
         ry="5.966578" />
      <path
         style="fill:#000000;fill-opacity:1;stroke:none;stroke-width:1.26366;stroke-linecap:butt;stroke-opacity:1"
         d="m -383.47636,1007.0414 h 19.66129 V 979.582 c -4.75618,-4.75619 -15.14681,-4.7814 -19.8779,0 0,7.35295 0.21661,27.4594 0.21661,27.4594 z"
         id="path485"
         sodipodi:nodetypes="ccccc" />
      <ellipse
         style="fill:#000000;fill-opacity:1;stroke:none;stroke-width:1.26366;stroke-linecap:butt;stroke-opacity:1"
         id="ellipse486"
         cx="-349.00351"
         cy="968.49579"
         rx="5.6843538"
         ry="5.966578" />
      <path
         style="fill:#000000;fill-opacity:1;stroke:none;stroke-width:1.26366;stroke-linecap:butt;stroke-opacity:1"
         d="m -358.72579,1007.0414 h 19.66129 V 979.582 c -4.75618,-4.75619 -15.14681,-4.7814 -19.8779,0 0,7.35295 0.21661,27.4594 0.21661,27.4594 z"
         id="path486"
         sodipodi:nodetypes="ccccc" />
    </g>
    <g
       id="g733"
       transform="matrix(0.35184724,0,0,0.35184724,210.99334,-86.525963)"
       style="stroke-width:0.751984"
       inkscape:export-filename="4_adult.svg"
       inkscape:export-xdpi="1974.189"
       inkscape:export-ydpi="1974.189">
      <ellipse
         style="fill:#000000;fill-opacity:1;stroke:none;stroke-width:1.26366;stroke-linecap:butt;stroke-opacity:1"
         id="ellipse284"
         cx="-286.63806"
         cy="968.49579"
         rx="5.6843538"
         ry="5.966578" />
      <path
         style="fill:#000000;fill-opacity:1;stroke:none;stroke-width:1.26366;stroke-linecap:butt;stroke-opacity:1"
         d="m -296.36032,1007.0414 h 19.66129 V 979.582 c -4.75618,-4.75619 -15.14681,-4.7814 -19.8779,0 0,7.35295 0.21661,27.4594 0.21661,27.4594 z"
         id="path284"
         sodipodi:nodetypes="ccccc" />
      <ellipse
         style="fill:#000000;fill-opacity:1;stroke:none;stroke-width:1.26366;stroke-linecap:butt;stroke-opacity:1"
         id="ellipse285"
         cx="-261.88751"
         cy="968.49579"
         rx="5.6843538"
         ry="5.966578" />
      <path
         style="fill:#000000;fill-opacity:1;stroke:none;stroke-width:1.26366;stroke-linecap:butt;stroke-opacity:1"
         d="m -271.60975,1007.0414 h 19.66129 V 979.582 c -4.75618,-4.75619 -15.14681,-4.7814 -19.8779,0 0,7.35295 0.21661,27.4594 0.21661,27.4594 z"
         id="path285"
         sodipodi:nodetypes="ccccc" />
      <ellipse
         style="fill:#000000;fill-opacity:1;stroke:none;stroke-width:1.26366;stroke-linecap:butt;stroke-opacity:1"
         id="ellipse286"
         cx="-237.1369"
         cy="968.49579"
         rx="5.6843538"
         ry="5.966578" />
      <path
         style="fill:#000000;fill-opacity:1;stroke:none;stroke-width:1.26366;stroke-linecap:butt;stroke-opacity:1"
         d="m -246.85918,1007.0414 h 19.66129 V 979.582 c -4.75618,-4.75619 -15.14681,-4.7814 -19.8779,0 0,7.35295 0.21661,27.4594 0.21661,27.4594 z"
         id="path286"
         sodipodi:nodetypes="ccccc" />
      <ellipse
         style="fill:#000000;fill-opacity:1;stroke:none;stroke-width:1.26366;stroke-linecap:butt;stroke-opacity:1"
         id="ellipse287"
         cx="-212.38635"
         cy="968.49579"
         rx="5.6843538"
         ry="5.966578" />
      <path
         style="fill:#000000;fill-opacity:1;stroke:none;stroke-width:1.26366;stroke-linecap:butt;stroke-opacity:1"
         d="m -222.10861,1007.0414 h 19.66129 V 979.582 c -4.75618,-4.75619 -15.14681,-4.7814 -19.8779,0 0,7.35295 0.21661,27.4594 0.21661,27.4594 z"
         id="path287"
         sodipodi:nodetypes="ccccc" />
      <ellipse
         style="fill:#000000;fill-opacity:1;stroke:none;stroke-width:1.26366;stroke-linecap:butt;stroke-opacity:1"
         id="ellipse487"
         cx="-286.63806"
         cy="968.49579"
         rx="5.6843538"
         ry="5.966578" />
      <path
         style="fill:#000000;fill-opacity:1;stroke:none;stroke-width:1.26366;stroke-linecap:butt;stroke-opacity:1"
         d="m -296.36032,1007.0414 h 19.66129 V 979.582 c -4.75618,-4.75619 -15.14681,-4.7814 -19.8779,0 0,7.35295 0.21661,27.4594 0.21661,27.4594 z"
         id="path487"
         sodipodi:nodetypes="ccccc" />
      <ellipse
         style="fill:#000000;fill-opacity:1;stroke:none;stroke-width:1.26366;stroke-linecap:butt;stroke-opacity:1"
         id="ellipse488"
         cx="-261.88751"
         cy="968.49579"
         rx="5.6843538"
         ry="5.966578" />
      <path
         style="fill:#000000;fill-opacity:1;stroke:none;stroke-width:1.26366;stroke-linecap:butt;stroke-opacity:1"
         d="m -271.60975,1007.0414 h 19.66129 V 979.582 c -4.75618,-4.75619 -15.14681,-4.7814 -19.8779,0 0,7.35295 0.21661,27.4594 0.21661,27.4594 z"
         id="path488"
         sodipodi:nodetypes="ccccc" />
      <ellipse
         style="fill:#000000;fill-opacity:1;stroke:none;stroke-width:1.26366;stroke-linecap:butt;stroke-opacity:1"
         id="ellipse489"
         cx="-237.1369"
         cy="968.49579"
         rx="5.6843538"
         ry="5.966578" />
      <path
         style="fill:#000000;fill-opacity:1;stroke:none;stroke-width:1.26366;stroke-linecap:butt;stroke-opacity:1"
         d="m -246.85918,1007.0414 h 19.66129 V 979.582 c -4.75618,-4.75619 -15.14681,-4.7814 -19.8779,0 0,7.35295 0.21661,27.4594 0.21661,27.4594 z"
         id="path489"
         sodipodi:nodetypes="ccccc" />
      <ellipse
         style="fill:#000000;fill-opacity:1;stroke:none;stroke-width:1.26366;stroke-linecap:butt;stroke-opacity:1"
         id="ellipse490"
         cx="-212.38635"
         cy="968.49579"
         rx="5.6843538"
         ry="5.966578" />
      <path
         style="fill:#000000;fill-opacity:1;stroke:none;stroke-width:1.26366;stroke-linecap:butt;stroke-opacity:1"
         d="m -222.10861,1007.0414 h 19.66129 V 979.582 c -4.75618,-4.75619 -15.14681,-4.7814 -19.8779,0 0,7.35295 0.21661,27.4594 0.21661,27.4594 z"
         id="path490"
         sodipodi:nodetypes="ccccc" />
    </g>
    <g
       id="g734"
       transform="matrix(0.35184724,0,0,0.35184724,210.99334,-86.525963)"
       style="stroke-width:0.751984"
       inkscape:export-filename="1_adult_2_children.svg"
       inkscape:export-xdpi="1974.189"
       inkscape:export-ydpi="1974.189">
      <ellipse
         style="fill:#000000;fill-opacity:1;stroke:none;stroke-width:0.968081;stroke-linecap:butt;stroke-opacity:1"
         id="ellipse289"
         cx="-137.12421"
         cy="983.49298"
         rx="4.3547745"
         ry="4.5709863" />
      <path
         style="fill:#000000;fill-opacity:1;stroke:none;stroke-width:0.727542;stroke-linecap:butt;stroke-opacity:1"
         d="m -142.72179,1007.0414 h 11.31987 v -15.80957 c -2.73834,-2.73835 -8.72068,-2.75287 -11.44458,0 0,4.23341 0.12471,15.80957 0.12471,15.80957 z"
         id="path289"
         sodipodi:nodetypes="ccccc" />
      <ellipse
         style="fill:#000000;fill-opacity:1;stroke:none;stroke-width:1.26366;stroke-linecap:butt;stroke-opacity:1"
         id="ellipse290"
         cx="-157.6582"
         cy="968.49579"
         rx="5.6843538"
         ry="5.966578" />
      <path
         style="fill:#000000;fill-opacity:1;stroke:none;stroke-width:1.26366;stroke-linecap:butt;stroke-opacity:1"
         d="m -167.38046,1007.0414 h 19.66129 V 979.582 c -4.75618,-4.75619 -15.14681,-4.7814 -19.8779,0 0,7.35295 0.21661,27.4594 0.21661,27.4594 z"
         id="path290"
         sodipodi:nodetypes="ccccc" />
      <ellipse
         style="fill:#000000;fill-opacity:1;stroke:none;stroke-width:0.968081;stroke-linecap:butt;stroke-opacity:1"
         id="ellipse291"
         cx="-120.80688"
         cy="983.49298"
         rx="4.3547745"
         ry="4.5709863" />
      <path
         style="fill:#000000;fill-opacity:1;stroke:none;stroke-width:0.727542;stroke-linecap:butt;stroke-opacity:1"
         d="m -126.40445,1007.0414 h 11.31987 v -15.80957 c -2.73834,-2.73835 -8.72068,-2.75287 -11.44458,0 0,4.23341 0.12471,15.80957 0.12471,15.80957 z"
         id="path291"
         sodipodi:nodetypes="ccccc" />
      <ellipse
         style="fill:#000000;fill-opacity:1;stroke:none;stroke-width:0.968081;stroke-linecap:butt;stroke-opacity:1"
         id="ellipse491"
         cx="-137.12421"
         cy="983.49298"
         rx="4.3547745"
         ry="4.5709863" />
      <path
         style="fill:#000000;fill-opacity:1;stroke:none;stroke-width:0.727542;stroke-linecap:butt;stroke-opacity:1"
         d="m -142.72179,1007.0414 h 11.31987 v -15.80957 c -2.73834,-2.73835 -8.72068,-2.75287 -11.44458,0 0,4.23341 0.12471,15.80957 0.12471,15.80957 z"
         id="path491"
         sodipodi:nodetypes="ccccc" />
      <ellipse
         style="fill:#000000;fill-opacity:1;stroke:none;stroke-width:1.26366;stroke-linecap:butt;stroke-opacity:1"
         id="ellipse492"
         cx="-157.6582"
         cy="968.49579"
         rx="5.6843538"
         ry="5.966578" />
      <path
         style="fill:#000000;fill-opacity:1;stroke:none;stroke-width:1.26366;stroke-linecap:butt;stroke-opacity:1"
         d="m -167.38046,1007.0414 h 19.66129 V 979.582 c -4.75618,-4.75619 -15.14681,-4.7814 -19.8779,0 0,7.35295 0.21661,27.4594 0.21661,27.4594 z"
         id="path492"
         sodipodi:nodetypes="ccccc" />
      <ellipse
         style="fill:#000000;fill-opacity:1;stroke:none;stroke-width:0.968081;stroke-linecap:butt;stroke-opacity:1"
         id="ellipse493"
         cx="-120.80688"
         cy="983.49298"
         rx="4.3547745"
         ry="4.5709863" />
      <path
         style="fill:#000000;fill-opacity:1;stroke:none;stroke-width:0.727542;stroke-linecap:butt;stroke-opacity:1"
         d="m -126.40445,1007.0414 h 11.31987 v -15.80957 c -2.73834,-2.73835 -8.72068,-2.75287 -11.44458,0 0,4.23341 0.12471,15.80957 0.12471,15.80957 z"
         id="path493"
         sodipodi:nodetypes="ccccc" />
    </g>
    <g
       id="g768"
       inkscape:export-filename="wifi.svg"
       inkscape:export-xdpi="2187.947"
       inkscape:export-ydpi="2187.947"
       transform="matrix(0.35184724,0,0,0.35184724,210.99334,-86.525963)"
       style="stroke-width:0.751984">
      <ellipse
         style="fill:#000000;fill-opacity:1;stroke:none;stroke-width:3.8732;stroke-linecap:round;stroke-dasharray:none;stroke-opacity:1"
         id="ellipse311"
         cx="-479.22089"
         cy="473.40115"
         rx="3.174382"
         ry="3.2236965" />
      <path
         style="fill:#000000;fill-opacity:1;stroke:none;stroke-width:3.75993;stroke-dasharray:none;stroke-opacity:1"
         d="m -501.49991,453.78542 3.94522,4.04447 c 6.58009,-7.59215 13.55386,-8.30257 18.33383,-8.41934 l 2e-5,-5.69327 c -7.99005,0.0165 -16.14472,3.21019 -22.27907,10.06814 z"
         id="path720"
         sodipodi:nodetypes="ccccc" />
      <path
         style="fill:#000000;fill-opacity:1;stroke:none;stroke-width:3.75993;stroke-dasharray:none;stroke-opacity:1"
         d="m -484.61125,471.0989 -3.88724,-3.9849 c 2.26651,-3.29666 5.90851,-4.91345 9.27765,-4.89248 l -2e-5,5.69193 c -2.27706,0.0137 -3.82075,0.37513 -5.39039,3.18545 z"
         id="path722"
         sodipodi:nodetypes="ccccc" />
      <path
         style="fill:#000000;fill-opacity:1;stroke:none;stroke-width:3.75993;stroke-dasharray:none;stroke-opacity:1"
         d="m -495.00996,460.43859 3.90773,4.00606 c 3.44393,-4.39986 7.3409,-5.78575 11.88137,-5.78242 l 6e-5,-5.69149 c -3.47621,-0.0443 -10.5814,1.07491 -15.78916,7.46785 z"
         id="path727"
         sodipodi:nodetypes="ccccc" />
      <path
         style="fill:#000000;fill-opacity:1;stroke:none;stroke-width:3.75993;stroke-dasharray:none;stroke-opacity:1"
         d="m -456.94179,453.78542 -3.94522,4.04447 c -6.58009,-7.59215 -13.55386,-8.30257 -18.33383,-8.41934 l -2e-5,-5.69327 c 7.99005,0.0165 16.14472,3.21019 22.27907,10.06814 z"
         id="path766"
         sodipodi:nodetypes="ccccc" />
      <path
         style="fill:#000000;fill-opacity:1;stroke:none;stroke-width:3.75993;stroke-dasharray:none;stroke-opacity:1"
         d="m -473.83045,471.0989 3.88724,-3.9849 c -2.26651,-3.29666 -5.90851,-4.91345 -9.27765,-4.89248 l 2e-5,5.69193 c 2.27706,0.0137 3.82075,0.37513 5.39039,3.18545 z"
         id="path767"
         sodipodi:nodetypes="ccccc" />
      <path
         style="fill:#000000;fill-opacity:1;stroke:none;stroke-width:3.75993;stroke-dasharray:none;stroke-opacity:1"
         d="m -463.43174,460.43859 -3.90773,4.00606 c -3.44393,-4.39986 -7.3409,-5.78575 -11.88137,-5.78242 l -6e-5,-5.69149 c 3.47621,-0.0443 10.5814,1.07491 15.78916,7.46785 z"
         id="path768"
         sodipodi:nodetypes="ccccc" />
    </g>
    <path
       id="path769"
       style="fill:#000000;fill-opacity:1;stroke:none;stroke-width:0.264583;stroke-dasharray:none;stroke-opacity:1"
       d="m 36.166807,115.03303 c 0,0 -0.02969,0.27845 -0.167676,0.72294 h 0.487227 c 0.06287,-0.22073 0.12382,-0.46106 0.180734,-0.72294 z m -0.558008,1.69464 c -0.15153,0.30642 -0.343231,0.63818 -0.585495,0.98271 l 0.618484,-0.001 c 0,0 0.235889,-0.30656 0.511962,-0.98133 z" />
    <rect
       style="fill:#000000;fill-opacity:1;stroke:none;stroke-width:0.264583;stroke-dasharray:none;stroke-opacity:1"
       id="rect772"
       width="0.49501741"
       height="0.98241919"
       x="42.380783"
       y="116.72794" />
    <rect
       style="fill:#000000;fill-opacity:1;stroke:none;stroke-width:0.264583;stroke-dasharray:none;stroke-opacity:1"
       id="rect773"
       width="0.49501482"
       height="0.71632546"
       x="42.380783"
       y="115.03935" />
    <path
       id="path776"
       style="fill:#000000;fill-opacity:1;stroke:none;stroke-width:0.264583;stroke-dasharray:none;stroke-opacity:1"
       d="m 39.100147,115.03854 c -0.02283,0.23752 -0.05428,0.47987 -0.09003,0.71743 h 0.503032 c 0.06105,-0.43832 0.08452,-0.71743 0.08452,-0.71743 z m -0.261823,1.68913 c -0.115016,0.57262 -0.219218,0.98132 -0.219218,0.98132 0,0 0.04896,0.001 0.5154,0.001 0.08692,-0.34105 0.158601,-0.67381 0.217842,-0.98269 z" />
    <path
       id="path781"
       style="fill:#000000;fill-opacity:1;stroke:none;stroke-width:0.264583;stroke-dasharray:none;stroke-opacity:1"
       d="m 49.08977,115.03303 c 0,0 0.0297,0.27845 0.167676,0.72294 h -0.487228 c -0.06286,-0.22073 -0.123819,-0.46106 -0.180732,-0.72294 z m 0.558009,1.69464 c 0.15153,0.30642 0.343231,0.63818 0.585501,0.98271 l -0.61849,-0.001 c 0,0 -0.23589,-0.30656 -0.511963,-0.98133 z" />
    <path
       id="path785"
       style="fill:#000000;fill-opacity:1;stroke:none;stroke-width:0.264583;stroke-dasharray:none;stroke-opacity:1"
       d="m 46.15643,115.03854 c 0.02283,0.23752 0.05428,0.47987 0.09003,0.71743 h -0.503038 c -0.06105,-0.43832 -0.08452,-0.71743 -0.08452,-0.71743 z m 0.261823,1.68913 c 0.115016,0.57262 0.219219,0.98132 0.219219,0.98132 0,0 -0.04896,0.001 -0.5154,0.001 -0.08692,-0.34105 -0.158602,-0.67381 -0.217842,-0.98269 z" />
    <path
       id="path26"
       style="fill:#020001;fill-opacity:1;stroke:none;stroke-width:0.79375;stroke-dasharray:none;stroke-opacity:1"
       d="m 74.541805,107.83112 c -1.68471,0.004 -3.07688,1.31548 -3.182424,2.99689 l -0.01449,-0.0137 v 0.21371 c -1.99e-4,1.76578 1.431091,3.19738 3.196866,3.19756 1.766039,1.9e-4 3.197742,-1.43152 3.197543,-3.19756 -1.93e-4,-1.76576 -1.431781,-3.19704 -3.197543,-3.19685 z m 2.792787,0 c 0.924924,0.80523 1.457226,1.97054 1.460298,3.19686 -0.0021,0.50199 -0.09307,0.99965 -0.268689,1.46993 l 2.362605,-0.3539 c 0,0 1.640356,-1.45839 0.830138,-4.31289 z m -2.792787,2.16813 c 0.56832,-1.4e-4 1.029176,0.46041 1.029424,1.02873 1.44e-4,0.5686 -0.460827,1.02958 -1.029424,1.02944 -0.568333,-2.4e-4 -1.02889,-0.46111 -1.028746,-1.02944 2.48e-4,-0.56806 0.460691,-1.02849 1.028746,-1.02873 z m -3.196866,3.83115 v 2.98244 0.0928 h 0.0066 c 0.03338,0.61652 0.389158,1.14206 0.898172,1.41839 -0.365846,0.66041 -0.813502,0.84456 -1.359285,0.84456 -0.577074,0 -1.038122,-0.26621 -1.400523,-1.22665 l -0.745615,0.35803 c 0.557579,1.39591 1.397757,1.71042 2.146138,1.71045 0.74838,1e-5 1.646419,-0.2326 2.174994,-1.47611 -1.73e-4,-7e-4 -3.32e-4,-0.001 -7.05e-4,-0.003 0.912108,-0.003 1.66396,-0.71583 1.71319,-1.6266 h 0.0066 v -0.0928 -1.53935 c -0.08054,0.005 -0.161203,0.008 -0.241894,0.008 -1.224803,-6.4e-4 -2.389863,-0.52933 -3.196865,-1.45068 z"
       inkscape:export-filename="hair_dryer.svg"
       inkscape:export-xdpi="1974.189"
       inkscape:export-ydpi="1974.189"
       sodipodi:nodetypes="cccsssccccccccccccccccccsccsccccccccc" />
    <g
       id="g91"
       transform="matrix(0.35184724,0,0,0.35184724,210.99334,-86.525963)"
       style="stroke-width:0.751984"
       inkscape:export-filename="special_capabilites_service.svg"
       inkscape:export-xdpi="1974.189"
       inkscape:export-ydpi="1974.189">
      <path
         id="path78"
         style="opacity:0.0231214;fill:#ffffff;fill-opacity:1;stroke-width:2.25595"
         d="m -301.15234,560.035 a 18.008513,18.008513 0 0 0 -18.00885,18.00693 18.008513,18.008513 0 0 0 18.00885,18.00885 18.008513,18.008513 0 0 0 18.00885,-18.00885 18.008513,18.008513 0 0 0 -18.00885,-18.00693 z m 0,4.50126 a 13.506261,13.506261 0 0 1 13.50567,13.50567 13.506261,13.506261 0 0 1 -13.50567,13.5076 13.506261,13.506261 0 0 1 -13.50569,-13.5076 13.506261,13.506261 0 0 1 13.50569,-13.50567 z" />
      <path
         id="path23"
         style="fill:#000000;fill-opacity:1;stroke:none;stroke-width:3.16475;stroke-opacity:1"
         d="m -319.92969,549.99414 -0.20508,1.73438 5.55274,0.21289 c 0,0 -0.0508,2.09873 -0.0527,14.18164 0.83181,-0.95363 2.45144,-2.26048 3.44741,-3.03319 l 0.0176,-12.875 z"
         sodipodi:nodetypes="ccccccc" />
      <path
         id="circle323"
         style="fill:#000000;stroke-width:1.83443"
         d="m -301.15234,563.91602 a 13.771865,13.771865 0 0 0 -13.77149,13.77148 13.771865,13.771865 0 0 0 13.77149,13.77344 13.771865,13.771865 0 0 0 13.77148,-13.77344 13.771865,13.771865 0 0 0 -13.77148,-13.77148 z m 0,4.59179 a 9.1809845,9.1809845 0 0 1 9.18164,9.17969 9.1809845,9.1809845 0 0 1 -9.18164,9.18164 9.1809845,9.1809845 0 0 1 -9.18164,-9.18164 9.1809845,9.1809845 0 0 1 9.18164,-9.17969 z" />
      <path
         id="path330"
         style="fill:#000000;fill-opacity:1;stroke:none;stroke-width:2.11943;stroke-opacity:1"
         inkscape:transform-center-x="3.5668089"
         inkscape:transform-center-y="-23.133401"
         d="m -304.61719,547.09375 c -1.59707,-0.035 -3.49764,0.94676 -3.55664,2.63281 0.005,6.30856 0.0219,8.20186 -0.0156,11.76953 a 18.008513,18.008513 0 0 1 7.03711,-1.46093 18.008513,18.008513 0 0 1 1.09765,0.0781 c -0.004,-5.1362 -1.13602,-9.78409 -1.4082,-10.87695 -0.26277,-1.05502 -1.55724,-2.10758 -3.1543,-2.14258 z" />
      <circle
         style="fill:#000000;fill-opacity:1;stroke:none;stroke-width:2.11943;stroke-opacity:1"
         id="circle330"
         cx="-140.7523"
         cy="605.68604"
         r="4.2987895"
         transform="rotate(16.284218)"
         inkscape:transform-center-x="4.3290277"
         inkscape:transform-center-y="-35.792145" />
      <path
         id="path331"
         style="fill:#000000;fill-opacity:1;stroke:none;stroke-width:2.11943;stroke-opacity:1"
         d="m -286.52539,561.40039 c -2.23905,0.0282 -4.69763,0.41988 -6.25195,0.75 a 18.008513,18.008513 0 0 1 9.63476,15.89063 18.008513,18.008513 0 0 1 -0.97851,5.8457 l 9.73437,0.0742 -0.88476,-1.89649 -5.61719,-1.20898 c 0,0 0.78513,-17.4697 -1.66211,-18.80859 -0.91772,-0.50209 -2.38382,-0.66655 -3.97461,-0.64649 z" />
      <path
         id="path333"
         style="fill:#000000;fill-opacity:1;stroke:none;stroke-width:2.18481;stroke-dasharray:none;stroke-opacity:1"
         d="m -284.9375,585.86914 a 18.008513,18.008513 0 0 1 -0.96094,1.73828 l 8.06641,-0.0332 0.0781,-1.70508 z" />
      <path
         style="opacity:1;fill:#ffffff;fill-opacity:1;stroke:#000000;stroke-width:3.00793;stroke-dasharray:none;stroke-opacity:1"
         d="M -301.15233,577.6881 V 564.04496"
         id="path83"
         sodipodi:nodetypes="cc" />
      <path
         style="opacity:1;fill:#ffffff;fill-opacity:1;stroke:#000000;stroke-width:3.00793;stroke-dasharray:none;stroke-opacity:1"
         d="m -301.15233,577.6881 12.9754,-4.21596"
         id="path84"
         sodipodi:nodetypes="cc" />
      <path
         style="opacity:1;fill:#ffffff;fill-opacity:1;stroke:#000000;stroke-width:3.00793;stroke-dasharray:none;stroke-opacity:1"
         d="m -301.15233,577.6881 -12.9754,-4.21596"
         id="path85"
         sodipodi:nodetypes="cc" />
      <path
         style="opacity:1;fill:#ffffff;fill-opacity:1;stroke:#000000;stroke-width:3.00793;stroke-dasharray:none;stroke-opacity:1"
         d="m -301.15233,577.6881 8.01924,11.03754"
         id="path89"
         sodipodi:nodetypes="cc" />
      <path
         style="opacity:1;fill:#ffffff;fill-opacity:1;stroke:#000000;stroke-width:3.00793;stroke-dasharray:none;stroke-opacity:1"
         d="m -301.15233,577.6881 -8.01924,11.03754"
         id="path91"
         sodipodi:nodetypes="cc" />
    </g>
    <g
       id="g146"
       transform="matrix(0.35184724,0,0,0.35184724,210.99334,-86.525963)"
       style="stroke-width:0.751984"
       inkscape:export-filename="desk.svg"
       inkscape:export-xdpi="1974.189"
       inkscape:export-ydpi="1974.189">
      <path
         id="rect97"
         style="fill:#000000;fill-opacity:1;stroke:none;stroke-width:3.00793;stroke-dasharray:none;stroke-opacity:1"
         d="m -208.70117,555.04102 v 3.12109 h 23.42773 v -3.12109 z m 0,4.79882 v 29.9668 h 23.42773 v -29.9668 z" />
      <rect
         style="fill:#000000;fill-opacity:1;stroke:none;stroke-width:3.00793;stroke-dasharray:none;stroke-opacity:1"
         id="rect98"
         width="4.1410875"
         height="13.576653"
         x="-216.98901"
         y="574.12268" />
      <path
         style="fill:#000000;fill-opacity:1;stroke:none;stroke-width:3.00793;stroke-dasharray:none;stroke-opacity:1"
         d="m -224.05391,542.96634 c 1.53414,7.31604 3.6296,21.71395 4.71675,23.61602 2.45717,2.11307 6.89102,2.0397 13.29699,2.0397 l -0.5,6.99099 c -6.81882,0 -11.01133,0.74397 -17.31576,-2.52826 -0.94521,-5.77223 -2.95719,-26.35931 -2.91468,-30.03794 0.78254,-0.34133 1.75676,-0.5679 2.7167,-0.0805 z"
         id="path124"
         sodipodi:nodetypes="ccccccc" />
      <path
         style="fill:#000000;fill-opacity:1;stroke:none;stroke-width:3.00793;stroke-dasharray:none;stroke-opacity:1"
         d="m -214.91845,584.40615 -9.40531,3.23064 v 2.16998 l 9.40531,-3e-5 z"
         id="path125"
         sodipodi:nodetypes="ccccc" />
      <path
         style="fill:#000000;fill-opacity:1;stroke:none;stroke-width:3.00793;stroke-dasharray:none;stroke-opacity:1"
         d="m -221.20844,569.0987 c -0.26517,-1.41421 -0.37665,-3.99273 0.022,-7.11862 4.13304,-2.44089 12.58852,-2.14071 12.58852,-2.14071 0,0 0.33784,2.99329 -0.10411,2.9049 -0.44194,-0.0884 -6.01436,-6.3e-4 -8.53727,1.65576 0.0953,1.67248 0.31197,2.51263 0.51463,4.91336 -1.55851,0.59775 -4.48375,-0.21469 -4.48375,-0.21469 z"
         id="path126"
         sodipodi:nodetypes="cccscccc" />
      <path
         style="fill:#000000;fill-opacity:1;stroke:none;stroke-width:3.00793;stroke-dasharray:none;stroke-opacity:1"
         d="m -214.91845,584.40615 9.40531,3.23064 v 2.16998 l -9.40531,-3e-5 z"
         id="path127"
         sodipodi:nodetypes="ccccc" />
    </g>
    <g
       id="g218"
       transform="matrix(0.30322808,0,0,0.30322808,203.85126,-58.014335)"
       style="stroke-width:0.872557"
       inkscape:export-filename="hot_water.svg"
       inkscape:export-xdpi="1974.189"
       inkscape:export-ydpi="1974.189">
      <path
         id="path198"
         style="fill:#000000;fill-opacity:1;stroke:none;stroke-width:2.60412;stroke-dasharray:none;stroke-opacity:1"
         d="m -106.06238,553.35913 a 12.73842,7.4291978 49.116442 0 0 -3.92578,1.14258 12.73842,7.4291978 49.116442 0 0 0.45117,11.30274 c -4.46349,2.4121 -10.13728,5.28429 -13.01367,5.9375 -0.15501,3.2858 -0.30859,7.55468 -0.30859,7.55468 0,0 4.0082,1.23642 6.61718,2.21485 1.64714,-2.80127 6.82721,-7.31925 10.86524,-10.60938 a 12.73842,7.4291978 49.116442 0 0 12.062498,2.86133 12.73842,7.4291978 49.116442 0 0 -1.31641,-12.68164 c 1.71133,-1.24499 3.54535,-2.50187 4.69922,-3.05078 2.647927,-1.25965 4.30078,-0.20703 4.300781,-0.20703 l 0.138672,-3.02735 c 0,0 -3.618753,-1.19924 -6.474613,0.17969 -1.28302,0.6195 -3.26146,1.96246 -5.0625,3.25586 a 12.73842,7.4291978 49.116442 0 0 -9.033198,-4.87305 z m 3.95508,11.57032 0.65039,0.96289 c 0,0 -15.08118,11.15228 -16.41211,13.92383 -0.82034,-1.23294 -1.49642,-2.23469 -2.35937,-3.14258 4.37297,-2.4309 18.12108,-11.74414 18.12109,-11.74414 z" />
      <path
         style="fill:none;fill-opacity:1;stroke:#000000;stroke-width:2.18139;stroke-linecap:butt;stroke-linejoin:round;stroke-dasharray:none;stroke-opacity:1"
         d="m -120.97109,567.53156 c 0,0 2.18792,-7.1056 1.98661,-10.20349 -0.20131,-3.09789 -1.37103,-5.67634 -2.13277,-8.75889 -0.76174,-3.08255 1.18646,-7.4761 1.18646,-7.4761"
         id="path199"
         sodipodi:nodetypes="czzc" />
      <path
         style="fill:none;fill-opacity:1;stroke:#000000;stroke-width:2.18139;stroke-linecap:butt;stroke-linejoin:round;stroke-dasharray:none;stroke-opacity:1"
         d="m -126.31468,565.7886 c 0,0 1.92184,-4.76093 1.87678,-7.67132 -0.045,-2.91039 -1.1482,-5.69149 -1.73318,-8.33211 -0.58496,-2.64061 0.35121,-5.84589 0.35121,-5.84589"
         id="path200"
         sodipodi:nodetypes="czzc" />
      <path
         id="path214"
         style="fill:#000000;fill-opacity:1;stroke:none;stroke-width:2.60412;stroke-dasharray:none;stroke-opacity:1"
         d="m -128.70278,567.46971 c -1.61193,-0.0612 -3.20879,0.54369 -4.3864,2.05248 -3.14026,4.02341 0.0826,7.94146 2.15645,8.07909 -3.38878,-0.66711 -8.21954,4.38806 -4.22148,9.46112 2.54172,3.2251 7.31634,2.11917 9.83758,-0.15774 0.47759,3.48378 4.54209,5.61582 7.90699,4.1946 4.65377,-1.96555 4.39404,-8.30198 1.20998,-9.59199 0.0644,-0.13627 0.14475,-0.28134 0.23124,-0.42844 -2.39426,-0.89816 -6.0732,-2.03276 -6.0732,-2.03276 0,0 0.14124,-3.918 0.28323,-6.93362 -0.23302,0.0529 -0.45317,0.0954 -0.64353,0.11466 -0.88733,-2.703 -3.61432,-4.65545 -6.30086,-4.75746 z m -1.83021,3.99025 c 0.0497,-0.002 0.10062,-9.3e-4 0.15058,0.002 0.62543,0.0357 2.19377,0.93261 2.49704,1.10243 0.30326,0.16984 0.36215,0.4238 0.29756,0.70627 0,0 -0.80374,2.48338 -1.04327,2.86989 -0.23951,0.38649 -0.70447,0.28861 -0.70447,0.28861 -2.20782,-0.33118 -4.1175,-1.96326 -2.23533,-4.4832 0.34758,-0.33785 0.68979,-0.47291 1.03789,-0.48579 z m 0.38541,10.32515 c 0.23476,6.5e-4 0.40679,0.11717 0.49833,0.30832 0.12205,0.25484 1.36348,2.55957 1.48424,3.04197 0.12082,0.48241 -0.20794,0.71524 -0.20794,0.71524 -1.94201,1.4799 -4.77909,1.79058 -5.32212,-1.60613 -2.7e-4,-0.60583 0.20288,-1.00338 0.52522,-1.29961 0.50451,-0.46354 2.40344,-1.01182 2.76772,-1.12036 0.091,-0.0271 0.17629,-0.0397 0.25454,-0.0394 z m 10.06881,2.98282 c 0.26293,-0.009 0.55333,0.12396 0.67759,0.40153 0.14201,0.31723 0.89336,1.95877 0.87298,2.58488 -0.0131,0.40009 -0.16608,0.77895 -0.58617,1.14007 -2.6782,1.64918 -4.16621,-0.45666 -4.29856,-2.68526 -0.004,-0.4474 0.33313,-0.59311 0.38361,-0.61844 0.40638,-0.20398 2.55421,-0.75324 2.84121,-0.81024 0.0359,-0.007 0.0718,-0.0117 0.10934,-0.0125 z" />
      <path
         style="fill:none;fill-opacity:1;stroke:#000000;stroke-width:2.18139;stroke-linecap:butt;stroke-linejoin:round;stroke-dasharray:none;stroke-opacity:1"
         d="m -132.45729,565.5913 c 0,0 2.62358,-5.4279 2.57852,-8.33829 -0.045,-2.91039 -1.10402,-3.8764 -1.46801,-6.51701 -0.36399,-2.64061 0.0311,-4.28523 0.0311,-4.28523"
         id="path218"
         sodipodi:nodetypes="czzc" />
    </g>
  </g>
</svg>
