<?xml version="1.0" encoding="UTF-8" standalone="no"?>
<!-- Created with Inkscape (http://www.inkscape.org/) -->

<svg
   width="20.056561mm"
   height="13.63601mm"
   viewBox="0 0 20.056561 13.63601"
   version="1.1"
   id="svg1"
   xmlns="http://www.w3.org/2000/svg"
   xmlns:svg="http://www.w3.org/2000/svg">
  <defs
     id="defs1" />
  <g
     id="layer1"
     transform="translate(-158.6167,-67.627516)">
    <g
       id="g731"
       transform="matrix(0.35184724,0,0,0.35184724,210.99334,-86.525963)"
       style="stroke-width:0.751984">
      <path
         id="path213"
         style="fill:#000000;fill-opacity:1;stroke-width:2.13552;stroke-linecap:round"
         d="m -125.84474,456.97191 c -1.49592,2.37276 -3.77751,4.16438 -6.26789,4.15553 -2.49037,-0.009 -4.81004,-1.98019 -5.93188,-3.85411 -0.85703,2.98604 -2.79191,3.75762 -5.45507,3.79482 0.69118,3.90225 2.32651,7.43434 4.63977,10.38388 h 36.8785 c 2.30609,-2.94095 3.935461,-6.46274 4.629876,-10.35176 -2.492555,-0.48178 -4.449336,-0.0385 -5.417996,-3.90354 -1.18814,2.12378 -1.62105,4.34975 -5.11906,4.33836 -3.49803,-0.0114 -4.46469,-2.07282 -5.82318,-4.56318 -1.4334,2.5287 -3.21098,4.61259 -6.47048,4.61259 -3.25951,0 -4.65578,-2.34424 -5.66259,-4.61259 z" />
      <path
         id="circle232"
         style="fill:#000000;fill-opacity:1;stroke-width:2.13552;stroke-linecap:round"
         d="m -278.92624,372.19889 a 3.1567361,3.1567361 0 0 0 -1.311,-0.28461 3.1567361,3.1567361 0 0 0 -3.15605,3.15579 3.1567361,3.1567361 0 0 0 3.15761,3.15679 3.1567361,3.1567361 0 0 0 3.15605,-3.1558 3.1567361,3.1567361 0 0 0 -1.84661,-2.87217 z m -0.53756,0.50762 c 0.5399,0.20965 0.97911,0.55982 1.15983,0.86809 -0.57143,0.10888 -0.6127,0.3812 -0.88472,0.89829 -0.29935,-0.78918 -1.66029,-1.13108 -1.66029,-1.13108 0.0544,-0.4082 0.69276,-0.77412 0.91047,-0.77417 0.16371,0.0327 0.32354,0.0802 0.47471,0.13887 z"
         transform="rotate(-21.971654)" />
      <path
         id="circle233"
         style="fill:#000000;fill-opacity:1;stroke-width:2.13552;stroke-linecap:round"
         d="m -230.85843,392.74576 a 1.1194246,1.1194246 0 0 0 -0.31494,-0.0456 1.1194246,1.1194246 0 0 0 -1.12001,1.11894 1.1194246,1.1194246 0 0 0 1.11894,1.12002 1.1194246,1.1194246 0 0 0 1.12002,-1.11895 1.1194246,1.1194246 0 0 0 -0.80401,-1.07438 z m -0.13602,0.20341 c 0.23384,0.0659 0.43041,0.21209 0.50478,0.3389 -0.20268,0.0386 -0.21595,0.13545 -0.31243,0.31881 -0.10616,-0.27983 -0.59026,-0.39988 -0.59026,-0.39988 0.0193,-0.14474 0.24619,-0.27465 0.32337,-0.27459 0.0249,0.005 0.0504,0.01 0.0745,0.0168 z"
         transform="rotate(-17.071453)" />
      <path
         id="circle234"
         style="fill:#000000;fill-opacity:1;stroke-width:2.13552;stroke-linecap:round"
         d="m -272.14865,367.05653 a 2.3492918,2.3492918 0 0 0 -0.97572,-0.21253 2.3492918,2.3492918 0 0 0 -2.34886,2.35049 2.3492918,2.3492918 0 0 0 2.34868,2.34813 2.3492918,2.3492918 0 0 0 2.34994,-2.34795 2.3492918,2.3492918 0 0 0 -1.37404,-2.13814 z m -0.4008,0.37746 c 0.4018,0.15603 0.7297,0.41619 0.86418,0.64561 -0.42551,0.0809 -0.45697,0.28424 -0.65954,0.66901 -0.22278,-0.58733 -1.23572,-0.84184 -1.23572,-0.84184 0.0405,-0.30379 0.51721,-0.57685 0.67922,-0.57683 0.12183,0.0244 0.23936,0.0604 0.35186,0.10405 z"
         transform="rotate(-21.971654)" />
      <path
         id="circle236"
         style="fill:#000000;fill-opacity:1;stroke-width:2.13552;stroke-linecap:round"
         d="m -227.76778,400.93784 a 0.78400618,0.78400618 0 0 0 -0.21943,-0.0306 0.78400618,0.78400618 0 0 0 -0.7839,0.78289 0.78400618,0.78400618 0 0 0 0.78288,0.7839 0.78400618,0.78400618 0 0 0 0.7839,-0.78289 0.78400618,0.78400618 0 0 0 -0.56345,-0.75329 z m -0.0948,0.1425 c 0.16378,0.0462 0.30212,0.1486 0.35409,0.23746 -0.142,0.027 -0.15265,0.0961 -0.22015,0.22456 -0.0743,-0.19604 -0.41199,-0.2818 -0.41199,-0.2818 0.0135,-0.10142 0.17253,-0.19201 0.22649,-0.19196 0.0174,0.003 0.0346,0.007 0.0516,0.0117 z"
         transform="rotate(-17.071453)" />
      <path
         id="circle237"
         style="fill:#000000;fill-opacity:1;stroke-width:2.13552;stroke-linecap:round"
         d="m -280.40465,361.97758 a 1.1194247,1.1194247 0 0 0 -0.46467,-0.10112 1.1194247,1.1194247 0 0 0 -1.11931,1.11956 1.1194247,1.1194247 0 0 0 1.11955,1.11932 1.1194247,1.1194247 0 0 0 1.11932,-1.11956 1.1194247,1.1194247 0 0 0 -0.65489,-1.0182 z m -0.16631,0.18774 c 0.18093,0.0751 0.32523,0.19437 0.38683,0.29928 -0.20194,0.0389 -0.21707,0.13452 -0.31358,0.31787 -0.10618,-0.2798 -0.58855,-0.39961 -0.58855,-0.39961 0.0193,-0.14474 0.2468,-0.27585 0.32398,-0.27577 0.0663,0.0133 0.13102,0.0332 0.19132,0.0582 z"
         transform="rotate(-21.971654)" />
      <path
         id="circle238"
         style="fill:#000000;fill-opacity:1;stroke-width:2.13552;stroke-linecap:round"
         d="m -274.0276,361.8841 a 0.78400618,0.78400618 0 0 0 -0.32729,-0.071 0.78400618,0.78400618 0 0 0 -0.78356,0.78325 0.78400618,0.78400618 0 0 0 0.78507,0.78429 0.78400618,0.78400618 0 0 0 0.78355,-0.78326 0.78400618,0.78400618 0 0 0 -0.45777,-0.71331 z m -0.16608,0.11411 c 0.14892,0.0499 0.27045,0.14487 0.31885,0.22763 -0.14175,0.0271 -0.15119,0.0951 -0.21864,0.22349 -0.0743,-0.19602 -0.41336,-0.28049 -0.41336,-0.28049 0.0135,-0.10142 0.17324,-0.19265 0.22726,-0.19264 0.029,0.006 0.0583,0.0128 0.0859,0.022 z"
         transform="rotate(-21.971654)" />
      <path
         style="fill:none;fill-opacity:1;stroke:#000000;stroke-width:2.61109;stroke-linecap:round;stroke-dasharray:none;stroke-opacity:1"
         d="m -147.55631,461.02118 c 0,5.25112 2.92518,10.43577 6.72001,14.2306 20.55773,0 40.952491,0.31624 40.952491,0.31624 0,0 6.720004,-6.34963 6.720004,-14.38872"
         id="path248" />
      <path
         id="circle248"
         style="fill:#000000;fill-opacity:1;stroke-width:2.13552;stroke-linecap:round"
         d="m -256.72452,387.17656 a 2.3492918,2.3492918 0 0 0 -0.66332,-0.0954 2.3492918,2.3492918 0 0 0 -2.34796,2.34981 2.3492918,2.3492918 0 0 0 2.3498,2.34795 2.3492918,2.3492918 0 0 0 2.34796,-2.3498 2.3492918,2.3492918 0 0 0 -1.68648,-2.25254 z m -0.28452,0.4275 c 0.49075,0.13826 0.90441,0.44568 1.06042,0.7118 -0.42533,0.081 -0.45626,0.28328 -0.65874,0.66808 -0.22278,-0.58735 -1.23582,-0.83922 -1.23582,-0.83922 0.0405,-0.30377 0.51614,-0.57831 0.67818,-0.57834 0.0522,0.0104 0.1052,0.0234 0.15596,0.0377 z"
         transform="rotate(-17.071453)" />
      <path
         id="circle252"
         style="fill:#000000;fill-opacity:1;stroke-width:2.13552;stroke-linecap:round"
         d="m -299.97816,367.46274 a 1.1194247,1.1194247 0 0 0 -0.46467,-0.10112 1.1194247,1.1194247 0 0 0 -1.11932,1.11956 1.1194247,1.1194247 0 0 0 1.11956,1.11932 1.1194247,1.1194247 0 0 0 1.11932,-1.11956 1.1194247,1.1194247 0 0 0 -0.65489,-1.0182 z m -0.21413,0.17056 c 0.202,0.0731 0.36792,0.20281 0.43464,0.31646 -0.20193,0.0389 -0.21706,0.13452 -0.31358,0.31787 -0.10617,-0.2798 -0.58854,-0.39961 -0.58854,-0.39961 0.0193,-0.14474 0.24676,-0.27576 0.32397,-0.27577 0.0498,0.01 0.0969,0.0242 0.14351,0.0411 z"
         transform="rotate(-21.971654)" />
      <path
         id="circle255"
         style="fill:#000000;fill-opacity:1;stroke-width:2.13552;stroke-linecap:round"
         d="m -291.91967,373.95523 a 0.78400618,0.78400618 0 0 0 -0.32549,-0.0702 0.78400618,0.78400618 0 0 0 -0.78428,0.78506 0.78400618,0.78400618 0 0 0 0.78325,0.78356 0.78400618,0.78400618 0 0 0 0.78429,-0.78507 0.78400618,0.78400618 0 0 0 -0.45777,-0.71331 z m -0.16609,0.11411 c 0.14892,0.0499 0.27223,0.14568 0.32066,0.22836 -0.14174,0.0271 -0.153,0.0943 -0.22045,0.22276 -0.0743,-0.19603 -0.41154,-0.27977 -0.41154,-0.27977 0.0135,-0.10141 0.17142,-0.19338 0.22544,-0.19336 0.029,0.006 0.0583,0.0128 0.0859,0.022 z"
         transform="rotate(-21.971654)" />
      <path
         id="circle256"
         style="fill:#000000;fill-opacity:1;stroke-width:2.13552;stroke-linecap:round"
         d="m -293.84952,359.91456 a 0.78400618,0.78400618 0 0 0 -0.32549,-0.0702 0.78400618,0.78400618 0 0 0 -0.7861,0.78433 0.78400618,0.78400618 0 0 0 0.78507,0.78429 0.78400618,0.78400618 0 0 0 0.78429,-0.78506 0.78400618,0.78400618 0 0 0 -0.45777,-0.71332 z m -0.16609,0.11412 c 0.14892,0.0499 0.27045,0.14486 0.31885,0.22762 -0.14175,0.0271 -0.15119,0.0951 -0.21864,0.2235 -0.0743,-0.19602 -0.41335,-0.2805 -0.41335,-0.2805 0.0135,-0.10142 0.17323,-0.19265 0.22725,-0.19264 0.029,0.006 0.0583,0.0128 0.0859,0.022 z"
         transform="rotate(-21.971654)" />
      <path
         id="circle257"
         style="fill:#000000;fill-opacity:1;stroke-width:2.13552;stroke-linecap:round"
         d="m -107.80936,450.37888 a 2.3492918,2.3492918 0 0 0 -0.66016,0.10351 2.3492918,2.3492918 0 0 0 -1.55663,2.93555 2.3492918,2.3492918 0 0 0 2.93554,1.55664 2.3492918,2.3492918 0 0 0 1.55665,-2.93554 2.3492918,2.3492918 0 0 0 -2.2754,-1.66016 z m -0.0937,0.49218 c 0.49028,6.3e-4 0.95051,0.16969 1.16993,0.3711 -0.3828,0.2023 -0.353,0.40473 -0.4336,0.83203 -0.38539,-0.49608 -1.42773,-0.44141 -1.42773,-0.44141 -0.0505,-0.30229 0.32558,-0.70239 0.48046,-0.75 0.0707,-0.007 0.14091,-0.0118 0.21094,-0.0117 z" />
    </g>
  </g>
</svg>
