<?xml version="1.0" encoding="UTF-8" standalone="no"?>
<!-- Created with Inkscape (http://www.inkscape.org/) -->

<svg
   width="210mm"
   height="297mm"
   viewBox="0 0 210 297"
   version="1.1"
   id="svg1"
   inkscape:version="1.3.2 (091e20e, 2023-11-25, custom)"
   sodipodi:docname="logo.svg"
   xmlns:inkscape="http://www.inkscape.org/namespaces/inkscape"
   xmlns:sodipodi="http://sodipodi.sourceforge.net/DTD/sodipodi-0.dtd"
   xmlns="http://www.w3.org/2000/svg"
   xmlns:svg="http://www.w3.org/2000/svg">
  <sodipodi:namedview
     id="namedview1"
     pagecolor="#ffffff"
     bordercolor="#000000"
     borderopacity="0.25"
     inkscape:showpageshadow="2"
     inkscape:pageopacity="0.0"
     inkscape:pagecheckerboard="0"
     inkscape:deskcolor="#d1d1d1"
     inkscape:document-units="mm"
     inkscape:zoom="0.5095679"
     inkscape:cx="397.39552"
     inkscape:cy="561.25984"
     inkscape:window-width="1366"
     inkscape:window-height="697"
     inkscape:window-x="1358"
     inkscape:window-y="-7"
     inkscape:window-maximized="1"
     inkscape:current-layer="layer1" />
  <defs
     id="defs1">
    <rect
       x="303.125"
       y="140.625"
       width="1068.75"
       height="253.125"
       id="rect385" />
    <clipPath
       clipPathUnits="userSpaceOnUse"
       id="clipPath3">
      <path
         d="M 0,612 H 792 V 0 H 0 Z"
         transform="translate(-468.75201,-354.99611)"
         id="path3" />
    </clipPath>
    <rect
       x="303.125"
       y="140.625"
       width="1068.75"
       height="253.125"
       id="rect386" />
    <rect
       x="303.125"
       y="140.625"
       width="1068.75"
       height="253.125"
       id="rect387" />
    <clipPath
       clipPathUnits="userSpaceOnUse"
       id="clipPath1">
      <path
         d="M 0,612 H 792 V 0 H 0 Z"
         transform="translate(-468.75201,-354.99611)"
         id="path1" />
    </clipPath>
    <rect
       x="303.125"
       y="140.625"
       width="1068.75"
       height="253.125"
       id="rect388" />
  </defs>
  <g
     inkscape:label="Layer 1"
     inkscape:groupmode="layer"
     id="layer1">
    <text
       xml:space="preserve"
       id="text371"
       style="font-size:40px;line-height:36px;font-family:'Reem Kufi';-inkscape-font-specification:'Reem Kufi';text-align:center;letter-spacing:-2px;word-spacing:15px;white-space:pre;shape-inside:url(#rect385);display:inline;fill:#000000;fill-opacity:1;stroke:none;stroke-width:1.0481;stroke-opacity:1"
       transform="matrix(0.50488355,0,0,0.50488355,-298.58494,65.719192)"
       inkscape:export-filename="..\..\..\..\..\xampp\htdocs\hotelbelensate.com\_\media\image\brand\logo.webp"
       inkscape:export-xdpi="96"
       inkscape:export-ydpi="96"><tspan
         x="745.42004"
         y="170.65226"
         id="tspan10"><tspan
           style="font-weight:900;font-family:Raleway;-inkscape-font-specification:'Raleway Heavy'"
           id="tspan9">Belensate</tspan></tspan></text>
    <path
       id="path371"
       clip-path="url(#clipPath3)"
       style="fill:#000000;fill-opacity:1;fill-rule:nonzero;stroke:none;stroke-width:1.68079;stroke-opacity:1"
       d="m -147.75492,86.887159 c 2.946,-10.37999 10.60834,-18.773153 20.52833,-22.702149 3.93499,-1.556998 8.22191,-2.418457 12.71191,-2.418457 h 4.9292 16.718261 1.543945 0.577149 13.491211 3.203613 4.831055 3.133301 v 0.03516 h 9.364746 c 0.596,-0.053 1.198181,-0.09406 1.78418,-0.164062 3.118997,-0.36 6.092222,-0.947181 8.824219,-1.78418 10.21899,-3.128997 17.291665,-9.329515 17.680665,-16.520508 0.138999,-0.521 0.261308,-1.042778 0.341308,-1.571778 0.129,-0.785999 0.199219,-1.588485 0.199219,-2.396484 0,-1.654751 -0.298614,-3.264216 -0.814453,-4.819336 -2.085907,0.38632 -4.235074,0.593262 -6.432129,0.593262 h -0.06152 c -0.521999,0.02 -1.037129,0.05273 -1.557129,0.05273 h -1.335937 -0.06592 -19.053223 -21.162598 -4.853028 -3.938965 -21.37354 -15.15234 c 2.946,-10.37899 10.60879,-18.770688 20.52978,-22.700684 3.934002,-1.557999 8.22046,-2.419922 12.710456,-2.419922 h 4.930664 16.713867 1.54834 0.575684 13.489746 3.205078 4.831055 3.131836 v 0.03662 h 9.366211 c 0.596,-0.054 1.200181,-0.09553 1.78418,-0.1655274 3.118997,-0.3589996 6.093687,-0.9461805 8.825684,-1.7841797 10.22099,-3.1279969 17.2882,-9.3280506 17.6791996,-16.5190434 0.1369999,-0.5199995 0.2627736,-1.0427779 0.3427735,-1.5717774 0.1269999,-0.7879991 0.1962891,-1.5874851 0.1962891,-2.3964841 0,-1.920998 -0.3804773,-3.784873 -1.0634766,-5.567872 -0.036,-0.078 -0.056891,-0.160769 -0.087891,-0.238769 -0.7129992,-1.769998 -1.7501303,-3.449021 -3.0571289,-5.02002 l 0.029297,-0.03809 c 3.1719969,3.813997 5.5523296,8.318236 6.8613283,13.2612311 0.74599928,2.8259972 1.14990239999,5.7944486 1.14990239999,8.8564456 0,0.15199981 -0.0111836,0.299172 -0.01318359,0.45117185 0.002,0.20699979 0.01318359,0.4144885 0.01318359,0.625488293749 C -5.1750001e-4,13.309937 -7.4060054,24.89282 -18.313995,30.859814 c -0.041,0.02 -0.07905,0.03852 -0.123046,0.06152 -0.004,0.004 -0.01211,0.0043 -0.01611,0.0073 -2.982263,1.612164 -6.227163,2.797114 -9.648926,3.493652 1.226543,2.304314 2.207138,4.759748 2.890137,7.338867 0.745999,2.826998 1.151367,5.795914 1.151367,8.857911 0,0.152 -0.01411,0.299637 -0.01611,0.452636 0.002,0.206 0.01611,0.413559 0.01611,0.622559 0,13.311987 -7.405488,24.894335 -18.313477,30.861329 -0.041,0.021 -0.08205,0.03706 -0.123047,0.06006 -0.004,0.003 -0.01504,0.0063 -0.01904,0.0073 -4.964995,2.683997 -10.647041,4.209961 -16.686035,4.209961 h -0.06006 c -0.519999,0.021 -1.035664,0.0542 -1.555664,0.0542 h -1.335937 -0.06738 -19.051758 -21.164059 -4.85303 -3.93897 -21.37207 z"
       transform="matrix(0.20988763,0,0,-0.20988763,70.69943,155.2907)"
       inkscape:export-filename="..\..\..\..\..\xampp\htdocs\hotelbelensate.com\_\media\image\brand\favicon.webp"
       inkscape:export-xdpi="96"
       inkscape:export-ydpi="96" />
    <text
       xml:space="preserve"
       id="text373"
       style="font-size:12.4714px;line-height:11.2243px;font-family:'Reem Kufi';-inkscape-font-specification:'Reem Kufi';text-align:center;letter-spacing:10.9549px;word-spacing:0px;white-space:pre;shape-inside:url(#rect386);display:inline;fill:#000000;fill-opacity:1;stroke:none;stroke-width:1.35463;stroke-opacity:1"
       transform="matrix(0.39063406,0,0,0.39063406,-202.50471,99.752798)"><tspan
         x="723.42525"
         y="149.98707"
         id="tspan12"><tspan
           style="font-weight:900;font-family:Raleway;-inkscape-font-specification:'Raleway Heavy'"
           id="tspan11">HOTEL GALERÍA</tspan></tspan></text>
    <text
       xml:space="preserve"
       id="text378"
       style="font-size:40px;line-height:36px;font-family:'Reem Kufi';-inkscape-font-specification:'Reem Kufi';text-align:center;letter-spacing:-2px;word-spacing:15px;white-space:pre;shape-inside:url(#rect387);display:inline;fill:#000000;fill-opacity:1;stroke:none;stroke-width:1.0481;stroke-opacity:1"
       transform="matrix(0.50488355,0,0,0.50488355,-298.58494,65.719192)"
       inkscape:export-filename="..\..\..\..\..\xampp\htdocs\hotelbelensate.com\_\media\image\brand\logo.webp"
       inkscape:export-xdpi="96"
       inkscape:export-ydpi="96"><tspan
         x="745.42004"
         y="170.65226"
         id="tspan14"><tspan
           style="font-weight:900;font-family:Raleway;-inkscape-font-specification:'Raleway Heavy'"
           id="tspan13">Belensate</tspan></tspan></text>
    <path
       id="path378"
       clip-path="url(#clipPath3)"
       style="fill:#000000;fill-opacity:1;fill-rule:nonzero;stroke:none;stroke-width:1.68079;stroke-opacity:1"
       d="m -147.75492,86.887159 c 2.946,-10.37999 10.60834,-18.773153 20.52833,-22.702149 3.93499,-1.556998 8.22191,-2.418457 12.71191,-2.418457 h 4.9292 16.718261 1.543945 0.577149 13.491211 3.203613 4.831055 3.133301 v 0.03516 h 9.364746 c 0.596,-0.053 1.198181,-0.09406 1.78418,-0.164062 3.118997,-0.36 6.092222,-0.947181 8.824219,-1.78418 10.21899,-3.128997 17.291665,-9.329515 17.680665,-16.520508 0.138999,-0.521 0.261308,-1.042778 0.341308,-1.571778 0.129,-0.785999 0.199219,-1.588485 0.199219,-2.396484 0,-1.654751 -0.298614,-3.264216 -0.814453,-4.819336 -2.085907,0.38632 -4.235074,0.593262 -6.432129,0.593262 h -0.06152 c -0.521999,0.02 -1.037129,0.05273 -1.557129,0.05273 h -1.335937 -0.06592 -19.053223 -21.162598 -4.853028 -3.938965 -21.37354 -15.15234 c 2.946,-10.37899 10.60879,-18.770688 20.52978,-22.700684 3.934002,-1.557999 8.22046,-2.419922 12.710456,-2.419922 h 4.930664 16.713867 1.54834 0.575684 13.489746 3.205078 4.831055 3.131836 v 0.03662 h 9.366211 c 0.596,-0.054 1.200181,-0.09553 1.78418,-0.1655274 3.118997,-0.3589996 6.093687,-0.9461805 8.825684,-1.7841797 10.22099,-3.1279969 17.2882,-9.3280506 17.6791996,-16.5190434 0.1369999,-0.5199995 0.2627736,-1.0427779 0.3427735,-1.5717774 0.1269999,-0.7879991 0.1962891,-1.5874851 0.1962891,-2.3964841 0,-1.920998 -0.3804773,-3.784873 -1.0634766,-5.567872 -0.036,-0.078 -0.056891,-0.160769 -0.087891,-0.238769 -0.7129992,-1.769998 -1.7501303,-3.449021 -3.0571289,-5.02002 l 0.029297,-0.03809 c 3.1719969,3.813997 5.5523296,8.318236 6.8613283,13.2612311 0.74599928,2.8259972 1.14990239999,5.7944486 1.14990239999,8.8564456 0,0.15199981 -0.0111836,0.299172 -0.01318359,0.45117185 0.002,0.20699979 0.01318359,0.4144885 0.01318359,0.625488293749 C -5.1750001e-4,13.309937 -7.4060054,24.89282 -18.313995,30.859814 c -0.041,0.02 -0.07905,0.03852 -0.123046,0.06152 -0.004,0.004 -0.01211,0.0043 -0.01611,0.0073 -2.982263,1.612164 -6.227163,2.797114 -9.648926,3.493652 1.226543,2.304314 2.207138,4.759748 2.890137,7.338867 0.745999,2.826998 1.151367,5.795914 1.151367,8.857911 0,0.152 -0.01411,0.299637 -0.01611,0.452636 0.002,0.206 0.01611,0.413559 0.01611,0.622559 0,13.311987 -7.405488,24.894335 -18.313477,30.861329 -0.041,0.021 -0.08205,0.03706 -0.123047,0.06006 -0.004,0.003 -0.01504,0.0063 -0.01904,0.0073 -4.964995,2.683997 -10.647041,4.209961 -16.686035,4.209961 h -0.06006 c -0.519999,0.021 -1.035664,0.0542 -1.555664,0.0542 h -1.335937 -0.06738 -19.051758 -21.164059 -4.85303 -3.93897 -21.37207 z"
       transform="matrix(0.20988763,0,0,-0.20988763,70.69943,155.2907)"
       inkscape:export-filename="..\..\..\..\..\xampp\htdocs\hotelbelensate.com\_\media\image\brand\favicon.webp"
       inkscape:export-xdpi="96"
       inkscape:export-ydpi="96" />
    <text
       xml:space="preserve"
       id="text379"
       style="font-size:12.4714px;line-height:11.2243px;font-family:'Reem Kufi';-inkscape-font-specification:'Reem Kufi';text-align:center;letter-spacing:10.9549px;word-spacing:0px;white-space:pre;shape-inside:url(#rect388);display:inline;fill:#000000;fill-opacity:1;stroke:none;stroke-width:1.35463;stroke-opacity:1"
       transform="matrix(0.39063406,0,0,0.39063406,-202.50471,99.752798)"><tspan
         x="723.42525"
         y="149.98707"
         id="tspan16"><tspan
           style="font-weight:900;font-family:Raleway;-inkscape-font-specification:'Raleway Heavy'"
           id="tspan15">HOTEL GALERÍA</tspan></tspan></text>
  </g>
</svg>
