<?xml version="1.0" encoding="UTF-8" standalone="no"?>
<!-- Created with Inkscape (http://www.inkscape.org/) -->

<svg
   width="17.931087mm"
   height="11.047533mm"
   viewBox="0 0 17.931087 11.047533"
   version="1.1"
   id="svg1"
   xmlns:inkscape="http://www.inkscape.org/namespaces/inkscape"
   xmlns:sodipodi="http://sodipodi.sourceforge.net/DTD/sodipodi-0.dtd"
   xmlns="http://www.w3.org/2000/svg"
   xmlns:svg="http://www.w3.org/2000/svg">
  <sodipodi:namedview
     id="namedview1"
     pagecolor="#ffffff"
     bordercolor="#000000"
     borderopacity="0.25"
     inkscape:showpageshadow="2"
     inkscape:pageopacity="0.0"
     inkscape:pagecheckerboard="0"
     inkscape:deskcolor="#d1d1d1"
     inkscape:document-units="mm" />
  <defs
     id="defs1" />
  <g
     inkscape:label="Layer 1"
     inkscape:groupmode="layer"
     id="layer1"
     transform="translate(-67.159326,-145.98872)">
    <path
       id="rect412"
       style="fill:#000000;fill-opacity:1;stroke-width:0.763373;stroke-linecap:round"
       d="m 67.222495,145.98872 c -0.03511,0 -0.06317,0.0287 -0.06317,0.064 v 10.92032 c 0,0.0351 0.02806,0.0632 0.06317,0.0632 h 17.804717 c 0.0351,0 0.0632,-0.0281 0.0632,-0.0632 v -10.92032 c 0,-0.0351 -0.0281,-0.064 -0.0632,-0.064 z m 1.988076,2.11727 h 2.510347 v 1.84995 h -2.510347 z m 4.554089,0 h 8.742582 v 6.81361 H 73.76466 Z m -4.499115,2.71857 c 0.0027,-2.1e-4 0.004,0 0.0066,0 h 0.277626 c 0.01902,0 0.03551,0.008 0.04668,0.0219 0.0093,0.0106 0.01436,0.0243 0.01436,0.0392 v 0.26389 c 0,0.0318 -0.02407,0.058 -0.05492,0.0612 -0.0027,2.1e-4 -0.004,0 -0.0066,0 h -0.277625 c -0.03391,0 -0.06117,-0.0273 -0.06117,-0.0612 v -0.26389 c 0,-0.0318 0.02407,-0.058 0.05492,-0.0612 z m 0.53327,0 c 0.0027,-2.1e-4 0.004,0 0.0066,0 h 0.277626 c 0.01902,0 0.03551,0.008 0.04668,0.0219 0.0093,0.0106 0.01436,0.0243 0.01436,0.0392 v 0.26389 c 0,0.0318 -0.02407,0.058 -0.05492,0.0612 -0.0027,2.1e-4 -0.004,0 -0.0066,0 h -0.277629 c -0.0027,0 -0.004,2.1e-4 -0.0066,0 -0.03099,-0.003 -0.05492,-0.0294 -0.05492,-0.0612 v -0.26389 c 0,-0.0297 0.02088,-0.0548 0.0488,-0.0605 0.0027,-3.5e-4 0.004,-3.5e-4 0.0066,-7e-4 z m 0.522272,0 c 0.0027,-2.1e-4 0.004,0 0.0066,0 h 0.276948 c 0.03391,0 0.06184,0.0273 0.06184,0.0612 v 0.26389 c 0,0.0297 -0.02154,0.0541 -0.04947,0.0598 -0.0027,3.6e-4 -0.004,0.001 -0.0053,0.001 -0.0027,2.1e-4 -0.0053,0 -0.0066,0 H 70.32817 c -0.0027,0 -0.004,2.1e-4 -0.0066,0 -0.03098,-0.003 -0.05492,-0.0294 -0.05492,-0.0612 v -0.26389 c 0,-0.0297 0.02088,-0.0548 0.0488,-0.0605 0.0027,-3.5e-4 0.004,-3.5e-4 0.0066,-7e-4 z m 0.522286,0 c 0.0027,-2.1e-4 0.004,0 0.0066,0 h 0.276947 c 0.03391,0 0.06117,0.0273 0.06117,0.0612 v 0.26389 c 0,0.0339 -0.02726,0.0612 -0.06117,0.0612 h -0.276898 c -0.0027,0 -0.004,2.1e-4 -0.0066,0 -0.03099,-0.003 -0.05492,-0.0294 -0.05492,-0.0612 v -0.26389 c 0,-0.0297 0.02088,-0.0548 0.0488,-0.0605 0.0027,-3.5e-4 0.004,-3.5e-4 0.0066,-7e-4 z m 0.532578,0 c 0.0027,-2.1e-4 0.0053,0 0.0066,0 h 0.276934 c 0.03391,0 0.06117,0.0273 0.06117,0.0612 v 0.26389 c 0,0.0339 -0.02726,0.0612 -0.06117,0.0612 h -0.276934 c -0.0027,0 -0.0053,2.1e-4 -0.0066,0 -0.03099,-0.003 -0.05426,-0.0294 -0.05426,-0.0612 v -0.26389 c 0,-0.0297 0.02088,-0.0548 0.0488,-0.0605 0.0027,-3.5e-4 0.004,-3.5e-4 0.0053,-7e-4 z m -2.110406,0.58069 c 0.0027,-2.1e-4 0.004,0 0.0066,0 h 0.277626 c 0.01902,0 0.03551,0.008 0.04668,0.0219 0.0093,0.0106 0.01436,0.0243 0.01436,0.0391 v 0.26458 c 0,0.0339 -0.02726,0.0612 -0.06117,0.0612 h -0.277626 c -0.03391,0 -0.06117,-0.0273 -0.06117,-0.0612 v -0.26458 c 0,-0.0318 0.02407,-0.0581 0.05492,-0.0612 z m 0.53327,0 c 0.0027,-2.1e-4 0.004,0 0.0066,0 h 0.277626 c 0.01902,0 0.03551,0.008 0.04668,0.0219 0.0093,0.0106 0.01436,0.0243 0.01436,0.0391 v 0.26458 c 0,0.0339 -0.02726,0.0612 -0.06117,0.0612 h -0.277899 c -0.03391,0 -0.06117,-0.0273 -0.06117,-0.0612 v -0.26458 c 0,-0.0275 0.01769,-0.0507 0.04255,-0.0584 0.004,-0.001 0.008,-0.003 0.01197,-0.003 z m 0.522272,0 c 0.0027,-2.1e-4 0.004,0 0.0066,0 h 0.276948 c 0.004,-1e-5 0.008,6.9e-4 0.01197,0.001 0.02793,0.005 0.04947,0.0301 0.04947,0.0598 v 0.26458 c 0,0.0339 -0.02793,0.0612 -0.06184,0.0612 h -0.276948 c -0.03391,0 -0.06117,-0.0273 -0.06117,-0.0612 v -0.26458 c 0,-0.0275 0.01769,-0.0507 0.04255,-0.0584 0.004,-10e-4 0.008,-0.003 0.01197,-0.003 z m 0.522286,0 c 0.0027,-2.1e-4 0.004,0 0.0066,0 h 0.276947 c 0.02753,-1e-5 0.05067,0.0183 0.05838,0.0432 0.0013,0.005 0.0027,0.012 0.0027,0.0178 v 0.26458 c 0,0.0339 -0.02726,0.0612 -0.06117,0.0612 h -0.276947 c -0.03391,0 -0.06117,-0.0273 -0.06117,-0.0612 v -0.26458 c 0,-0.0275 0.01769,-0.0507 0.04255,-0.0584 0.004,-0.001 0.008,-0.003 0.01197,-0.003 z m 0.532578,0 c 0.0027,-2.1e-4 0.0053,0 0.0066,0 h 0.276934 c 0.02753,-1e-5 0.05067,0.0183 0.05838,0.0432 0.0013,0.005 0.0027,0.012 0.0027,0.0178 v 0.26458 c 0,0.0339 -0.02726,0.0612 -0.06117,0.0612 h -0.276934 c -0.03391,0 -0.06117,-0.0273 -0.06117,-0.0612 v -0.26458 c 0,-0.0275 0.01769,-0.0507 0.04255,-0.0584 0.004,-0.001 0.008,-0.003 0.01197,-0.003 z m -2.104222,0.58068 h 0.277639 c 0.01902,0 0.03551,0.009 0.04668,0.0226 0.0093,0.0106 0.01436,0.0243 0.01436,0.0392 v 0.26387 c 0,0.0318 -0.02407,0.058 -0.05492,0.0612 -0.0027,1.9e-4 -0.004,0 -0.0066,0 h -0.277626 c -0.03391,-1e-5 -0.06117,-0.0273 -0.06117,-0.0612 v -0.26387 c 0,-0.0339 0.02726,-0.0618 0.06117,-0.0618 z m 0.533283,0 h 0.277626 c 0.01902,0 0.03551,0.009 0.04668,0.0226 0.0093,0.0106 0.01436,0.0243 0.01436,0.0392 v 0.26387 c 0,0.0318 -0.02407,0.058 -0.05492,0.0612 -0.0027,1.9e-4 -0.004,0 -0.0066,0 h -0.277639 c -0.0027,0 -0.004,1.9e-4 -0.0066,0 -0.03099,-0.003 -0.05492,-0.0294 -0.05492,-0.0612 v -0.26387 c 0,-0.0297 0.02088,-0.0548 0.04881,-0.0605 0.004,-7.1e-4 0.008,-0.001 0.01197,-0.001 z m 0.522259,0 h 0.276947 c 0.03391,0 0.06184,0.0279 0.06184,0.0618 v 0.26388 c 0,0.0297 -0.02154,0.0541 -0.04947,0.0599 -0.0027,3.5e-4 -0.004,0.001 -0.0053,0.001 -0.0027,1.9e-4 -0.0053,0 -0.0066,0 h -0.276947 c -0.0027,0 -0.004,1.9e-4 -0.0066,0 -0.03099,-0.003 -0.05492,-0.0294 -0.05492,-0.0612 v -0.26388 c 0,-0.0297 0.02088,-0.0548 0.04881,-0.0605 0.004,-7.1e-4 0.008,-0.001 0.01197,-0.001 z m 0.522285,0 h 0.276934 c 0.03391,0 0.06117,0.0279 0.06117,0.0618 v 0.26388 c 0,0.0339 -0.02726,0.0612 -0.06117,0.0612 h -0.276934 c -0.0027,0 -0.004,1.8e-4 -0.0066,0 -0.03099,-0.003 -0.05492,-0.0294 -0.05492,-0.0612 v -0.26388 c 0,-0.0297 0.02088,-0.0548 0.0488,-0.0605 0.004,-7.1e-4 0.008,-0.001 0.01197,-0.001 z m 0.533257,0 h 0.276947 c 0.03391,0 0.06117,0.0279 0.06117,0.0618 v 0.26388 c 0,0.0339 -0.02726,0.0612 -0.06117,0.0612 h -0.276947 c -0.0027,0 -0.0053,1.8e-4 -0.0066,0 -0.03098,-0.003 -0.05426,-0.0294 -0.05426,-0.0612 v -0.26388 c 0,-0.0318 0.02341,-0.058 0.05426,-0.0612 0.0027,-2.1e-4 0.0053,-7e-4 0.0066,-7e-4 z m -2.117268,0.58137 c 0.0027,-2e-4 0.004,0 0.0066,0 h 0.277626 c 0.01902,0 0.03551,0.008 0.04668,0.0219 0.0093,0.0106 0.01436,0.0243 0.01436,0.0391 v 0.26389 c 0,0.0339 -0.02726,0.0618 -0.06117,0.0618 h -0.277626 c -0.03391,0 -0.06117,-0.0279 -0.06117,-0.0618 v -0.26389 c 0,-0.0318 0.02407,-0.058 0.05492,-0.0612 z m 0.53327,0 c 0.0027,-2e-4 0.004,0 0.0066,0 h 0.277626 c 0.01902,0 0.03551,0.008 0.04668,0.0219 0.0093,0.0106 0.01436,0.0243 0.01436,0.0391 v 0.26389 c 0,0.0339 -0.02726,0.0618 -0.06117,0.0618 h -0.277899 c -0.03391,0 -0.06117,-0.0279 -0.06117,-0.0618 v -0.26389 c 0,-0.0275 0.01769,-0.0507 0.04255,-0.0584 0.004,-10e-4 0.008,-0.003 0.01197,-0.003 z m 0.522272,0 c 0.0027,-2e-4 0.004,0 0.0066,0 h 0.276948 c 0.004,0 0.008,7e-4 0.01197,0.001 0.02793,0.005 0.04947,0.0301 0.04947,0.0598 v 0.26389 c 0,0.0339 -0.02793,0.0618 -0.06184,0.0618 h -0.276948 c -0.03391,0 -0.06117,-0.0279 -0.06117,-0.0618 v -0.26389 c 0,-0.0275 0.01769,-0.0507 0.04255,-0.0584 0.004,-0.001 0.008,-0.003 0.01197,-0.003 z m 0.522286,0 c 0.0027,-2e-4 0.004,0 0.0066,0 h 0.276947 c 0.03391,0 0.06117,0.0273 0.06117,0.0612 v 0.26389 c 0,0.0339 -0.02726,0.0618 -0.06117,0.0618 h -0.276898 c -0.03391,0 -0.06117,-0.0279 -0.06117,-0.0618 v -0.26389 c 0,-0.0275 0.01769,-0.0507 0.04255,-0.0584 0.004,-0.001 0.008,-0.003 0.01197,-0.003 z m 0.532578,0 c 0.0027,-2e-4 0.0053,0 0.0066,0 h 0.276934 c 0.03391,0 0.06117,0.0273 0.06117,0.0612 v 0.26389 c 0,0.0339 -0.02726,0.0618 -0.06117,0.0618 h -0.276934 c -0.03391,0 -0.06117,-0.0279 -0.06117,-0.0618 v -0.26389 c 0,-0.0275 0.01769,-0.0507 0.04255,-0.0584 0.004,-0.001 0.008,-0.003 0.01197,-0.003 z m -2.104222,0.58069 h 0.277639 c 0.01902,0 0.03551,0.009 0.04668,0.0226 0.0093,0.0106 0.01436,0.0237 0.01436,0.0384 v 0.26456 c 0,0.0318 -0.02407,0.058 -0.05492,0.0612 -0.0027,2.1e-4 -0.004,0 -0.0066,0 h -0.277626 c -0.03391,0 -0.06117,-0.0273 -0.06117,-0.0612 v -0.26456 c 0,-0.0339 0.02726,-0.0612 0.06117,-0.0612 z m 0.533283,0 h 0.277626 c 0.01489,0 0.02793,0.005 0.03843,0.0145 0.01356,0.0106 0.02274,0.0277 0.02274,0.0467 v 0.26457 c 0,0.0318 -0.02407,0.058 -0.05492,0.0612 -0.0027,2.1e-4 -0.004,0 -0.0066,0 h -0.277276 c -0.0027,0 -0.004,2.1e-4 -0.0066,0 -0.03098,-0.003 -0.05492,-0.0294 -0.05492,-0.0612 v -0.26457 c 0,-0.0297 0.02088,-0.0541 0.0488,-0.0598 0.004,-7.1e-4 0.008,-0.001 0.01197,-0.001 z m 0.522259,0 h 0.276947 c 0.03391,0 0.06184,0.0273 0.06184,0.0612 v 0.26457 c 0,0.0297 -0.02154,0.0541 -0.04947,0.0598 -0.0027,3.6e-4 -0.004,0.001 -0.0053,0.001 -0.0027,2.1e-4 -0.0053,0 -0.0066,0 h -0.276947 c -0.0027,0 -0.004,2.1e-4 -0.0066,0 -0.03099,-0.003 -0.05492,-0.0294 -0.05492,-0.0612 v -0.26458 c 0,-0.0297 0.02088,-0.0541 0.04881,-0.0598 0.004,-7.1e-4 0.008,-0.001 0.01197,-0.001 z m 0.522285,0 h 0.276934 c 0.03391,0 0.06117,0.0273 0.06117,0.0612 v 0.26457 c 0,0.007 -0.0011,0.012 -0.0027,0.0178 -0.0066,0.023 -0.02753,0.0408 -0.05226,0.0434 -0.0027,2.1e-4 -0.004,0 -0.0066,0 h -0.276935 c -0.0027,0 -0.004,2.1e-4 -0.0066,0 -0.03098,-0.003 -0.05492,-0.0294 -0.05492,-0.0612 v -0.26457 c 0,-0.0297 0.02088,-0.0541 0.0488,-0.0598 0.004,-7.1e-4 0.008,-0.001 0.01197,-0.001 z m 0.533257,0 h 0.276947 c 0.03391,0 0.06117,0.0273 0.06117,0.0612 v 0.26457 c 0,0.007 -0.0011,0.012 -0.0027,0.0178 -0.0066,0.023 -0.02753,0.0408 -0.05226,0.0434 -0.0027,2.1e-4 -0.004,0 -0.0066,0 h -0.276947 c -0.0027,0 -0.0053,2.1e-4 -0.0066,0 -0.03099,-0.003 -0.05426,-0.0294 -0.05426,-0.0612 v -0.26457 c 0,-0.0318 0.02341,-0.0573 0.05426,-0.0605 0.0027,-2.1e-4 0.0053,-7e-4 0.0066,-7e-4 z m -2.172242,1.10707 h 2.510347 v 0.65285 h -2.510347 z" />
  </g>
</svg>
