<?xml version="1.0" encoding="UTF-8" standalone="no"?>
<!-- Created with Inkscape (http://www.inkscape.org/) -->

<svg
   width="17.93202mm"
   height="11.047517mm"
   viewBox="0 0 17.93202 11.047517"
   version="1.1"
   id="svg1"
   xmlns:inkscape="http://www.inkscape.org/namespaces/inkscape"
   xmlns:sodipodi="http://sodipodi.sourceforge.net/DTD/sodipodi-0.dtd"
   xmlns="http://www.w3.org/2000/svg"
   xmlns:svg="http://www.w3.org/2000/svg">
  <sodipodi:namedview
     id="namedview1"
     pagecolor="#ffffff"
     bordercolor="#000000"
     borderopacity="0.25"
     inkscape:showpageshadow="2"
     inkscape:pageopacity="0.0"
     inkscape:pagecheckerboard="0"
     inkscape:deskcolor="#d1d1d1"
     inkscape:document-units="mm" />
  <defs
     id="defs1" />
  <g
     inkscape:label="Layer 1"
     inkscape:groupmode="layer"
     id="layer1"
     transform="translate(-98.802073,-145.84579)">
    <path
       id="rect147"
       style="fill:#000000;fill-opacity:1;stroke-width:0.763373;stroke-linecap:round"
       d="m 98.866077,145.84578 c -0.0351,0 -0.064,0.0281 -0.064,0.0632 v 10.92032 c 0,0.0351 0.0287,0.064 0.064,0.064 H 116.6701 c 0.0351,0 0.064,-0.0287 0.064,-0.064 v -10.92032 c 0,-0.0351 -0.0287,-0.0632 -0.064,-0.0632 z m 2.293883,2.36741 h 0.5367 c 0.0657,0 0.11889,0.0533 0.11889,0.11888 v 0.51129 c 0,0.0657 -0.0532,0.11822 -0.11889,0.11822 h -0.5367 c -0.0657,0 -0.11822,-0.0525 -0.11822,-0.11822 v -0.51129 c 0,-0.0657 0.0525,-0.11888 0.11822,-0.11888 z m 1.27957,0 h 0.53671 c 0.0657,0 0.11889,0.0533 0.11889,0.11888 v 0.51129 c 0,0.0657 -0.0532,0.11822 -0.11889,0.11822 h -0.53671 c -0.0657,0 -0.11823,-0.0525 -0.11823,-0.11822 v -0.51129 c 0,-0.0616 0.0459,-0.1121 0.10586,-0.11822 0.004,-3.4e-4 0.008,-7e-4 0.012,-7e-4 z m 1.27957,0 h 0.5367 c 0.0657,0 0.11889,0.0533 0.11889,0.11888 v 0.51129 c 0,0.0657 -0.0532,0.11822 -0.11889,0.11822 h -0.5367 c -0.0657,0 -0.11822,-0.0525 -0.11822,-0.11822 v -0.51129 c 0,-0.0616 0.0459,-0.1121 0.10585,-0.11822 0.004,-3.4e-4 0.008,-7e-4 0.012,-7e-4 z m 2.48768,0 h 0.77171 c 0.0259,0 0.0467,0.0209 0.0467,0.0467 v 6.21849 c 0,0.0258 -0.0209,0.0467 -0.0467,0.0467 h -0.77171 c -0.0259,0 -0.0467,-0.0209 -0.0467,-0.0467 v -6.21849 c 0,-0.0259 0.0209,-0.0467 0.0467,-0.0467 z m 7.307,0.50922 0.71058,0.71332 -0.79716,0.7889 a 2.320982,2.2733084 0 0 0 -0.0241,-0.033 2.320982,2.2733084 0 0 1 0.35323,1.20123 2.320982,2.2733084 0 0 1 -0.31407,1.13182 l 0.78204,0.77448 -0.71194,0.71743 -0.76211,-0.75523 a 2.320982,2.2733084 0 0 1 -1.31461,0.40476 2.320982,2.2733084 0 0 1 -1.16756,-0.31405 l -0.66864,0.66178 -0.71056,-0.71469 0.63291,-0.62673 a 2.320982,2.2733084 0 0 1 -0.40683,-1.27957 2.320982,2.2733084 0 0 1 0.435,-1.316 2.320982,2.2733084 0 0 0 -0.007,0.008 l -0.65422,-0.64803 0.71195,-0.71331 0.70025,0.6927 a 2.320982,2.2733084 0 0 1 1.13457,-0.29687 2.320982,2.2733084 0 0 1 1.38265,0.45424 2.320982,2.2733084 0 0 0 -0.0935,-0.0708 z m -12.35382,0.88167 h 0.5367 c 0.0657,0 0.11889,0.0533 0.11889,0.11889 v 0.51128 c 0,0.0657 -0.0532,0.11823 -0.11889,0.11823 h -0.5367 c -0.0657,0 -0.11822,-0.0525 -0.11822,-0.11823 v -0.51128 c 0,-0.0656 0.0525,-0.11889 0.11822,-0.11889 z m 1.27957,0 h 0.53671 c 0.0657,0 0.11889,0.0533 0.11889,0.11889 v 0.51128 c 0,0.0657 -0.0532,0.11823 -0.11889,0.11823 h -0.53671 c -0.0657,0 -0.11823,-0.0525 -0.11823,-0.11823 v -0.51128 c 0,-0.0616 0.0459,-0.11211 0.10586,-0.11822 0.004,-3.5e-4 0.008,-7.1e-4 0.012,-7.1e-4 z m 1.27957,0 h 0.5367 c 0.0657,0 0.11889,0.0533 0.11889,0.11889 v 0.51128 c 0,0.0657 -0.0532,0.11823 -0.11889,0.11823 h -0.5367 c -0.0657,0 -0.11822,-0.0525 -0.11822,-0.11823 v -0.51128 c 0,-0.0616 0.0459,-0.11211 0.10585,-0.11822 0.004,-3.5e-4 0.008,-7.1e-4 0.012,-7.1e-4 z m 7.71659,0.68996 a 1.0987575,1.0987575 0 0 0 -1.09884,1.09883 1.0987575,1.0987575 0 0 0 1.09884,1.09884 1.0987575,1.0987575 0 0 0 1.09883,-1.09884 1.0987575,1.0987575 0 0 0 -1.09883,-1.09883 z m -10.27573,0.70095 h 0.5367 c 0.0657,0 0.11889,0.0532 0.11889,0.11888 v 0.51128 c 0,0.0657 -0.0532,0.11822 -0.11889,0.11822 h -0.5367 c -0.0657,0 -0.11822,-0.0525 -0.11822,-0.11822 v -0.51128 c 0,-0.0657 0.0525,-0.11888 0.11822,-0.11888 z m 1.27957,0 h 0.53671 c 0.0657,0 0.11889,0.0532 0.11889,0.11888 v 0.51128 c 0,0.0657 -0.0532,0.11822 -0.11889,0.11822 h -0.53671 c -0.0657,0 -0.11823,-0.0525 -0.11823,-0.11822 v -0.51128 c 0,-0.0616 0.0459,-0.1121 0.10586,-0.11822 0.004,-3.4e-4 0.008,-7e-4 0.012,-7e-4 z m 1.27957,0 h 0.5367 c 0.0657,0 0.11889,0.0532 0.11889,0.11888 v 0.51128 c 0,0.0657 -0.0532,0.11822 -0.11889,0.11822 h -0.5367 c -0.0657,0 -0.11822,-0.0525 -0.11822,-0.11822 v -0.51128 c 0,-0.0616 0.0459,-0.1121 0.10585,-0.11822 0.004,-3.4e-4 0.008,-7e-4 0.012,-7e-4 z m -2.55914,1.39089 h 0.5367 c 0.0657,0 0.11889,0.0532 0.11889,0.11889 v 0.51127 c 0,0.0657 -0.0532,0.11822 -0.11889,0.11822 h -0.5367 c -0.0657,0 -0.11822,-0.0525 -0.11822,-0.11822 v -0.51127 c 0,-0.0657 0.0525,-0.11889 0.11822,-0.11889 z m 1.27957,0 h 0.53671 c 0.0657,0 0.11889,0.0532 0.11889,0.11889 v 0.51127 c 0,0.0657 -0.0532,0.11822 -0.11889,0.11822 h -0.53671 c -0.0657,0 -0.11823,-0.0525 -0.11823,-0.11822 v -0.51127 c 0,-0.0616 0.0459,-0.1121 0.10586,-0.11822 0.004,-3.5e-4 0.008,-7.1e-4 0.012,-7.1e-4 z m 1.27957,0 h 0.5367 c 0.0657,0 0.11889,0.0532 0.11889,0.11889 v 0.51127 c 0,0.0657 -0.0532,0.11822 -0.11889,0.11822 h -0.5367 c -0.0657,0 -0.11822,-0.0525 -0.11822,-0.11822 v -0.51127 c 0,-0.0616 0.0459,-0.1121 0.10585,-0.11822 0.004,-3.5e-4 0.008,-7.1e-4 0.012,-7.1e-4 z m -2.55914,1.3909 h 0.5367 c 0.0657,0 0.11889,0.0525 0.11889,0.11822 v 0.51127 c 0,0.0657 -0.0532,0.11889 -0.11889,0.11889 h -0.5367 c -0.0657,0 -0.11822,-0.0532 -0.11822,-0.11889 V 153.895 c 0,-0.0656 0.0525,-0.11822 0.11822,-0.11822 z m 1.27957,0 h 0.53671 c 0.0657,0 0.11889,0.0525 0.11889,0.11822 v 0.51127 c 0,0.0657 -0.0532,0.11889 -0.11889,0.11889 h -0.53671 c -0.0657,0 -0.11823,-0.0532 -0.11823,-0.11889 V 153.895 c 0,-0.0616 0.0459,-0.11144 0.10586,-0.11756 0.004,-3.4e-4 0.008,-7e-4 0.012,-7e-4 z m 1.27957,0 h 0.5367 c 0.0657,0 0.11889,0.0525 0.11889,0.11822 v 0.51127 c 0,0.0657 -0.0532,0.11889 -0.11889,0.11889 h -0.5367 c -0.0657,0 -0.11822,-0.0532 -0.11822,-0.11889 V 153.895 c 0,-0.0616 0.0459,-0.11144 0.10585,-0.11756 0.004,-3.4e-4 0.008,-7e-4 0.012,-7e-4 z" />
  </g>
</svg>
