<?xml version="1.0" encoding="UTF-8" standalone="no"?>
<!-- Created with Inkscape (http://www.inkscape.org/) -->

<svg
   width="17.154621mm"
   height="19.763231mm"
   viewBox="0 0 17.154621 19.763231"
   version="1.1"
   id="svg1"
   xmlns="http://www.w3.org/2000/svg"
   xmlns:svg="http://www.w3.org/2000/svg">
  <defs
     id="defs1" />
  <g
     id="layer1"
     transform="translate(-130.0781,-66.140005)">
    <g
       id="g730"
       transform="matrix(0.35184724,0,0,0.35184724,210.99334,-86.525963)"
       style="stroke-width:0.751984">
      <path
         id="path43"
         style="fill:#000000;stroke-width:2.13552;stroke-linecap:round"
         d="m -214.88086,439.37109 c -1.36856,0.56139 -2.67312,1.24171 -3.90234,2.03125 v 41.03907 c 1.22922,0.78953 2.53378,1.46987 3.90234,2.03125 z m 18.71289,0.0606 v 44.98047 c 1.31687,-0.55012 2.57502,-1.20848 3.76172,-1.9707 v -41.03907 c -1.1867,-0.76223 -2.44485,-1.42057 -3.76172,-1.9707 z m -24.21289,3.08594 c -1.47314,1.12241 -2.81522,2.40763 -3.99609,3.83203 v 31.14453 c 1.18087,1.42439 2.52295,2.70961 3.99609,3.83203 z m 29.57227,0 v 38.80859 c 1.47311,-1.12242 2.81522,-2.40764 3.99609,-3.83203 v -31.14453 c -1.18087,-1.4244 -2.52298,-2.70962 -3.99609,-3.83203 z m -35.16797,6.00195 c -2.52493,3.84165 -3.9961,8.44223 -3.9961,13.40235 0,4.96008 1.47117,9.56266 3.9961,13.40429 z m 40.76367,0 v 26.80664 c 2.52493,-3.84163 3.99609,-8.44421 3.99609,-13.40429 0,-4.96012 -1.47116,-9.5607 -3.99609,-13.40235 z" />
      <path
         id="rect45"
         style="fill:#000000;fill-opacity:1;stroke-width:2.13552;stroke-linecap:round"
         d="m -205.63086,433.89844 c -3.89443,0 -7.03125,3.30953 -7.03125,7.41992 v 41.33008 c 0,4.11039 3.13682,7.41992 7.03125,7.41992 3.89443,0 7.0293,-3.30953 7.0293,-7.41992 v -41.33008 c 0,-4.11039 -3.13487,-7.41992 -7.0293,-7.41992 z m 0,2.45898 c 2.757,0 4.97656,2.33513 4.97656,5.23633 v 40.83984 c 0,2.90121 -2.21956,5.23633 -4.97656,5.23633 -2.75699,0 -4.97656,-2.33512 -4.97656,-5.23633 v -40.83984 c 0,-2.9012 2.21957,-5.23633 4.97656,-5.23633 z" />
      <path
         id="rect47"
         style="fill:#000101;fill-opacity:1;stroke-width:2.13552;stroke-linecap:round"
         d="m -206.50977,440.24219 v 39.89258 a 3.178678,3.178678 0 0 0 -2.11132,2.98632 3.178678,3.178678 0 0 0 3.17773,3.17774 3.178678,3.178678 0 0 0 3.17969,-3.17774 3.178678,3.178678 0 0 0 -2.11328,-2.99414 v -39.88476 z m -4.09765,2.04492 v 2.40234 h 2.01562 v -2.40234 z m 0,5.65625 v 2.40039 h 2.01562 v -2.40039 z m 0,5.6543 V 456 h 2.01562 v -2.40234 z m 0,5.65625 v 2.40039 h 2.01562 v -2.40039 z m 0,5.65625 v 2.40039 h 2.01562 v -2.40039 z m 0,5.65429 v 2.40235 h 2.01562 v -2.40235 z m 0,5.65625 v 2.40039 h 2.01562 v -2.40039 z" />
    </g>
  </g>
</svg>
