<?xml version="1.0" encoding="UTF-8" standalone="no"?>
<!-- Created with Inkscape (http://www.inkscape.org/) -->

<svg
   width="15.677652mm"
   height="11.578444mm"
   viewBox="0 0 15.677652 11.578444"
   version="1.1"
   id="svg1"
   xmlns="http://www.w3.org/2000/svg"
   xmlns:svg="http://www.w3.org/2000/svg">
  <defs
     id="defs1" />
  <g
     id="layer1"
     transform="translate(-34.541982,-69.594732)">
    <g
       id="g768"
       transform="matrix(0.35184724,0,0,0.35184724,210.99334,-86.525963)"
       style="stroke-width:0.751984">
      <ellipse
         style="fill:#000000;fill-opacity:1;stroke:none;stroke-width:3.8732;stroke-linecap:round;stroke-dasharray:none;stroke-opacity:1"
         id="ellipse311"
         cx="-479.22089"
         cy="473.40115"
         rx="3.174382"
         ry="3.2236965" />
      <path
         style="fill:#000000;fill-opacity:1;stroke:none;stroke-width:3.75993;stroke-dasharray:none;stroke-opacity:1"
         d="m -501.49991,453.78542 3.94522,4.04447 c 6.58009,-7.59215 13.55386,-8.30257 18.33383,-8.41934 l 2e-5,-5.69327 c -7.99005,0.0165 -16.14472,3.21019 -22.27907,10.06814 z"
         id="path720" />
      <path
         style="fill:#000000;fill-opacity:1;stroke:none;stroke-width:3.75993;stroke-dasharray:none;stroke-opacity:1"
         d="m -484.61125,471.0989 -3.88724,-3.9849 c 2.26651,-3.29666 5.90851,-4.91345 9.27765,-4.89248 l -2e-5,5.69193 c -2.27706,0.0137 -3.82075,0.37513 -5.39039,3.18545 z"
         id="path722" />
      <path
         style="fill:#000000;fill-opacity:1;stroke:none;stroke-width:3.75993;stroke-dasharray:none;stroke-opacity:1"
         d="m -495.00996,460.43859 3.90773,4.00606 c 3.44393,-4.39986 7.3409,-5.78575 11.88137,-5.78242 l 6e-5,-5.69149 c -3.47621,-0.0443 -10.5814,1.07491 -15.78916,7.46785 z"
         id="path727" />
      <path
         style="fill:#000000;fill-opacity:1;stroke:none;stroke-width:3.75993;stroke-dasharray:none;stroke-opacity:1"
         d="m -456.94179,453.78542 -3.94522,4.04447 c -6.58009,-7.59215 -13.55386,-8.30257 -18.33383,-8.41934 l -2e-5,-5.69327 c 7.99005,0.0165 16.14472,3.21019 22.27907,10.06814 z"
         id="path766" />
      <path
         style="fill:#000000;fill-opacity:1;stroke:none;stroke-width:3.75993;stroke-dasharray:none;stroke-opacity:1"
         d="m -473.83045,471.0989 3.88724,-3.9849 c -2.26651,-3.29666 -5.90851,-4.91345 -9.27765,-4.89248 l 2e-5,5.69193 c 2.27706,0.0137 3.82075,0.37513 5.39039,3.18545 z"
         id="path767" />
      <path
         style="fill:#000000;fill-opacity:1;stroke:none;stroke-width:3.75993;stroke-dasharray:none;stroke-opacity:1"
         d="m -463.43174,460.43859 -3.90773,4.00606 c -3.44393,-4.39986 -7.3409,-5.78575 -11.88137,-5.78242 l -6e-5,-5.69149 c 3.47621,-0.0443 10.5814,1.07491 15.78916,7.46785 z"
         id="path768" />
    </g>
  </g>
</svg>
