<?xml version="1.0" encoding="UTF-8" standalone="no"?>
<!-- Created with Inkscape (http://www.inkscape.org/) -->

<svg
   width="52.519409"
   height="52.519379"
   viewBox="0 0 52.519409 52.519381"
   version="1.1"
   id="svg1"
   inkscape:version="1.3.2 (091e20e, 2023-11-25, custom)"
   sodipodi:docname="icons.svg"
   xml:space="preserve"
   xmlns:inkscape="http://www.inkscape.org/namespaces/inkscape"
   xmlns:sodipodi="http://sodipodi.sourceforge.net/DTD/sodipodi-0.dtd"
   xmlns="http://www.w3.org/2000/svg"
   xmlns:svg="http://www.w3.org/2000/svg"><sodipodi:namedview
     id="namedview1"
     pagecolor="#ffffff"
     bordercolor="#000000"
     borderopacity="0.25"
     inkscape:showpageshadow="2"
     inkscape:pageopacity="0.0"
     inkscape:pagecheckerboard="0"
     inkscape:deskcolor="#d1d1d1"
     inkscape:document-units="px"
     inkscape:zoom="1.4142136"
     inkscape:cx="406.93995"
     inkscape:cy="285.67114"
     inkscape:window-width="1366"
     inkscape:window-height="697"
     inkscape:window-x="-8"
     inkscape:window-y="-8"
     inkscape:window-maximized="1"
     inkscape:current-layer="layer1" /><defs
     id="defs1"><style
       id="style1-9">.cls-1{fill:none;stroke:#020202;stroke-miterlimit:10;stroke-width:1.91px;}</style><style
       id="style1-7">.cls-1{fill-rule:evenodd;}</style></defs><g
     inkscape:label="Layer 1"
     inkscape:groupmode="layer"
     id="layer1"
     transform="translate(-550.65704,-205.58655)"><circle
       style="fill:#cccccc;fill-opacity:1;stroke:none;stroke-width:0.264583;stroke-linecap:round"
       id="circle14"
       cx="576.91675"
       cy="231.84624"
       r="26.259682" /><g
       style="fill:#000000;stroke-width:24.883"
       id="g152"
       transform="matrix(0.06279351,0,0,0.06279351,560.84161,215.7711)"><g
         id="g147"
         style="stroke-width:24.883">
	<g
   id="g146"
   style="stroke-width:24.883">
		<path
   d="M 88.084,0 C 77.056,0 64,4.972 64,16 V 448.248 C 64,459.276 77.056,472 88.084,472 H 248 V 0 Z m 138,252 c -7.72,0 -14,-6.28 -14,-14 0,-7.72 6.28,-14 14,-14 7.72,0 14,6.28 14,14 0,7.72 -6.28,14 -14,14 z"
   id="path145"
   style="stroke-width:24.883" />
	</g>
</g><g
         id="g149"
         style="stroke-width:24.883">
	<g
   id="g148"
   style="stroke-width:24.883">
		<path
   d="M 432.084,0 H 264 V 472 H 432.084 C 443.112,472 448,459.276 448,448.248 V 16 C 448,4.972 443.112,0 432.084,0 Z m -138,252 c -7.72,0 -14,-6.28 -14,-14 0,-7.72 6.28,-14 14,-14 7.72,0 14,6.28 14,14 0,7.72 -6.28,14 -14,14 z"
   id="path147"
   style="stroke-width:24.883" />
	</g>
</g><g
         id="g151"
         style="stroke-width:24.883">
	<g
   id="g150"
   style="stroke-width:24.883">
		<path
   d="m 80,488 v 16 c 0,8 0,8 8.084,8 H 425.668 C 432,512 432,512 432,504 v -16 z"
   id="path149"
   style="stroke-width:24.883" />
	</g>
</g></g></g><style
     type="text/css"
     id="style1">
	.st0{fill:#000000;}
</style><style
     type="text/css"
     id="style1-5">
	.st0{fill:#000000;}
</style><style
     type="text/css"
     id="style1-6">
	.st0{fill:#000000;}
</style><style
     type="text/css"
     id="style1-8">
	.st0{fill:none;stroke:#000000;stroke-width:2;stroke-linecap:round;stroke-linejoin:round;stroke-miterlimit:10;}
</style><style
     type="text/css"
     id="style1-92">
	.st0{opacity:0.2;fill:none;stroke:#000000;stroke-width:5.000000e-02;stroke-miterlimit:10;}
</style><style
     type="text/css"
     id="style1-62">
<![CDATA[
	.st0{fill:#000000;}
]]>
</style><style
     type="text/css"
     id="style1-77">
	.st0{fill:#000000;}
</style><style
     type="text/css"
     id="style1-91">
	.st0{fill:none;stroke:#000000;stroke-width:2;stroke-linecap:round;stroke-linejoin:round;stroke-miterlimit:10;}
</style><style
     type="text/css"
     id="style1-2">
	.st0{fill:#000000;}
</style></svg>
