<?xml version="1.0" encoding="UTF-8" standalone="no"?>
<!-- Created with Inkscape (http://www.inkscape.org/) -->

<svg
   width="52.519409"
   height="52.519379"
   viewBox="0 0 52.519409 52.519381"
   version="1.1"
   id="svg1"
   inkscape:version="1.3.2 (091e20e, 2023-11-25, custom)"
   sodipodi:docname="icons.svg"
   xml:space="preserve"
   xmlns:inkscape="http://www.inkscape.org/namespaces/inkscape"
   xmlns:sodipodi="http://sodipodi.sourceforge.net/DTD/sodipodi-0.dtd"
   xmlns="http://www.w3.org/2000/svg"
   xmlns:svg="http://www.w3.org/2000/svg"><sodipodi:namedview
     id="namedview1"
     pagecolor="#ffffff"
     bordercolor="#000000"
     borderopacity="0.25"
     inkscape:showpageshadow="2"
     inkscape:pageopacity="0.0"
     inkscape:pagecheckerboard="0"
     inkscape:deskcolor="#d1d1d1"
     inkscape:document-units="px"
     inkscape:zoom="1.4142136"
     inkscape:cx="406.93995"
     inkscape:cy="285.67114"
     inkscape:window-width="1366"
     inkscape:window-height="697"
     inkscape:window-x="-8"
     inkscape:window-y="-8"
     inkscape:window-maximized="1"
     inkscape:current-layer="layer1" /><defs
     id="defs1"><style
       id="style1-9">.cls-1{fill:none;stroke:#020202;stroke-miterlimit:10;stroke-width:1.91px;}</style><style
       id="style1-7">.cls-1{fill-rule:evenodd;}</style></defs><g
     inkscape:label="Layer 1"
     inkscape:groupmode="layer"
     id="layer1"
     transform="translate(-610.67907,-205.58655)"><circle
       style="fill:#cccccc;fill-opacity:1;stroke:none;stroke-width:0.264583;stroke-linecap:round"
       id="circle15"
       cx="636.93878"
       cy="231.84624"
       r="26.259682" /><path
       fill="#000000"
       d="m 624.9702,215.76122 4.16505,7.31731 h 15.50126 v -4.99248 z m 1.98846,8.60017 v 1.3969 h 18.31928 c 3.42097,0 5.85842,2.08821 7.35508,4.58267 1.35412,2.24501 2.0098,4.82499 2.13097,6.81342 h 1.43253 c -0.14966,-2.33766 -1.0833,-5.43078 -2.65124,-7.968 -1.71761,-2.77241 -4.1194,-4.82499 -6.98447,-4.82499 z m 0.94716,2.67976 c -0.22448,0.33497 -0.64143,1.07618 -1.05978,2.03832 -0.52311,1.20447 -1.1118,2.76529 -1.6606,4.4829 -1.09681,3.44235 -2.02975,7.519 -2.02975,10.54085 0,0.42762 0.23305,0.93364 0.60864,1.3185 0.3756,0.37773 0.8695,0.61292 1.28213,0.61292 h 22.79722 c 0.39911,0 0.89798,-0.23519 1.27571,-0.61292 0.37774,-0.38486 0.61294,-0.89088 0.61294,-1.3185 0,-3.02185 -0.93364,-7.0985 -2.03834,-10.54085 -0.54878,-1.71761 -1.1403,-3.27843 -1.6677,-4.4829 -0.42052,-0.96214 -0.84101,-1.70335 -1.06908,-2.03832 z m -1.84161,9.49318 h 20.71039 c 0.53453,2.07396 0.91226,4.25483 0.91226,6.00808 0,0.98353 -1.04055,2.01694 -2.08109,2.01694 h -18.39911 c -1.01845,0 -2.04758,-1.03341 -2.04758,-2.01694 0,-1.75325 0.37345,-3.93412 0.90513,-6.00808 z"
       id="path152"
       style="stroke-width:1.56251" /></g><style
     type="text/css"
     id="style1">
	.st0{fill:#000000;}
</style><style
     type="text/css"
     id="style1-5">
	.st0{fill:#000000;}
</style><style
     type="text/css"
     id="style1-6">
	.st0{fill:#000000;}
</style><style
     type="text/css"
     id="style1-8">
	.st0{fill:none;stroke:#000000;stroke-width:2;stroke-linecap:round;stroke-linejoin:round;stroke-miterlimit:10;}
</style><style
     type="text/css"
     id="style1-92">
	.st0{opacity:0.2;fill:none;stroke:#000000;stroke-width:5.000000e-02;stroke-miterlimit:10;}
</style><style
     type="text/css"
     id="style1-62">
<![CDATA[
	.st0{fill:#000000;}
]]>
</style><style
     type="text/css"
     id="style1-77">
	.st0{fill:#000000;}
</style><style
     type="text/css"
     id="style1-91">
	.st0{fill:none;stroke:#000000;stroke-width:2;stroke-linecap:round;stroke-linejoin:round;stroke-miterlimit:10;}
</style><style
     type="text/css"
     id="style1-2">
	.st0{fill:#000000;}
</style></svg>
