<?xml version="1.0" encoding="UTF-8" standalone="no"?>
<!-- Created with Inkscape (http://www.inkscape.org/) -->

<svg
   width="52.519348"
   height="52.519379"
   viewBox="0 0 52.519348 52.519381"
   version="1.1"
   id="svg1"
   inkscape:version="1.3.2 (091e20e, 2023-11-25, custom)"
   sodipodi:docname="icons.svg"
   xml:space="preserve"
   xmlns:inkscape="http://www.inkscape.org/namespaces/inkscape"
   xmlns:sodipodi="http://sodipodi.sourceforge.net/DTD/sodipodi-0.dtd"
   xmlns="http://www.w3.org/2000/svg"
   xmlns:svg="http://www.w3.org/2000/svg"><sodipodi:namedview
     id="namedview1"
     pagecolor="#ffffff"
     bordercolor="#000000"
     borderopacity="0.25"
     inkscape:showpageshadow="2"
     inkscape:pageopacity="0.0"
     inkscape:pagecheckerboard="0"
     inkscape:deskcolor="#d1d1d1"
     inkscape:document-units="px"
     inkscape:zoom="1.4142136"
     inkscape:cx="406.93995"
     inkscape:cy="285.67114"
     inkscape:window-width="1366"
     inkscape:window-height="697"
     inkscape:window-x="-8"
     inkscape:window-y="-8"
     inkscape:window-maximized="1"
     inkscape:current-layer="layer1" /><defs
     id="defs1"><style
       id="style1-9">.cls-1{fill:none;stroke:#020202;stroke-miterlimit:10;stroke-width:1.91px;}</style><style
       id="style1-7">.cls-1{fill-rule:evenodd;}</style></defs><g
     inkscape:label="Layer 1"
     inkscape:groupmode="layer"
     id="layer1"
     transform="translate(-190.52438,-205.58655)"><circle
       style="fill:#ffffff;fill-opacity:1;stroke:none;stroke-width:0.264583;stroke-linecap:round"
       id="path9"
       cx="216.78406"
       cy="231.84624"
       r="26.259682" /><g
       style="fill:#000000"
       id="g195"
       transform="matrix(1.8517584,0,0,1.8517584,195.16773,210.34434)"><path
         fill-rule="evenodd"
         d="m 13.4,16.6 c 0.8,0.8 0.8,2 0,2.8 C 13,19.8 12.5,20 12,20 c -0.5,0 -1,-0.2 -1.4,-0.6 -0.8,-0.8 -0.8,-2 0,-2.8 0.8,-0.8 2,-0.8 2.8,0 z M 12,12 c 1.6,0 3.1,0.6 4.2,1.8 0.4,0.4 0.4,1 0,1.4 -0.2,0.2 -0.5,0.3 -0.7,0.3 -0.257143,0 -0.440816,-0.07347 -0.613994,-0.220408 L 14.8,15.2 c -1.5,-1.5 -4,-1.5 -5.5,0 -0.4,0.4 -1,0.4 -1.4,0 C 7.5307692,14.830769 7.5023669,14.291124 7.8147929,13.895676 L 7.9,13.8 C 8.9,12.6 10.4,12 12,12 Z m 0,-4 c 2.6,0 5.1,1 6.9,2.9 0.4,0.4 0.4,1 0,1.4 -0.2,0.2 -0.4,0.3 -0.7,0.3 -0.257143,0 -0.440816,-0.07347 -0.613994,-0.220408 L 17.5,12.3 C 16,10.8 14.1,10 12,10 c -2.1,0 -4,0.8 -5.5,2.3 -0.4,0.4 -1,0.4 -1.4,0 -0.4,-0.4 -0.4,-1 0,-1.4 C 6.9,9 9.4,8 12,8 Z m 0,-4 c 3.7,0 7.1,1.5 9.7,4.1 0.4,0.4 0.4,1 0,1.4 C 21.5,9.7 21.3,9.8 21,9.8 20.7,9.8 20.5,9.7 20.3,9.5 18.1,7.2 15.1,6 12,6 8.9,6 5.9,7.2 3.7,9.5 3.3,9.9 2.7,9.9 2.3,9.5 1.9,9.1 1.9,8.5 2.3,8.1 4.9,5.5 8.3,4 12,4 Z"
         id="path194" /></g></g><style
     type="text/css"
     id="style1">
	.st0{fill:#000000;}
</style><style
     type="text/css"
     id="style1-5">
	.st0{fill:#000000;}
</style><style
     type="text/css"
     id="style1-6">
	.st0{fill:#000000;}
</style><style
     type="text/css"
     id="style1-8">
	.st0{fill:none;stroke:#000000;stroke-width:2;stroke-linecap:round;stroke-linejoin:round;stroke-miterlimit:10;}
</style><style
     type="text/css"
     id="style1-92">
	.st0{opacity:0.2;fill:none;stroke:#000000;stroke-width:5.000000e-02;stroke-miterlimit:10;}
</style><style
     type="text/css"
     id="style1-62">
<![CDATA[
	.st0{fill:#000000;}
]]>
</style><style
     type="text/css"
     id="style1-77">
	.st0{fill:#000000;}
</style><style
     type="text/css"
     id="style1-91">
	.st0{fill:none;stroke:#000000;stroke-width:2;stroke-linecap:round;stroke-linejoin:round;stroke-miterlimit:10;}
</style><style
     type="text/css"
     id="style1-2">
	.st0{fill:#000000;}
</style></svg>
